<?xml version="1.0" encoding="UTF-8" standalone="no"?>
<!DOCTYPE svg  PUBLIC '-//W3C//DTD SVG 1.1//EN'  'http://www.w3.org/Graphics/SVG/1.1/DTD/svg11.dtd'>
<svg version="1.1" xmlns="http://www.w3.org/2000/svg">
<defs>
<font id="SignPainter-HouseScript" horiz-adv-x="404">
<font-face font-weight="400" ascent="800" units-per-em="1000" bbox="-306.866 -488.647 1081.88 910.659" stemv="72" x-height="389" descent="-200" underline-thickness="20" font-family="SignPainter-HouseScript" unicode-range="U+000D-F8FF" panose-1="2 0 0 6 7 0 0 2 0 4" underline-position="-133" cap-height="616" stemh="30"/>
<missing-glyph d="M49 0v702h501v-702h-501zM99 658v-618h403v618h-403z" horiz-adv-x="604"/>
<glyph unicode="arr" d="M595 108c-19 -55 -8 -93 24 -95c58 -4 145 137 198 281c-78 29 14 164 55 166c32 2 24 -59 2 -125c35 4 71 21 110 48c12 8 22 12 30 2c18 -22 42 -68 13 -102c-47 -54 -95 -122 -113 -174c-19 -55 -7 -94 25 -96c40 -3 91 62 123 137c4 9 12 9 15 1c5 -12 9 -38 -3 -65 c-27 -60 -87 -103 -140 -102c-77 2 -108 71 -83 151c21 69 83 143 125 191c-44 -28 -87 -38 -120 -38c-52 -133 -137 -302 -244 -305c-76 -2 -105 71 -80 151c21 69 83 142 125 191c-43 -29 -87 -39 -120 -39c-52 -131 -137 -291 -245 -301c-56 -5 -85 31 -83 83 c-33 -40 -78 -79 -127 -79c-92 0 -111 125 -29 246c79 116 159 160 209 160c40 0 60 -30 60 -64c15 25 28 44 35 53c9 12 16 15 24 6c15 -16 24 -60 0 -110c-22 -45 -70 -121 -94 -174c-25 -56 -20 -94 12 -90c63 7 146 134 200 277c-80 28 13 163 55 166 c31 2 23 -59 1 -125c35 4 71 21 110 47c12 8 22 13 30 3c19 -23 44 -70 14 -103c-48 -53 -96 -121 -114 -173zM236 170c63 110 71 172 43 174c-32 2 -104 -61 -159 -149c-54 -86 -65 -175 -26 -175c40 0 92 63 142 150z" glyph-name="a_r_r" horiz-adv-x="1051"/>
<glyph unicode="err" d="M505 107c-17 -55 -5 -94 25 -95c60 -1 146 138 200 282c-79 28 15 163 55 166c33 2 24 -59 1 -125c37 4 73 21 112 47c12 8 21 11 28 3c20 -23 45 -69 15 -103c-47 -53 -100 -124 -115 -173c-17 -55 -5 -96 25 -97c42 -2 93 63 124 138c4 9 13 9 16 1c5 -12 7 -36 -5 -65 c-25 -60 -85 -103 -140 -102c-76 2 -106 71 -81 151c21 69 83 142 125 191c-44 -29 -87 -39 -120 -39c-54 -132 -140 -301 -246 -305c-75 -3 -105 73 -80 154c20 66 81 140 124 188c-44 -28 -89 -38 -120 -38c-83 -174 -190 -300 -309 -301c-127 -1 -169 121 -104 249 c62 123 164 180 214 151c25 -15 44 -29 59 -51c16 -24 7 -83 -33 -134c-47 -60 -114 -85 -184 -30c-32 -90 -7 -154 44 -156c110 -5 219 151 274 278c-76 32 21 165 62 167c32 1 22 -60 -3 -125c35 5 70 21 108 47c12 8 22 13 28 3c20 -23 45 -69 15 -103 c-46 -52 -98 -124 -114 -174zM218 241c32 41 52 94 40 104c-22 19 -104 -44 -149 -136c-4 -5 -5 -12 -9 -17c49 -30 88 11 118 49z" glyph-name="e_r_r" horiz-adv-x="964"/>
<glyph unicode="irr" d="M231 456c12 -25 4 -52 -7 -66c-12 -15 -41 -12 -56 15s-11 56 5 73s45 5 58 -22zM686 333c34 4 70 21 107 47c13 9 21 12 30 2c19 -21 44 -69 14 -102c-48 -53 -96 -120 -114 -174s-6 -94 25 -96c40 -2 91 63 124 138c4 9 10 10 15 0c5 -11 8 -37 -4 -65 c-26 -60 -85 -103 -140 -101c-76 3 -107 70 -82 151c20 66 81 141 125 190c-46 -29 -90 -38 -122 -38c-61 -123 -139 -302 -245 -304c-76 -1 -107 70 -81 151c21 68 84 144 127 192c-45 -30 -89 -40 -123 -40c-62 -142 -163 -289 -271 -301c-77 -8 -100 63 -72 145 c32 93 109 214 130 243c9 12 15 15 24 6c15 -16 21 -60 -1 -110c-20 -45 -60 -101 -86 -165c-23 -57 -20 -93 11 -90c65 6 170 123 226 278c-78 28 21 165 63 166c32 1 19 -62 -5 -125c35 4 71 21 110 47c13 8 21 13 28 3c20 -21 45 -70 15 -103c-47 -52 -99 -120 -115 -173 c-17 -55 -3 -93 27 -95c59 -4 155 133 202 281c-81 28 13 164 54 167c31 2 27 -63 4 -125z" glyph-name="i_r_r" horiz-adv-x="862"/>
<glyph unicode="orr" d="M496 108c-18 -55 -10 -96 26 -96c59 0 146 137 200 281c-79 29 14 164 55 166c31 2 24 -59 1 -125c35 4 71 21 110 48c13 9 21 12 30 2c19 -22 44 -68 14 -102c-48 -54 -96 -122 -114 -174c-19 -55 -6 -94 25 -96c40 -3 91 62 124 137c4 9 11 10 15 1c5 -12 8 -37 -4 -65 c-26 -60 -85 -105 -140 -102c-76 4 -107 71 -82 151c21 69 82 143 125 191c-44 -28 -88 -38 -120 -38c-53 -133 -139 -302 -245 -305c-77 -2 -107 72 -82 152c21 68 83 143 125 190c-45 -29 -90 -37 -122 -37c-28 -47 -68 -80 -123 -83c-21 -85 -83 -187 -157 -211 c-36 -12 -88 -11 -127 42c-43 59 -28 147 17 225c40 68 99 127 159 130c31 2 48 -5 68 -33c23 -32 53 -37 48 -110c0 -5 -1 -10 -3 -15c28 3 58 22 78 61c-74 31 24 165 65 165c35 0 16 -73 -3 -124c34 5 70 21 108 46c13 8 20 13 29 3c19 -22 44 -68 15 -101 c-48 -54 -98 -122 -115 -174zM257 248c6 29 8 52 6 69c-4 32 -26 26 -30 -4c-3 -25 5 -50 24 -65zM249 219c-38 20 -65 60 -66 98c-26 -23 -54 -57 -76 -95c-43 -75 -57 -166 -31 -189c27 -24 88 12 137 102c16 30 28 59 36 84z" glyph-name="o_r_r" horiz-adv-x="956"/>
<glyph unicode="urr" d="M578 108c-17 -55 -4 -96 26 -96c62 0 148 137 202 281c-79 29 15 164 55 166c31 2 23 -59 1 -125c35 4 71 21 110 48c13 9 21 12 30 2c19 -22 44 -68 14 -102c-48 -54 -97 -122 -114 -174c-18 -55 -6 -94 25 -96c41 -3 91 62 124 137c4 8 11 10 15 1c5 -12 8 -37 -4 -65 c-26 -60 -85 -105 -140 -102c-76 4 -106 71 -83 151c20 69 83 143 125 191c-43 -28 -87 -38 -118 -38c-54 -133 -145 -304 -248 -304c-76 0 -106 71 -81 151c21 69 82 143 125 191c-44 -28 -88 -38 -120 -38c-54 -132 -139 -293 -245 -302c-60 -5 -89 37 -84 93 c-35 -45 -86 -95 -140 -91c-73 6 -74 78 -53 145c21 66 73 161 138 251c9 12 18 11 25 1c23 -31 18 -74 -19 -132s-58 -99 -77 -148c-16 -43 -18 -84 5 -86c39 -3 93 67 147 154c63 101 92 170 123 211c10 14 16 15 25 6c15 -16 22 -60 -1 -110c-20 -45 -71 -120 -94 -171 c-25 -56 -21 -97 10 -93c65 8 147 135 200 278c-79 29 15 164 55 166c32 2 24 -59 1 -125c36 4 73 21 111 48c12 9 22 10 29 2c20 -22 44 -69 15 -102c-47 -54 -100 -127 -115 -174z" glyph-name="u_r_r" horiz-adv-x="1040"/>
<glyph unicode="ar" d="M209 69c-32 -41 -77 -80 -126 -80c-92 0 -112 127 -29 247c80 115 159 161 210 161c39 0 59 -31 59 -66c15 25 28 45 35 55c8 12 16 15 24 6c16 -18 23 -60 1 -110c-20 -45 -73 -123 -95 -174c-24 -57 -20 -94 11 -91c64 6 154 129 201 276c-81 29 14 165 54 168 c31 2 21 -57 0 -126c36 4 73 21 111 47c14 10 21 12 30 2c19 -21 43 -67 14 -101c-47 -54 -98 -124 -114 -174c-17 -55 -6 -94 25 -96c42 -3 92 63 124 138c4 8 11 10 15 0c5 -12 8 -37 -4 -65c-26 -60 -85 -104 -140 -102c-76 3 -106 72 -82 152c20 66 81 140 124 188 c-44 -26 -87 -37 -118 -37c-49 -141 -139 -292 -246 -300c-55 -4 -85 31 -84 82zM279 346c-31 2 -104 -62 -159 -150c-54 -86 -65 -173 -26 -174c40 -1 92 60 143 150c62 109 71 172 42 174z" glyph-name="a_r" horiz-adv-x="733"/>
<glyph unicode="cr" d="M664 86c-25 -60 -85 -105 -138 -102c-77 4 -108 71 -83 152c21 68 83 142 125 189c-45 -27 -89 -37 -121 -37c-73 -164 -186 -303 -311 -303c-127 0 -169 123 -104 250c64 124 165 181 215 151c27 -16 44 -34 55 -56c21 -41 -20 -95 -39 -147c-5 -14 -7 -17 -21 -10 c-24 12 -38 43 -24 87c12 36 44 80 28 91c-18 13 -92 -48 -138 -141c-55 -112 -34 -193 25 -196c109 -5 223 151 276 280c-78 30 20 165 62 166c31 1 21 -60 -4 -125c35 5 71 21 109 48c11 8 22 12 30 2c18 -21 43 -68 13 -102c-47 -53 -96 -120 -113 -174 c-18 -55 -7 -94 25 -96c40 -3 91 63 123 137c4 9 11 10 15 1c5 -11 7 -36 -5 -65z" glyph-name="c_r" horiz-adv-x="642"/>
<glyph unicode="er" d="M667 88c-25 -60 -85 -106 -140 -103c-76 4 -106 72 -81 153c21 67 81 141 124 189c-44 -28 -89 -38 -120 -38c-83 -174 -191 -300 -310 -302c-127 -2 -170 122 -105 250c63 124 165 180 215 151c25 -15 43 -29 59 -51c17 -24 7 -83 -33 -134c-47 -61 -114 -86 -184 -30 c-32 -91 -7 -156 44 -158c110 -5 220 153 275 280c-77 32 21 165 63 167c31 1 21 -60 -4 -125c35 5 70 21 109 47c12 8 21 13 28 3c20 -22 45 -70 15 -103c-47 -52 -98 -120 -115 -174c-17 -55 -5 -95 25 -96c42 -2 93 64 125 138c4 8 11 10 15 1c5 -11 7 -37 -5 -65z M101 195c49 -30 88 11 118 49c32 41 53 93 40 104c-22 19 -104 -44 -150 -136c-3 -5 -5 -12 -8 -17z" glyph-name="e_r" horiz-adv-x="645"/>
<glyph unicode="jr" d="M223 459c12 -26 6 -53 -6 -67c-13 -15 -40 -10 -56 15c-17 27 -12 57 5 74c16 16 45 5 57 -22zM8 -6c115 51 210 152 268 300c-75 30 24 163 63 165c33 2 22 -58 -2 -125c34 5 70 21 107 47c14 10 21 13 30 3c19 -22 44 -68 14 -102c-47 -53 -96 -121 -114 -175 c-18 -53 -6 -95 25 -96c40 -1 92 64 124 139c4 9 10 10 15 0c5 -11 8 -37 -4 -65c-26 -60 -86 -102 -140 -101c-76 2 -107 70 -82 151c20 65 81 141 124 189c-44 -27 -86 -37 -118 -37c-61 -141 -137 -259 -327 -335c-56 -134 -130 -296 -209 -326c-21 -8 -39 -9 -58 19 c-21 30 -43 66 -23 125c30 89 117 154 217 189c67 163 150 335 203 415c8 13 16 15 25 6c15 -16 20 -60 -3 -110c-25 -55 -92 -178 -135 -276zM-99 -83c-130 -75 -174 -213 -157 -237c13 -18 94 90 157 237z" glyph-name="j_r" horiz-adv-x="512"/>
<glyph unicode="kr" d="M714 150c5 -12 7 -36 -5 -65c-25 -60 -85 -104 -140 -102c-76 3 -106 72 -81 152c21 67 83 142 125 190c-44 -28 -87 -38 -120 -38c-52 -134 -149 -300 -247 -297c-69 2 -128 58 -127 192c0 19 3 23 22 29c123 40 190 127 175 154c-10 17 -54 7 -109 -35 c-75 -57 -120 -144 -198 -328c-4 -9 -10 -11 -16 -4c-15 19 -19 50 -1 110c27 92 192 420 281 542c9 13 20 12 26 1c15 -29 13 -69 -28 -144c-23 -41 -62 -109 -89 -157c31 30 60 48 87 56c39 11 63 -3 83 -45c18 -38 16 -81 -21 -116c-35 -33 -78 -62 -139 -82 c4 -82 34 -142 65 -143c51 -2 147 130 197 272c-80 30 14 165 55 168c32 2 24 -60 2 -127c35 5 71 22 110 48c12 10 21 12 28 2c20 -21 44 -67 15 -101c-47 -54 -99 -124 -115 -174c-17 -55 -5 -95 25 -96c42 -2 93 63 125 138c4 8 11 9 15 0z" glyph-name="k_r" horiz-adv-x="687"/>
<glyph unicode="or" d="M656 85c-27 -60 -85 -106 -140 -103c-77 4 -108 71 -83 153c20 67 83 141 125 190c-45 -29 -89 -39 -121 -39c-28 -45 -69 -79 -124 -81c-20 -85 -82 -188 -156 -212c-36 -12 -88 -10 -127 43c-43 59 -28 146 15 225c38 69 101 125 161 130c30 3 46 -7 67 -34 c24 -31 53 -37 48 -110c0 -5 -2 -10 -2 -16c28 5 57 24 78 62c-74 32 24 164 64 165c35 1 17 -72 -3 -125c35 5 70 22 108 48c13 9 22 12 30 2c18 -21 43 -68 13 -102c-47 -53 -95 -121 -113 -174c-19 -55 -7 -94 25 -96c40 -3 91 64 123 137c4 9 11 11 15 2 c5 -12 9 -39 -3 -65zM257 247c6 29 7 53 5 70c-4 33 -26 25 -30 -4c-3 -25 6 -50 25 -66zM248 218c-39 22 -64 62 -65 98c-27 -23 -55 -56 -77 -94c-43 -76 -57 -167 -31 -190s88 13 138 104c16 30 28 57 35 82z" glyph-name="o_r" horiz-adv-x="633"/>
<glyph unicode="tr" d="M579 85c-25 -60 -85 -104 -140 -102c-76 3 -106 72 -81 152c21 67 82 142 125 190c-45 -28 -89 -38 -122 -38c-66 -151 -170 -302 -275 -302c-67 0 -121 76 -73 191c20 49 63 134 106 211c-33 1 -55 15 -64 28s-4 21 11 20c32 -2 58 1 82 3c31 55 58 102 76 124 c9 14 19 13 24 0c11 -27 10 -62 -14 -115c32 -2 51 -19 60 -35c6 -11 1 -16 -14 -15c-20 1 -45 1 -72 -1c-39 -68 -97 -164 -135 -248c-34 -75 -20 -136 21 -135c60 2 165 125 227 280c-75 30 23 165 64 167c33 2 23 -60 -4 -125c35 3 72 20 109 46c13 9 20 12 29 2 c19 -22 45 -67 15 -101c-48 -54 -98 -121 -115 -174c-18 -55 -5 -95 25 -96c41 -2 92 63 125 138c4 8 11 10 15 0c5 -12 7 -37 -5 -65z" glyph-name="t_r" horiz-adv-x="557"/>
<glyph unicode="ur" d="M738 86c-25 -60 -85 -102 -138 -101c-78 2 -108 71 -83 151c21 67 83 142 125 190c-44 -28 -87 -38 -120 -38c-52 -132 -137 -292 -245 -301c-60 -5 -89 36 -84 93c-35 -47 -85 -96 -140 -92c-72 5 -73 79 -51 144c22 66 71 163 138 253c8 10 16 11 23 1 c24 -33 19 -74 -17 -134c-35 -59 -60 -99 -79 -146c-20 -49 -17 -84 5 -86c39 -3 95 66 148 152c63 103 91 170 123 213c9 12 16 14 24 6c15 -16 23 -60 -1 -110c-21 -45 -72 -120 -94 -171c-25 -57 -20 -96 11 -93c64 6 147 134 200 276c-80 30 14 165 55 168 c32 2 24 -60 2 -126c35 5 71 21 110 47c12 10 22 13 30 3c18 -22 43 -68 13 -102c-47 -53 -95 -122 -113 -173c-19 -55 -7 -95 25 -97c40 -2 91 63 123 138c4 9 11 9 15 0c5 -11 7 -35 -5 -65z" glyph-name="u_r" horiz-adv-x="716"/>
<glyph unicode="yr" d="M214 7c103 54 187 147 241 287c-73 31 24 165 64 166c32 1 22 -60 -2 -126c34 6 70 22 107 47c14 9 21 13 30 3c20 -22 44 -70 15 -102c-48 -53 -98 -121 -115 -173c-18 -55 -5 -96 25 -97c41 -2 91 63 124 138c4 8 12 10 16 0c4 -11 7 -36 -5 -65 c-25 -60 -85 -102 -140 -101c-76 2 -106 71 -83 151c19 67 80 139 122 187c-42 -26 -83 -34 -115 -35c-62 -140 -136 -253 -303 -323c-56 -135 -127 -294 -210 -328c-19 -8 -41 -7 -58 20c-20 31 -40 65 -20 124c30 90 116 150 215 189c10 24 20 49 31 73 c-31 -32 -69 -58 -109 -55c-73 5 -74 79 -51 144s71 163 136 253c8 11 17 11 25 1c24 -33 17 -74 -19 -134c-35 -59 -58 -99 -77 -146c-20 -49 -18 -84 5 -86c38 -3 88 61 140 148c44 74 86 164 121 215c10 14 17 16 25 7c14 -17 21 -61 -4 -110c-29 -58 -90 -177 -131 -272 zM105 -72c-130 -75 -175 -213 -158 -237c13 -18 95 89 158 237z" glyph-name="y_r" horiz-adv-x="692"/>
<glyph unicode="fr" d="M105 184c49 -13 69 -52 65 -124c-1 -9 -1 -18 -2 -28c62 39 124 144 165 261c-79 29 13 164 55 167c31 2 23 -60 1 -126c35 4 71 20 110 47c13 9 21 13 30 3c19 -22 44 -69 14 -102c-48 -53 -96 -122 -114 -173c-19 -55 -6 -95 25 -97c40 -2 91 63 124 138 c4 9 10 10 15 0c5 -11 7 -36 -5 -65c-25 -60 -85 -102 -140 -101c-76 2 -106 71 -81 151c21 67 81 141 124 189c-44 -27 -87 -37 -119 -37c-43 -123 -119 -249 -209 -286c-18 -104 -66 -220 -115 -281c-38 -47 -69 -38 -97 -13c-26 23 -52 58 -41 143 c28 222 257 605 369 771c9 13 19 11 24 -1c14 -34 9 -76 -34 -150c-40 -68 -111 -181 -164 -286zM101 17c5 25 8 50 9 73c2 37 -8 68 -16 65c-11 -4 -21 -56 -21 -80c0 -32 8 -56 28 -58zM95 -10c-29 3 -50 15 -61 39c-56 -133 -92 -257 -69 -286c22 -28 97 110 130 247z " glyph-name="f_r" horiz-adv-x="566"/>
<glyph unicode="fj" d="M475 395c-14 -15 -40 -10 -56 15c-17 27 -13 57 5 74c16 15 45 5 56 -22c11 -28 7 -54 -5 -67zM465 152c3 -9 0 -33 -15 -59c-40 -69 -119 -116 -209 -154c-56 -134 -130 -295 -209 -325c-19 -7 -38 -9 -57 19c-21 30 -41 65 -23 123c29 92 117 157 218 191 c21 52 44 106 67 157c-27 -17 -55 -22 -81 -21c-31 1 -61 20 -77 47c-44 -90 -92 -197 -135 -311c-4 -10 -10 -13 -17 -4c-15 20 -26 49 -6 110c53 163 226 552 364 674c16 14 29 17 42 5c28 -27 35 -62 22 -109c-33 -123 -155 -275 -253 -340c11 -25 35 -41 61 -41 c53 -1 110 51 142 118c29 62 58 112 81 145c9 13 16 15 24 6c15 -18 20 -60 -3 -110c-26 -56 -99 -194 -142 -293c92 49 148 112 190 173c5 7 13 9 16 -1zM160 287c-13 -26 -30 -53 -45 -84c144 116 214 306 200 314c-11 7 -88 -103 -155 -230zM152 -95 c-130 -75 -175 -214 -157 -237c14 -18 95 90 157 237z" glyph-name="f_j" horiz-adv-x="428"/>
<glyph unicode="fp" d="M210 21c-18 -11 -39 -21 -60 -26c-16 -100 -59 -210 -108 -270c-35 -43 -58 -46 -89 -20c-26 21 -54 60 -43 145c28 223 257 604 369 770c10 14 18 12 24 -1c14 -32 9 -75 -32 -150c-38 -70 -112 -179 -166 -284c37 -12 53 -50 52 -116c0 -13 -1 -28 -3 -42 c48 23 99 79 128 135c44 83 104 186 131 225c9 13 20 11 25 -2c5 -12 8 -27 7 -43c43 37 101 65 144 20c48 -50 27 -139 -11 -220c-31 -66 -67 -113 -105 -137c96 5 156 77 189 145c6 12 17 10 20 0c2 -8 1 -35 -15 -65c-38 -70 -104 -102 -176 -106c-63 -4 -105 4 -139 36 c-20 18 -30 41 -34 66c-51 -94 -106 -206 -155 -318c-4 -10 -11 -12 -17 -4c-15 21 -20 50 -2 110c10 32 35 87 66 152zM373 178c-23 -62 -29 -119 -1 -141c33 -26 96 46 142 141c39 80 50 162 24 174c-23 11 -82 -37 -130 -115c-10 -17 -23 -37 -35 -59zM102 17 c4 25 8 49 9 72c2 39 -9 70 -17 66c-10 -5 -21 -56 -21 -80c0 -32 8 -53 29 -58zM96 -10c-29 3 -50 16 -62 40c-56 -133 -92 -257 -68 -286c23 -27 97 110 130 246z" glyph-name="f_p" horiz-adv-x="652"/>
<glyph unicode="oj" d="M594 460c11 -26 5 -51 -6 -66c-14 -15 -40 -10 -56 15c-17 26 -12 58 5 74c16 15 45 6 57 -23zM578 150c2 -7 1 -31 -15 -58c-40 -69 -119 -117 -209 -153c-56 -134 -130 -296 -209 -326c-19 -7 -39 -9 -57 18c-21 32 -41 67 -23 125c29 92 117 156 218 191 c40 97 87 202 131 288c-30 -22 -62 -32 -100 -30c-20 -85 -82 -188 -157 -212c-37 -12 -88 -11 -127 42c-43 59 -28 147 17 225c40 68 98 127 158 130c32 2 49 -5 69 -33c23 -32 53 -37 48 -110c0 -5 -2 -12 -3 -17c61 0 121 67 173 144c9 13 17 18 25 8 c15 -17 20 -60 -3 -110c-26 -55 -99 -193 -142 -293c92 49 148 111 190 173c5 7 13 8 16 -2zM257 247c7 28 8 52 6 70c-4 32 -25 27 -30 -3c-4 -21 5 -50 24 -67zM250 222c-36 18 -65 56 -66 95c-27 -23 -55 -57 -77 -95c-43 -75 -57 -168 -32 -189c28 -24 89 12 138 102 c17 32 29 60 37 87zM265 -96c-130 -74 -175 -213 -157 -236c15 -19 95 88 157 236z" glyph-name="o_j" horiz-adv-x="541"/>
<glyph unicode="om" d="M954 151c5 -7 5 -39 -7 -63c-28 -55 -92 -107 -149 -106c-86 1 -116 69 -81 150c36 84 125 194 110 200c-8 3 -43 -10 -107 -74c-82 -82 -131 -177 -173 -270c-5 -12 -14 -15 -23 -6c-16 16 -28 54 -1 125c32 83 139 220 120 228c-10 4 -60 -23 -124 -93 c-58 -63 -106 -155 -146 -249c-4 -8 -9 -11 -19 -3c-21 17 -26 51 -10 101c10 33 35 84 64 140c-28 -19 -58 -28 -93 -25c-20 -86 -83 -190 -157 -214c-36 -12 -87 -11 -127 43c-43 58 -28 146 17 225c38 67 99 126 159 130c31 2 46 -7 67 -34c24 -31 54 -36 48 -110 c0 -5 0 -11 -2 -16c64 1 129 75 180 156c6 10 16 10 22 0c16 -26 13 -65 -2 -104c45 50 118 109 154 108c34 -1 51 -54 39 -98c47 45 114 92 146 91c36 -1 44 -60 24 -108c-19 -45 -67 -111 -91 -160c-28 -57 -15 -104 22 -102c40 2 85 67 123 138c5 9 12 7 17 0zM258 246 c6 29 9 52 6 70c-5 32 -26 27 -30 -3c-3 -21 4 -50 24 -67zM250 221c-35 19 -63 56 -65 95c-27 -23 -55 -57 -77 -95c-44 -75 -57 -166 -31 -189c27 -24 88 13 137 103c17 31 29 60 36 86z" glyph-name="o_m" horiz-adv-x="923"/>
<glyph unicode="on" d="M769 89c-27 -56 -88 -106 -147 -106c-83 0 -104 62 -75 147c34 98 121 204 104 210c-12 4 -68 -22 -132 -92c-58 -63 -105 -159 -146 -253c-3 -7 -10 -13 -19 -3c-18 20 -25 52 -8 102c11 31 33 83 63 136c-27 -18 -58 -27 -93 -25c-20 -85 -84 -188 -158 -212 c-36 -12 -87 -11 -126 42c-44 59 -29 147 16 225c39 68 99 125 159 130c30 3 47 -6 67 -33c24 -32 54 -38 48 -110c0 -5 0 -12 -1 -18c63 1 128 74 182 156c7 11 15 11 21 2c15 -25 15 -59 4 -94c45 47 111 101 145 97c33 -4 64 -55 39 -106c-22 -45 -69 -117 -93 -169 c-26 -57 -21 -102 17 -101c40 1 87 66 126 138c4 8 14 8 17 0c5 -12 5 -32 -10 -63zM258 247c6 28 9 52 6 70c-5 32 -26 26 -30 -3c-3 -22 4 -51 24 -67zM251 220c-35 19 -64 58 -65 97c-28 -23 -56 -58 -78 -95c-44 -75 -58 -168 -31 -190s89 13 137 103c17 32 29 60 37 85 z" glyph-name="o_n" horiz-adv-x="749"/>
<glyph unicode="ol" d="M445 205c-41 -101 -52 -187 -7 -190c47 -3 117 68 155 144c6 13 17 14 21 0c5 -16 0 -37 -10 -61c-12 -29 -86 -113 -165 -110c-67 3 -105 49 -82 156c3 14 6 26 10 39c-8 -1 -15 -1 -23 -1c-12 0 -24 1 -35 3c-25 -81 -84 -171 -152 -192c-37 -12 -89 -11 -127 42 c-43 59 -28 147 17 225c39 68 98 125 158 130c30 3 48 -6 68 -33c24 -32 52 -38 47 -110c-1 -12 -2 -24 -5 -38c9 -1 18 -2 28 -2s21 0 31 1c48 151 146 301 235 394c14 15 30 18 43 5c27 -27 34 -63 22 -109c-15 -56 -56 -128 -94 -175c-41 -51 -83 -94 -135 -118zM463 247 c47 32 84 81 105 111c44 64 84 152 71 161c-11 7 -87 -101 -155 -229c-8 -15 -15 -30 -21 -43zM255 242c8 31 11 57 8 75c-5 32 -25 26 -30 -3c-4 -26 4 -52 22 -72zM247 212c-39 26 -64 66 -64 103c-26 -21 -57 -55 -78 -93c-42 -75 -56 -168 -30 -190 c27 -23 89 13 138 103c15 28 25 53 34 77z" glyph-name="o_l" horiz-adv-x="574"/>
<glyph unicode="oi" d="M533 407c-15 27 -12 56 4 73s46 5 58 -23s4 -51 -7 -65c-12 -15 -40 -12 -55 15zM590 150c6 -16 5 -37 -8 -63c-30 -60 -94 -105 -150 -104c-76 1 -94 65 -66 147c10 28 25 64 42 100c-27 -20 -58 -27 -93 -25c-20 -85 -83 -188 -158 -212c-36 -12 -87 -11 -126 42 c-44 59 -29 147 16 225c40 68 99 125 159 130c31 3 49 -4 69 -33c22 -32 52 -38 47 -110c0 -5 -1 -12 -2 -17c62 0 121 65 173 143c9 14 17 15 25 6c15 -16 22 -59 -1 -109c-20 -44 -63 -113 -84 -162c-25 -58 -23 -98 10 -96c44 2 100 68 130 138c4 9 12 9 17 0zM257 247 c8 28 8 52 6 70c-3 32 -25 26 -30 -3c-4 -22 5 -50 24 -67zM251 220c-36 19 -65 58 -66 97c-27 -23 -57 -57 -78 -95c-42 -75 -57 -168 -31 -190c27 -23 89 13 137 103c17 32 29 60 38 85z" glyph-name="o_i" horiz-adv-x="563"/>
<glyph unicode="oo" d="M692 215c-6 -7 -16 -11 -28 -12c-21 -85 -83 -186 -156 -210c-36 -12 -87 -10 -126 42c-36 48 -33 115 -6 182c-19 -9 -40 -13 -62 -13c-21 -86 -83 -187 -157 -211c-36 -12 -85 -10 -125 42c-45 59 -29 147 15 225c39 68 100 125 160 130c30 3 47 -5 67 -33 c23 -32 53 -38 48 -110c0 -5 -1 -10 -1 -15c40 6 78 39 108 76c37 46 82 79 128 82c30 2 47 -6 67 -33c24 -32 53 -38 48 -110c-1 -8 -1 -15 -3 -23c7 0 13 0 19 1c9 2 9 -5 4 -10zM263 317c-4 32 -26 26 -30 -4c-4 -28 4 -54 24 -69c7 30 8 55 6 73zM607 243 c7 31 8 56 6 74c-4 32 -24 26 -29 -3c-5 -27 7 -56 23 -71zM599 217c-7 2 -13 6 -18 11c-23 16 -47 51 -47 87c-27 -21 -55 -55 -77 -93c-43 -75 -55 -168 -30 -190c26 -23 87 13 136 103c16 29 28 57 36 82zM184 315c-27 -21 -55 -55 -77 -93c-43 -75 -58 -168 -30 -190 c27 -21 87 13 136 103c16 30 29 58 36 83c-32 17 -65 55 -65 97z" glyph-name="o_o" horiz-adv-x="691"/>
<glyph unicode="gr" d="M178 40c-29 -29 -64 -52 -102 -52c-91 0 -110 127 -27 247c80 115 158 161 208 161c41 0 61 -31 60 -66c12 20 23 39 34 55c8 12 17 15 25 5c14 -17 21 -59 -4 -110c-29 -58 -88 -175 -131 -271c103 53 187 144 240 284c-73 32 24 165 64 167c34 2 23 -59 -2 -126 c34 6 70 21 108 47c14 9 20 12 29 2c19 -22 45 -67 15 -101c-48 -54 -98 -121 -115 -174c-18 -55 -5 -95 25 -96c41 -2 92 63 125 138c4 8 11 10 15 0c5 -12 7 -37 -5 -65c-25 -60 -85 -104 -140 -102c-76 3 -106 72 -81 152c21 67 82 141 125 190c-44 -28 -88 -39 -121 -39 c-61 -140 -135 -252 -300 -320c-57 -134 -128 -296 -211 -329c-18 -7 -39 -7 -57 21c-20 30 -39 65 -20 124c29 89 113 149 215 190c9 23 18 45 28 68zM230 171c64 109 72 172 44 174c-32 2 -104 -62 -159 -150c-54 -86 -65 -174 -26 -174c38 0 89 62 141 150zM133 -70 c-132 -78 -176 -213 -158 -238c13 -19 93 87 158 238z" glyph-name="g_r" horiz-adv-x="718"/>
<glyph unicode="ou" d="M790 90c-29 -57 -90 -107 -149 -107c-65 0 -90 40 -82 98c-35 -46 -86 -99 -143 -94c-71 6 -73 79 -51 145c8 25 21 55 38 86c-28 -13 -59 -21 -90 -18c-23 -84 -84 -183 -155 -207c-37 -12 -88 -8 -127 44c-44 59 -29 145 15 225c38 69 100 125 160 129 c30 2 47 -7 68 -34c24 -30 52 -36 47 -110c0 -6 -1 -12 -2 -20c57 1 112 48 146 103c10 16 26 38 38 55c8 11 17 10 25 1c22 -33 17 -75 -19 -134s-59 -99 -78 -146c-20 -49 -17 -84 5 -86c39 -3 95 65 148 152c62 101 91 170 122 213c9 13 17 15 25 6 c15 -18 23 -61 -1 -111c-22 -45 -71 -118 -94 -170c-26 -58 -22 -99 14 -97c41 2 93 68 131 138c5 9 13 10 18 1s5 -35 -9 -62zM263 318c-4 32 -27 25 -30 -3c-3 -27 5 -52 23 -68c8 29 9 54 7 71zM249 218c-34 19 -65 58 -65 99c-26 -22 -56 -56 -78 -95 c-42 -75 -56 -166 -30 -189s88 13 138 104c16 29 26 56 35 81z" glyph-name="o_u" horiz-adv-x="765"/>
<glyph unicode="ir" d="M232 459c12 -25 4 -52 -7 -66c-12 -15 -41 -12 -56 15s-11 56 5 73s45 5 58 -22zM362 334c36 4 72 21 110 47c12 9 22 13 30 3c18 -21 42 -68 13 -101c-47 -54 -96 -122 -113 -175c-18 -54 -7 -96 25 -97c40 -1 91 64 123 139c4 9 11 9 15 0c5 -11 7 -36 -5 -65 c-25 -60 -85 -102 -140 -101c-76 2 -107 70 -81 151c21 68 84 144 127 192c-45 -30 -90 -40 -123 -40c-62 -142 -162 -289 -271 -301c-77 -8 -97 63 -71 145c30 93 108 214 129 243c9 12 16 15 24 6c15 -16 21 -60 -1 -110c-19 -44 -60 -101 -86 -164 c-24 -57 -21 -95 11 -91c65 8 170 123 226 278c-77 29 21 165 63 166c32 1 19 -62 -5 -125z" glyph-name="i_r" horiz-adv-x="539"/>
<glyph unicode="ov" d="M667 300c-49 -63 -140 -158 -235 -309c-5 -8 -10 -15 -21 -10c-38 19 -51 39 -49 91c2 40 13 103 26 168c-18 -20 -47 -31 -75 -34c-20 -85 -82 -189 -157 -212c-38 -12 -85 -10 -125 43c-45 59 -29 145 15 225c38 69 100 125 160 129c30 2 46 -6 67 -34 c23 -30 53 -36 48 -110c0 -3 -1 -7 -1 -12c56 14 87 79 106 151c4 15 13 15 21 8c33 -28 39 -64 24 -124c-19 -76 -38 -131 -51 -238c71 117 202 288 270 358c11 11 16 9 18 -4c3 -21 -10 -47 -41 -86zM256 247c7 29 8 54 6 72c-4 31 -26 25 -30 -4c-4 -26 5 -51 24 -68z M248 219c-33 18 -65 57 -65 98c-27 -22 -55 -57 -77 -95c-43 -75 -58 -166 -31 -188s88 12 137 103c16 29 28 57 36 82z" glyph-name="o_v" horiz-adv-x="649"/>
<glyph unicode="ow" d="M887 360c-7 -40 -22 -84 -86 -188c-69 -112 -139 -188 -204 -187c-42 1 -67 39 -63 81c-33 -40 -74 -80 -122 -76c-61 5 -72 69 -47 142c9 27 21 54 37 87c-30 -15 -61 -20 -90 -19c-22 -84 -83 -183 -156 -206c-36 -11 -85 -10 -125 43c-45 59 -29 145 15 225 c38 69 100 125 160 129c30 2 47 -5 68 -34c22 -30 52 -36 47 -110c0 -6 -1 -13 -2 -20c58 2 112 47 147 104c10 16 25 38 36 54c8 12 18 10 25 1c23 -32 18 -75 -18 -134s-60 -103 -80 -151c-20 -49 -19 -83 3 -82c39 1 76 66 130 153c64 102 93 170 124 213 c9 13 17 16 25 6c15 -17 23 -61 -2 -111c-22 -44 -70 -121 -95 -173c-27 -56 -25 -92 3 -92c37 0 97 67 149 161c18 150 85 215 105 219c14 3 21 -10 16 -35zM256 247c8 29 8 54 6 72c-3 31 -26 25 -30 -4c-4 -26 5 -51 24 -68zM249 219c-34 18 -65 57 -65 98 c-28 -22 -57 -57 -78 -95c-42 -75 -57 -166 -31 -188c27 -23 89 12 137 103c16 30 28 57 37 82z" glyph-name="o_w" horiz-adv-x="863"/>
<glyph unicode="tt" d="M131 386c-34 3 -55 18 -65 31s-2 19 13 19c23 0 51 0 80 1c30 52 59 97 75 120c10 13 19 13 24 0c11 -28 11 -62 -15 -116c53 2 105 6 146 8c30 52 56 96 72 117c10 13 19 11 24 -1c12 -27 11 -61 -13 -114c38 -3 53 -18 62 -32c7 -12 2 -19 -13 -18c-17 1 -43 1 -75 0 c-38 -70 -99 -168 -137 -252c-33 -74 -21 -135 20 -137c45 -2 101 69 139 144c6 12 17 14 21 0c5 -16 0 -34 -10 -57c-13 -29 -79 -117 -160 -114c-41 2 -77 31 -87 82c-26 -37 -75 -84 -136 -82c-67 2 -118 76 -71 191c20 49 63 133 106 210zM360 397 c-50 -3 -102 -7 -145 -9c-39 -67 -93 -157 -130 -239c-33 -73 -21 -135 21 -137c44 -2 103 75 135 149c23 54 72 150 119 236z" glyph-name="t_t" horiz-adv-x="444"/>
<glyph unicode="op" d="M755 83c-37 -68 -105 -101 -176 -106c-62 -4 -105 6 -140 38c-19 18 -30 40 -32 65c-52 -95 -108 -207 -157 -319c-4 -9 -11 -12 -16 -3c-15 20 -21 49 -2 110c20 64 105 233 177 364c-27 -20 -59 -29 -94 -26c-21 -86 -83 -190 -158 -214c-37 -12 -85 -9 -126 43 c-45 58 -28 146 16 225c38 68 100 126 160 130c30 2 47 -7 67 -34c23 -31 53 -36 48 -110c0 -5 -2 -11 -3 -16c64 1 128 73 181 155c9 13 19 11 24 -2c5 -12 9 -26 8 -45c43 39 104 70 146 23c46 -51 25 -139 -13 -220c-31 -66 -66 -113 -103 -136c96 5 156 76 188 143 c6 14 17 10 20 0c3 -9 2 -33 -15 -65zM257 246c7 29 8 52 6 70c-4 32 -25 27 -30 -3c-4 -21 5 -50 24 -67zM603 176c39 81 49 164 24 174s-83 -37 -130 -114c-11 -19 -24 -39 -37 -60c-23 -61 -28 -119 -1 -141c33 -27 98 46 144 141zM250 221c-36 19 -65 56 -66 95 c-26 -23 -54 -56 -77 -95c-43 -75 -57 -168 -32 -189c28 -24 89 13 138 103c17 31 29 60 37 86z" glyph-name="o_p" horiz-adv-x="741"/>
<glyph unicode="oy" d="M777 154c2 -9 -2 -31 -19 -58c-38 -62 -108 -100 -191 -133c-56 -136 -129 -296 -210 -328c-20 -8 -38 -6 -57 20c-22 31 -38 66 -20 124c28 90 115 151 213 190c10 24 20 47 30 72c-30 -32 -68 -59 -108 -55c-72 7 -74 79 -52 145c9 27 25 62 44 99 c-29 -19 -59 -27 -92 -25c-22 -85 -84 -189 -158 -212c-37 -12 -87 -10 -126 42c-44 59 -29 146 16 225c39 69 99 126 159 130c30 2 46 -7 67 -34c24 -31 53 -36 48 -110c0 -5 -1 -10 -1 -16c66 3 126 73 180 153c8 12 17 13 26 1c22 -31 17 -74 -19 -133 c-35 -58 -59 -98 -77 -147s-18 -84 3 -86c40 -3 90 61 142 148c44 74 86 164 121 217c8 12 16 15 24 5c15 -17 22 -60 -3 -110c-30 -59 -91 -179 -134 -275c79 41 137 98 177 153c6 8 15 8 17 -2zM257 246c6 29 8 53 6 70c-5 33 -26 28 -30 -2c-3 -21 4 -50 24 -68zM250 221 c-35 19 -64 57 -65 95c-28 -22 -56 -56 -79 -95c-43 -75 -56 -166 -30 -188c27 -23 87 12 137 102c17 31 29 60 37 86zM477 -72c-131 -76 -175 -214 -157 -238c13 -18 95 90 157 238z" glyph-name="o_y" horiz-adv-x="748"/>
<glyph unicode="ax" d="M484 149c-7 76 -14 182 -24 231c-3 14 6 18 20 15c33 -7 58 -32 65 -98c3 -25 5 -53 7 -82c59 60 114 123 150 173c8 11 22 12 21 -5c-1 -24 -21 -54 -41 -83c-22 -31 -69 -84 -126 -138c3 -35 6 -67 9 -89c6 -39 17 -54 30 -54c36 -1 87 73 113 134c4 9 15 9 17 -1 c3 -15 5 -38 -12 -68c-36 -64 -87 -98 -138 -99c-52 -1 -79 32 -87 113c0 1 0 2 -1 3c-76 -64 -156 -116 -211 -116c-47 0 -74 31 -73 79c-31 -39 -75 -74 -122 -74c-92 0 -110 125 -29 247c78 118 159 161 210 161c42 0 62 -35 59 -73c13 25 24 45 36 60c10 13 17 17 25 7 c15 -17 23 -60 -1 -110c-22 -45 -79 -130 -103 -182c-22 -47 -25 -86 4 -85c42 2 121 60 202 134zM235 172c62 110 71 170 42 173c-31 3 -104 -61 -159 -148c-54 -86 -65 -175 -26 -175c40 0 93 61 143 150z" glyph-name="a_x" horiz-adv-x="695"/>
<glyph unicode="ex" d="M389 146c-5 76 -15 184 -25 233c-4 13 6 17 19 14c33 -8 57 -31 65 -99c3 -26 5 -55 8 -85c62 63 116 130 153 179c8 11 22 12 20 -5c-3 -24 -22 -55 -43 -84s-67 -84 -126 -140c3 -33 5 -64 8 -86c5 -40 17 -54 31 -54c35 -1 86 73 112 134c5 9 16 7 18 -1 c4 -15 3 -38 -13 -68c-35 -64 -87 -98 -137 -99c-53 -1 -80 32 -86 113v2c-75 -60 -161 -109 -243 -113c-135 -6 -181 122 -116 250c63 124 165 180 216 151c24 -14 44 -29 58 -50c17 -25 7 -84 -33 -135c-48 -61 -113 -87 -184 -30c-32 -93 -7 -162 63 -156 c73 6 157 60 235 129zM100 196c50 -31 89 11 118 49c32 42 53 93 40 104c-22 18 -105 -44 -150 -136c-3 -6 -6 -12 -8 -17z" glyph-name="e_x" horiz-adv-x="599"/>
<glyph unicode="ix" d="M232 459c11 -26 5 -54 -6 -66c-14 -15 -41 -12 -56 15s-13 56 5 73c17 16 46 5 57 -22zM339 209c59 60 112 124 148 174c9 12 21 12 20 -4c-1 -25 -16 -51 -37 -80c-23 -31 -71 -85 -127 -140c2 -34 4 -65 7 -88c5 -40 16 -52 30 -53c35 -2 87 73 115 133c4 9 13 8 16 -1 c4 -14 5 -38 -12 -67c-37 -64 -89 -99 -140 -99c-52 0 -79 31 -84 113c-72 -62 -150 -113 -205 -113c-76 0 -95 64 -69 146c25 79 108 215 129 244c9 12 16 16 24 6c16 -16 23 -60 1 -110c-20 -45 -68 -115 -89 -165c-24 -56 -20 -93 13 -91c41 2 116 58 193 129 c-5 75 -13 181 -23 231c-3 14 7 17 20 15c32 -6 56 -33 63 -99c3 -25 5 -52 7 -81z" glyph-name="i_x" horiz-adv-x="484"/>
<glyph unicode="ox" d="M653 151c4 -11 5 -32 -11 -63c-31 -61 -81 -101 -131 -103c-53 -2 -81 31 -93 112c0 8 -1 18 -3 30c-48 -41 -98 -87 -138 -136c-8 -9 -22 -15 -21 2c2 34 24 63 61 103c23 25 55 52 90 81c-11 74 -27 170 -39 201c-5 13 4 16 18 15c37 -2 62 -31 71 -75 c5 -24 10 -56 15 -88c54 45 109 95 151 151c10 13 22 14 22 -4c0 -32 -22 -61 -55 -100c-22 -26 -64 -57 -112 -96c7 -43 14 -85 18 -109c7 -40 20 -55 32 -55c37 -1 80 70 109 134c5 10 13 8 16 0zM342 218c-7 -8 -17 -12 -27 -13c-21 -85 -84 -186 -158 -211 c-36 -12 -86 -8 -126 44c-44 58 -29 145 16 225c38 68 99 126 159 130c31 2 48 -7 68 -34c23 -31 53 -38 47 -110c-1 -8 -1 -15 -2 -23c6 0 12 2 20 2c7 0 7 -5 3 -10zM256 245c8 31 11 56 8 74c-5 32 -25 26 -30 -3c-5 -27 6 -56 22 -71zM249 218c-7 3 -13 7 -19 12 c-21 16 -45 51 -46 88c-27 -23 -56 -56 -77 -94c-42 -76 -57 -168 -31 -190c28 -23 89 12 138 104c15 28 27 56 35 80z" glyph-name="o_x" horiz-adv-x="624"/>
<glyph unicode="ux" d="M483 148c-7 76 -14 183 -24 232c-3 13 6 16 18 15c30 -7 60 -31 67 -99c3 -25 5 -53 7 -82c59 60 114 123 150 173c8 11 21 13 20 -5c-1 -24 -21 -53 -41 -82c-21 -31 -69 -84 -125 -138c2 -35 4 -68 7 -90c5 -41 18 -54 32 -54c35 -1 86 73 112 134c5 9 16 9 18 -1 c3 -15 3 -39 -13 -68c-35 -63 -87 -96 -137 -98c-53 -2 -79 31 -87 112v4c-77 -63 -158 -116 -213 -116c-52 0 -81 34 -76 88c-34 -44 -83 -90 -136 -86c-71 6 -74 79 -51 145c23 65 73 163 138 253c8 11 17 10 25 1c22 -33 17 -75 -19 -134s-59 -99 -78 -146 c-20 -49 -17 -84 5 -86c39 -3 95 65 148 152c62 101 91 170 122 213c9 13 17 15 25 6c15 -18 23 -61 -1 -111c-22 -45 -77 -133 -101 -188c-18 -41 -24 -78 5 -77c41 1 121 59 203 133z" glyph-name="u_x" horiz-adv-x="672"/>
<glyph unicode="gj" d="M650 393c-12 -14 -42 -8 -56 15c-16 26 -11 57 5 73s45 7 57 -22c11 -27 7 -51 -6 -66zM639 149c3 -7 -1 -33 -16 -59c-39 -69 -113 -104 -200 -139c-57 -135 -119 -290 -199 -334c-20 -11 -44 -5 -60 19c-18 26 -35 67 -18 120c27 85 90 150 204 200c11 30 25 59 38 89 c-43 -34 -98 -59 -158 -81c-62 -135 -137 -290 -221 -320c-21 -7 -39 -5 -56 22c-20 31 -39 66 -17 124c33 89 120 147 220 181c10 23 20 44 30 67c-28 -29 -63 -51 -101 -51c-91 0 -110 126 -29 246c79 117 160 161 210 161c40 0 60 -31 60 -68c12 22 23 40 34 57 c9 14 16 15 24 6c15 -18 22 -61 -3 -110c-30 -60 -88 -181 -132 -275c89 44 147 94 187 149c45 92 88 175 119 221c10 14 15 15 24 6c15 -16 19 -60 -3 -110c-23 -52 -92 -180 -136 -278c91 48 141 97 181 158c7 8 14 9 18 -1zM239 169c64 110 71 172 44 174 c-33 2 -105 -62 -160 -150c-53 -85 -65 -173 -25 -174c38 -1 90 62 141 150zM139 -69c-133 -70 -183 -206 -165 -231c14 -19 94 82 165 231zM331 -88c-121 -80 -163 -217 -146 -240c9 -13 85 88 146 240z" glyph-name="g_j" horiz-adv-x="604"/>
<glyph unicode="rr" d="M695 85c-26 -60 -86 -102 -140 -101c-76 2 -107 71 -82 151c21 68 82 143 125 190c-44 -27 -88 -37 -120 -37c-53 -133 -140 -302 -247 -305c-77 -2 -103 72 -80 152c20 68 84 143 127 190c-45 -27 -90 -37 -123 -37c-39 -75 -139 -224 -159 -320c-2 -9 -10 -15 -19 -5 c-31 31 -30 80 -1 134c24 45 94 143 133 201c-62 36 31 161 70 162c32 1 24 -60 -3 -125c35 5 70 22 108 47c14 9 21 11 30 2c20 -21 44 -69 15 -101c-48 -54 -98 -121 -115 -174c-18 -55 -5 -97 25 -96c59 2 146 137 200 280c-80 30 14 165 55 167c31 2 24 -60 1 -126 c35 5 71 20 110 48c13 10 21 12 30 2c19 -21 43 -68 14 -101c-48 -54 -96 -121 -114 -174c-19 -55 -6 -94 25 -96c40 -3 91 62 124 137c4 9 10 10 15 0c5 -11 8 -36 -4 -65z" glyph-name="r_r" horiz-adv-x="671"/>
<glyph unicode="sr" d="M625 85c-25 -60 -85 -102 -140 -101c-76 2 -106 71 -81 151c21 68 83 143 125 190c-44 -27 -87 -37 -120 -37c-52 -132 -122 -277 -237 -301c-70 -15 -134 10 -168 73c-24 45 -21 109 14 136c13 10 20 7 21 -10c0 -7 0 -16 1 -23c42 56 85 120 115 171c4 39 14 58 34 76 c23 21 45 24 54 15c10 -10 5 -21 -8 -44c-3 -5 -6 -12 -10 -18c-6 -90 12 -169 8 -237c-2 -36 -8 -76 -39 -100c65 33 129 142 176 267c-80 30 14 165 55 167c32 2 24 -60 2 -126c35 5 71 21 110 47c12 10 22 13 30 3c18 -21 42 -68 13 -101c-47 -54 -99 -122 -115 -174 c-17 -55 -5 -96 25 -97c42 -2 93 63 125 138c4 9 11 9 15 0c5 -11 7 -35 -5 -65zM153 269c-30 -51 -66 -106 -104 -159c15 -59 45 -100 78 -89c43 14 28 168 26 248z" glyph-name="s_r" horiz-adv-x="603"/>
<glyph d="M49 0v702h501v-702h-501zM99 658v-618h403v618h-403z" glyph-name=".notdef" horiz-adv-x="604"/>
<glyph glyph-name=".null" horiz-adv-x="0"/>
<glyph glyph-name=".null" horiz-adv-x="0"/>
<glyph unicode="" glyph-name="CR" horiz-adv-x="220"/>
<glyph unicode=" " glyph-name="space" horiz-adv-x="220"/>
<glyph unicode="$" d="M290 499c21 37 41 71 60 102c7 12 13 13 19 2c9 -15 5 -46 -15 -89c-6 -12 -12 -25 -20 -39c14 -12 24 -26 30 -42c16 -44 -23 -94 -44 -146c-5 -11 -8 -15 -22 -6c-24 15 -33 40 -16 83c12 31 42 74 25 87c-19 15 -142 -54 -146 -133c-2 -39 72 -66 107 -92 c30 -22 21 -59 -8 -90c-23 -25 -70 -39 -120 -25c-17 -33 -32 -65 -47 -95c-5 -10 -9 -10 -14 -3c-8 11 -12 32 4 74c5 12 10 26 16 41c-24 14 -48 36 -70 67c-6 8 -3 14 6 16c17 4 43 -1 64 -17c28 -21 50 -48 92 -51c16 -1 31 4 39 12c11 11 6 23 -4 31 c-32 28 -135 62 -134 127c1 85 80 153 146 181c17 7 36 8 52 5z" glyph-name="dollar" horiz-adv-x="351"/>
<glyph unicode="%" d="M478 469c-34 -2 -69 8 -96 26c0 -6 0 -12 -1 -19c-8 -69 -68 -177 -136 -196c-29 -8 -67 -5 -97 38c-33 47 -19 114 17 176c31 53 81 96 129 97c24 1 36 -4 52 -28c46 -68 156 -69 202 -19c18 19 25 18 27 4c6 -34 -16 -73 -50 -113c-80 -94 -266 -300 -358 -434 c-6 -9 -13 -9 -17 2c-7 20 -2 50 23 90c47 75 194 251 305 376zM453 -15c-29 -9 -68 -7 -99 35c-34 46 -22 114 13 175c32 56 78 99 125 102c24 2 38 -4 54 -26c18 -25 40 -29 36 -86c-5 -70 -63 -180 -129 -200zM327 542c-20 20 -77 -24 -112 -82 c-32 -54 -45 -122 -27 -139s64 8 102 73c38 66 52 133 37 148zM526 248c-19 19 -75 -25 -109 -84c-32 -56 -43 -125 -24 -140c21 -16 65 9 101 76s46 134 32 148z" glyph-name="percent" horiz-adv-x="596"/>
<glyph unicode="&amp;" d="M337 142c-17 -3 -32 -7 -46 -8c-49 -5 -79 10 -93 40c-4 9 -3 16 10 16c63 -1 143 29 205 33c48 3 76 -18 90 -48c3 -11 1 -17 -10 -16c-33 4 -68 0 -101 -6c7 -28 -2 -66 -34 -108c-57 -74 -185 -131 -280 -48c-108 94 -21 272 137 317c-32 11 -57 35 -59 78 c-5 98 107 185 174 206c51 16 96 24 141 -15c43 -37 46 -68 22 -118c-14 -30 -32 -72 -41 -97c-3 -8 -9 -11 -21 -5c-23 12 -40 45 -22 96c19 55 50 85 32 102c-30 29 -221 -82 -214 -182c3 -40 34 -46 73 -45c49 1 68 -25 74 -42c4 -10 -1 -13 -11 -14 c-148 -12 -271 -103 -274 -199c-1 -41 23 -72 67 -75c49 -3 136 40 181 138z" glyph-name="ampersand" horiz-adv-x="523"/>
<glyph unicode="&apos;" d="M190 436c-10 -13 -19 -15 -26 -14c-6 1 -7 7 -4 17c18 52 76 158 108 197c12 14 21 10 25 0c8 -20 0 -43 -11 -61c-22 -38 -66 -106 -92 -139z" glyph-name="quotesingle" horiz-adv-x="241"/>
<glyph unicode="(" d="M346 643c10 6 17 5 19 -7c5 -31 -15 -75 -69 -123c-135 -121 -222 -324 -203 -570c1 -9 -6 -9 -11 -6c-10 6 -23 25 -28 54c-38 226 57 505 292 652z" glyph-name="parenleft" horiz-adv-x="228"/>
<glyph unicode=")" d="M279 633c60 -271 -90 -549 -242 -661c-30 -22 -59 -32 -79 -32c-8 0 -9 6 -3 11c189 160 273 385 266 556c-3 71 15 115 40 134c9 7 16 3 18 -8z" glyph-name="parenright" horiz-adv-x="245"/>
<glyph unicode="*" d="M429 531c-5 -22 -24 -37 -50 -44c-15 -4 -42 -10 -70 -16c18 -29 35 -57 49 -74c6 -7 1 -14 -9 -15c-16 -1 -30 2 -50 27c-7 9 -15 18 -22 29c-19 -32 -37 -65 -48 -90c-3 -7 -10 -7 -15 -1c-10 11 -14 31 -2 62c4 9 8 25 17 43c-27 -6 -55 -13 -76 -19 c-9 -2 -15 0 -13 9c3 14 15 32 48 44c12 4 27 10 46 15c-17 27 -35 56 -50 83c-4 8 -2 16 8 17c22 2 42 -10 58 -37c5 -8 13 -18 22 -32c23 46 50 91 65 115c5 8 9 6 15 2c12 -8 20 -32 3 -67c-5 -10 -17 -31 -32 -59c32 8 65 15 92 20c12 2 16 -2 14 -12z" glyph-name="asterisk" horiz-adv-x="366"/>
<glyph unicode="+" d="M250 314c47 -1 66 -24 71 -54c2 -9 2 -14 -11 -13c-36 4 -68 1 -97 -2c-20 -34 -40 -69 -52 -99c-3 -12 -9 -14 -18 -7c-14 11 -31 36 -12 83c2 5 4 11 7 17h-2c-46 1 -67 23 -74 53c-2 9 0 15 12 14c29 -2 65 0 98 3c19 34 38 69 54 97c7 12 15 10 23 1 c16 -18 22 -50 1 -93z" glyph-name="plus" horiz-adv-x="314"/>
<glyph unicode="," d="M86 -16c-13 7 -21 25 -16 47c7 30 31 48 52 47c24 -1 39 -32 27 -68c-13 -39 -55 -68 -90 -54c-7 3 -5 10 0 12c8 3 18 8 27 16z" glyph-name="comma" horiz-adv-x="239"/>
<glyph unicode="-" d="M118 199c-47 2 -67 23 -73 53c-2 9 -1 15 10 14c54 -3 128 8 174 8c50 0 69 -23 75 -52c2 -9 0 -15 -11 -14c-73 6 -129 -11 -175 -9z" glyph-name="hyphen" horiz-adv-x="325"/>
<glyph unicode="." d="M60 43c12 27 37 42 57 35s26 -33 15 -60c-11 -26 -37 -42 -57 -35s-26 36 -15 60z" glyph-name="period" horiz-adv-x="223"/>
<glyph unicode="/" d="M549 645c12 11 21 9 24 -6c6 -29 -7 -74 -61 -137c-79 -92 -363 -379 -463 -532c-5 -8 -14 -10 -19 2c-8 21 -5 52 17 93c60 112 387 469 502 580z" glyph-name="slash" horiz-adv-x="396"/>
<glyph unicode="0" d="M400 239c81 167 75 309 23 327c-46 16 -163 -58 -248 -204c-86 -148 -85 -309 -20 -334c61 -24 172 60 245 211zM441 588c117 -44 94 -234 28 -370c-71 -147 -186 -266 -314 -225c-77 25 -112 94 -113 171c-3 205 168 393 272 437c54 23 101 14 127 -13z" glyph-name="zero" horiz-adv-x="489"/>
<glyph unicode="1" d="M199 479c-51 -3 -45 12 -36 21c30 29 66 64 96 96c9 8 16 9 26 0c29 -26 31 -64 -7 -136c-58 -111 -169 -296 -248 -485c-4 -10 -11 -12 -18 -4c-16 18 -24 49 -5 111c20 63 117 261 192 397z" glyph-name="one" horiz-adv-x="218"/>
<glyph unicode="2" d="M84 52c50 15 101 23 136 24c49 1 78 -17 89 -48c3 -9 3 -15 -10 -15c-58 2 -189 -22 -247 -39c-26 -8 -39 -5 -50 7c-12 13 -20 28 -25 42c-8 20 -5 27 16 40c268 160 504 411 435 488c-46 51 -129 -57 -162 -107c-31 -47 -56 -69 -100 -67c-13 1 -14 4 -10 16 c17 48 78 155 157 195c47 24 106 22 145 -17c37 -37 53 -90 11 -175c-39 -78 -189 -240 -385 -344z" glyph-name="two" horiz-adv-x="423"/>
<glyph unicode="3" d="M472 415c-25 -33 -76 -75 -136 -100c17 -4 34 -10 46 -20c51 -43 37 -129 -37 -220c-85 -104 -205 -106 -269 -64c-69 45 -66 119 -51 155c17 42 52 65 82 65c10 0 13 -6 8 -14c-50 -80 -51 -151 -15 -174c50 -31 133 9 187 77c48 60 78 131 46 153 c-41 28 -105 -33 -157 30c-6 7 -4 15 9 19c213 63 306 201 263 246c-37 39 -98 -18 -145 -77c-32 -40 -67 -64 -108 -56c-13 2 -15 8 -10 18c30 60 97 130 146 154s113 18 147 -17c43 -44 49 -102 -6 -175z" glyph-name="three" horiz-adv-x="429"/>
<glyph unicode="4" d="M440 512c-116 -80 -258 -186 -346 -280c61 16 137 29 201 32c44 85 97 178 145 248zM371 252c21 -11 32 -27 37 -43c2 -9 -1 -14 -11 -12c-15 3 -33 4 -54 3c-42 -77 -81 -155 -106 -218c-4 -10 -12 -11 -17 -4c-15 22 -27 49 -6 109c10 27 26 64 46 106 c-51 -7 -105 -16 -146 -26c-15 -3 -25 -3 -34 8c-13 17 -27 42 -35 57c-6 11 -4 23 4 32c83 98 276 253 404 335c12 8 29 13 39 -3s17 -28 28 -47c12 -22 12 -27 -8 -58c-35 -54 -88 -144 -141 -239z" glyph-name="four" horiz-adv-x="426"/>
<glyph unicode="5" d="M552 556c-87 0 -155 -20 -218 -28c-6 -1 -11 -1 -16 -1c-33 -49 -66 -101 -99 -153c48 19 104 9 133 -13c50 -38 80 -114 -2 -250c-74 -123 -195 -145 -271 -105c-70 37 -72 112 -54 160c17 46 53 63 82 65c8 1 11 -6 6 -14c-48 -74 -50 -157 -11 -180 c50 -30 141 35 188 116c49 85 55 166 22 184c-35 19 -99 -10 -142 -68c-8 -10 -13 -9 -20 -1c-16 18 -30 53 -3 110c23 48 58 109 100 175c-9 9 -14 20 -17 30c-3 9 2 13 12 13c93 -3 188 26 240 27c42 1 68 -20 80 -54c3 -9 1 -13 -10 -13z" glyph-name="five" horiz-adv-x="415"/>
<glyph unicode="6" d="M484 528c-2 -54 -22 -118 -42 -157c-5 -11 -11 -12 -21 -5c-27 18 -33 62 -14 114c16 44 32 91 16 93c-39 5 -152 -64 -245 -222c44 27 97 32 143 3c62 -39 90 -124 21 -249c-68 -122 -164 -140 -238 -97c-88 51 -97 201 0 372c94 166 205 220 248 234c40 13 75 4 96 -10 c24 -16 37 -40 36 -76zM107 166c-19 -70 2 -116 22 -128c39 -24 112 23 155 111c42 85 48 159 8 177c-41 18 -149 -26 -185 -160z" glyph-name="six" horiz-adv-x="401"/>
<glyph unicode="7" d="M383 536c-53 -10 -99 -23 -139 -28c-66 -9 -96 20 -106 53c-3 9 1 12 11 12c79 0 168 23 223 29c21 2 32 4 46 -16c12 -18 22 -42 29 -62s2 -26 -19 -46c-118 -112 -308 -344 -399 -496c-6 -9 -12 -9 -18 0c-13 20 -13 57 17 114c59 113 241 339 355 440z" glyph-name="seven" horiz-adv-x="337"/>
<glyph unicode="8" d="M277 327c12 -24 26 -50 38 -76c36 -78 45 -154 -28 -228c-52 -53 -155 -70 -214 -41c-86 42 -79 131 -42 196c30 54 88 114 154 167c-16 36 -28 72 -24 101c8 68 61 121 122 145c89 35 182 8 175 -90c28 7 49 5 62 -3c9 -5 9 -13 -1 -18c-68 -37 -159 -92 -242 -153z M396 477c4 52 -14 99 -60 91c-49 -9 -98 -69 -98 -122c0 -17 4 -35 11 -54c49 34 101 64 147 85zM216 279c-60 -51 -110 -105 -134 -157c-21 -46 -22 -89 12 -106s87 -3 122 34c34 36 62 76 34 154c-9 24 -21 49 -34 75z" glyph-name="eight" horiz-adv-x="388"/>
<glyph unicode="9" d="M361 369c43 108 32 175 5 190c-37 20 -116 -43 -162 -131c-47 -90 -48 -168 -8 -187c46 -22 124 26 165 128zM308 220c-40 -23 -89 -30 -138 -6c-60 29 -101 115 -29 248c66 122 160 169 246 126c93 -47 87 -194 -11 -392c-75 -151 -155 -225 -254 -227 c-55 -1 -127 24 -131 109c-2 45 23 74 40 84c11 7 22 9 19 -6c-20 -89 0 -133 34 -145c58 -20 144 47 224 209z" glyph-name="nine" horiz-adv-x="414"/>
<glyph unicode=":" d="M200 343c11 24 36 42 56 34c19 -8 26 -32 15 -59c-11 -26 -36 -42 -56 -35s-27 34 -15 60zM43 43c13 27 38 42 57 35c20 -7 26 -33 15 -60c-10 -25 -37 -42 -57 -35c-18 6 -27 35 -15 60z" glyph-name="colon" horiz-adv-x="255"/>
<glyph unicode=";" d="M210 343c11 23 36 42 56 34c17 -7 26 -32 15 -59c-11 -26 -36 -42 -56 -35s-27 34 -15 60zM63 -16c-13 7 -21 25 -15 47c8 30 32 48 53 47c24 -1 37 -32 25 -68c-13 -39 -54 -68 -89 -54c-6 3 -7 10 0 12c9 3 18 8 26 16z" glyph-name="semicolon" horiz-adv-x="264"/>
<glyph unicode="&lt;" d="M158 267c22 -12 41 -24 57 -38c21 -19 28 -43 25 -63c-2 -11 -9 -14 -18 -7c-34 25 -84 50 -121 68c-18 9 -23 23 -28 53c-3 16 0 21 17 27c51 17 146 60 187 87c10 7 16 2 16 -9c0 -19 -12 -47 -37 -66c-23 -18 -62 -36 -98 -52z" glyph-name="less" horiz-adv-x="288"/>
<glyph unicode="=" d="M173 290c-46 1 -66 24 -72 54c-2 10 0 14 11 13c54 -3 128 10 174 7c49 -3 69 -25 74 -55c2 -9 0 -15 -13 -14c-71 7 -129 -6 -174 -5zM126 182c-48 2 -68 24 -74 54c-2 9 -1 15 11 14c54 -4 127 11 173 9c50 -2 69 -24 75 -54c2 -9 0 -15 -11 -14 c-73 6 -129 -11 -174 -9z" glyph-name="equal" horiz-adv-x="361"/>
<glyph unicode="&gt;" d="M192 276c-25 13 -48 28 -61 40c-22 20 -28 48 -26 65c2 13 9 15 18 8c41 -29 100 -62 147 -82c15 -6 17 -14 9 -30c-14 -30 -24 -43 -44 -51c-49 -19 -112 -42 -159 -67c-11 -6 -14 -3 -15 10c-1 17 15 45 38 62c25 18 57 32 93 45z" glyph-name="greater" horiz-adv-x="290"/>
<glyph unicode="?" d="M194 528c54 87 150 130 223 82c55 -36 71 -112 31 -195c-38 -79 -108 -125 -185 -167c-74 -41 -101 -93 -115 -145c-3 -11 -10 -11 -18 -3c-13 13 -27 46 -7 93c18 42 51 74 126 117c61 35 114 87 144 151c19 41 34 103 1 121c-52 28 -141 -62 -197 -177 c-7 -13 -12 -13 -19 -3c-15 23 -18 71 16 126zM130 52c10 -26 7 -50 -6 -64s-40 -11 -55 14c-15 26 -11 56 5 73s45 5 56 -23z" glyph-name="question" horiz-adv-x="385"/>
<glyph unicode="@" d="M326 165c-25 -29 -59 -55 -96 -55c-74 0 -91 102 -24 199c64 93 127 129 168 129c30 0 49 -23 51 -49c9 15 17 28 26 39c8 9 11 12 18 5c13 -13 19 -47 0 -88c-16 -35 -58 -95 -76 -137c-17 -39 -20 -72 -5 -76c21 -5 63 29 103 121c48 111 33 224 -32 252 c-68 29 -189 -17 -278 -142c-91 -127 -86 -279 -6 -315c55 -25 134 0 175 39c7 7 15 7 15 -4c0 -14 -6 -43 -38 -62c-54 -31 -123 -18 -154 -6c-82 32 -112 102 -113 175c-3 188 176 343 286 367c64 14 109 -2 137 -31c110 -51 103 -189 67 -279 c-38 -95 -102 -149 -160 -145c-39 3 -62 29 -64 63zM385 396c-25 1 -82 -48 -126 -119c-42 -68 -52 -136 -20 -137c31 -1 72 47 113 117c51 88 56 138 33 139z" glyph-name="at" horiz-adv-x="586"/>
<glyph unicode="A" d="M313 157c-71 -5 -152 -17 -199 -16c-30 -51 -56 -100 -76 -144c-4 -9 -13 -9 -18 -2c-12 16 -16 46 5 102c6 15 15 35 27 57c-22 12 -30 27 -33 34c-5 13 -3 17 12 15c14 -2 29 -4 45 -5c78 136 217 334 323 421c16 13 26 13 36 -1s13 -16 23 -41c10 -24 9 -46 0 -73 c-26 -79 -54 -181 -73 -291c30 -10 41 -30 45 -51c2 -9 -2 -12 -11 -9c-12 3 -26 5 -43 6c-7 -52 -13 -107 -15 -160c0 -10 -6 -13 -15 -9c-20 9 -36 34 -37 91c0 20 1 46 4 76zM152 201c61 5 122 16 169 17c15 104 43 230 74 308c-76 -85 -167 -206 -243 -325z" glyph-name="A" horiz-adv-x="442"/>
<glyph unicode="B" d="M213 511c-40 2 -61 24 -68 40c-5 11 -2 16 10 17c70 6 160 55 227 59c51 3 100 -13 118 -81c18 -67 -1 -123 -35 -167c-29 -37 -82 -87 -156 -119c19 -9 35 -23 48 -42c21 -31 20 -90 -23 -137c-44 -48 -119 -83 -175 -93c-38 -7 -62 -6 -84 5c-20 10 -38 27 -51 46 c-15 22 -25 38 -2 102c40 112 116 258 191 370zM167 288c198 46 321 181 296 249c-20 52 -119 6 -188 -16c2 -22 -5 -52 -30 -98c-20 -37 -49 -84 -78 -135zM244 238c-14 -3 -28 -5 -42 -7c-28 -3 -48 0 -62 7c-27 -52 -52 -105 -67 -155c-11 -35 0 -47 32 -43 c64 8 150 49 193 102c37 46 37 91 -54 96z" glyph-name="B" horiz-adv-x="454"/>
<glyph unicode="C" d="M388 206c5 11 16 11 21 -2c25 -67 -39 -142 -81 -172c-71 -51 -155 -50 -209 -21c-45 24 -84 86 -86 168c-4 212 174 393 286 436c54 21 103 25 135 -3c22 -19 45 -48 53 -73c9 -29 6 -57 -9 -88s-29 -70 -40 -99c-3 -8 -10 -14 -22 -6c-23 15 -39 46 -24 96 c16 53 52 110 29 134c-28 30 -180 -51 -270 -200c-88 -146 -78 -294 -29 -334c64 -52 170 15 246 164z" glyph-name="C" horiz-adv-x="462"/>
<glyph unicode="D" d="M210 501c-39 2 -59 27 -65 42c-4 11 -3 17 10 19c69 9 119 49 184 59c64 10 114 -23 151 -88c92 -160 -86 -452 -354 -541c-29 -10 -47 -7 -64 7c-12 10 -28 23 -42 43c-19 26 -24 41 -3 106c31 94 114 250 183 353zM263 511c5 -25 -1 -61 -26 -105 c-50 -89 -131 -222 -160 -314c-13 -42 -6 -56 24 -45c273 104 399 390 340 484c-35 56 -108 3 -178 -20z" glyph-name="D" horiz-adv-x="483"/>
<glyph unicode="E" d="M218 525c-25 10 -36 30 -42 51c-2 9 1 13 11 12c83 -5 193 24 249 25c42 1 64 -16 76 -49c3 -8 1 -15 -11 -13c-72 1 -142 -17 -203 -27c-40 -60 -89 -147 -138 -236c27 5 53 7 71 8c50 2 72 -14 82 -45c3 -9 3 -15 -10 -15c-54 0 -129 -14 -185 -28 c-29 -56 -56 -111 -77 -158c48 15 114 29 155 31c49 2 74 -14 85 -44c3 -9 2 -15 -10 -15c-56 1 -165 -25 -221 -40c-19 -5 -30 -5 -42 10c-8 9 -14 24 -21 37c-9 17 -9 30 1 57c46 123 146 309 230 439z" glyph-name="E" horiz-adv-x="368"/>
<glyph unicode="F" d="M214 526c-23 11 -34 31 -39 51c-2 8 1 12 11 12c83 -4 189 25 245 25c43 0 69 -20 82 -51c3 -8 1 -15 -12 -15c-75 1 -145 -19 -206 -28c-35 -57 -82 -138 -131 -228c26 5 49 7 67 8c50 3 75 -18 84 -48c3 -9 1 -15 -11 -15c-50 1 -127 -14 -184 -28 c-38 -74 -75 -149 -104 -216c-4 -10 -10 -10 -17 -4c-19 16 -29 48 -8 110c30 88 135 284 223 427z" glyph-name="F" horiz-adv-x="363"/>
<glyph unicode="G" d="M412 192c26 -94 -96 -184 -146 -198c-49 -14 -112 -22 -167 20c-36 27 -66 72 -67 154c-2 215 200 405 313 442c56 18 101 19 135 -6c28 -20 44 -45 52 -71c9 -28 7 -55 -7 -87c-12 -27 -28 -67 -39 -96c-3 -8 -10 -15 -21 -5c-23 16 -39 45 -26 95s50 106 28 128 c-32 33 -195 -53 -290 -198c-93 -142 -90 -294 -50 -331c55 -51 172 24 233 145c-32 -6 -64 -12 -88 -14c-50 -5 -81 16 -96 48c-5 10 -2 16 10 16c78 1 154 26 215 27c50 1 78 -21 91 -51c5 -11 3 -18 -10 -16c-19 2 -44 1 -70 -2z" glyph-name="G" horiz-adv-x="500"/>
<glyph unicode="H" d="M558 465c-30 -54 -69 -121 -112 -199c23 -10 35 -27 39 -44c2 -8 -1 -13 -11 -11c-16 3 -35 4 -56 3c-34 -65 -69 -137 -102 -212c-4 -10 -11 -11 -17 -2c-14 20 -23 49 -3 110c7 20 22 55 42 96c-73 -9 -150 -22 -197 -22c-31 -62 -62 -128 -91 -195 c-4 -10 -12 -13 -18 -4c-15 21 -22 49 -5 110c6 21 23 57 43 102c-22 10 -30 24 -34 32c-6 12 -4 16 13 15c15 -1 29 -3 42 -3c64 133 157 306 198 364c9 12 18 10 24 -1c15 -28 12 -77 -25 -148c-29 -56 -70 -127 -114 -210c69 9 131 26 197 30c65 129 153 288 193 341 c10 13 19 12 25 -1c14 -29 11 -76 -31 -151z" glyph-name="H" horiz-adv-x="488"/>
<glyph unicode="I" d="M269 616c9 13 18 11 24 -1c14 -29 13 -77 -30 -153c-62 -109 -172 -302 -245 -466c-4 -10 -8 -11 -16 -2c-14 15 -26 50 -4 111c49 136 190 394 271 511z" glyph-name="I" horiz-adv-x="182"/>
<glyph unicode="J" d="M66 229c14 3 21 -3 15 -20c-49 -142 -10 -187 21 -194c90 -21 163 131 230 270c54 111 140 282 172 331c8 12 17 11 24 -1c13 -22 18 -66 -7 -125c-33 -78 -130 -277 -185 -368c-77 -128 -160 -152 -241 -138c-75 13 -118 82 -95 168c11 43 40 71 66 77z" glyph-name="J" horiz-adv-x="437"/>
<glyph unicode="K" d="M125 210c-35 -67 -70 -142 -103 -219c-4 -9 -10 -11 -16 -3c-15 21 -23 50 -5 110c25 85 197 424 258 509c9 12 16 11 24 -2c13 -23 18 -71 -23 -146c-26 -47 -59 -106 -95 -173c131 98 271 223 366 326c7 8 15 7 19 -2c6 -22 5 -56 -31 -105 c-45 -61 -181 -183 -316 -278c32 -51 59 -97 71 -125c24 -57 15 -92 0 -111c-6 -7 -13 -7 -18 2c-38 74 -82 146 -131 217z" glyph-name="K" horiz-adv-x="397"/>
<glyph unicode="L" d="M55 56c57 15 114 25 152 28c50 4 77 -15 88 -45c3 -8 3 -15 -10 -15c-50 1 -160 -24 -218 -39c-24 -6 -34 -6 -45 10c-9 13 -21 31 -26 43c-7 17 -7 32 3 58c48 124 213 427 274 512c9 12 18 11 24 -2c12 -25 16 -67 -25 -141c-52 -95 -143 -249 -217 -409z" glyph-name="L" horiz-adv-x="353"/>
<glyph unicode="M" d="M269 435c-89 -134 -201 -313 -260 -447c-4 -10 -10 -10 -17 -2c-14 15 -25 49 -2 109c37 95 199 362 307 509c9 13 19 17 32 6c39 -34 50 -69 24 -148c-32 -96 -68 -213 -106 -353c109 178 255 327 365 498c9 14 17 15 29 3c40 -41 30 -96 3 -146 c-70 -130 -170 -332 -220 -476c-4 -10 -8 -10 -16 -3c-16 13 -28 43 -11 109c15 59 79 199 144 324c-114 -138 -230 -291 -302 -425c-5 -10 -10 -13 -18 -7c-33 24 -48 59 -38 121c9 57 42 195 86 328z" glyph-name="M" horiz-adv-x="573"/>
<glyph unicode="N" d="M239 429c-75 -129 -177 -315 -217 -435c-3 -10 -10 -12 -17 -4c-17 19 -25 58 -5 112c49 135 180 372 259 505c9 15 16 16 26 9c37 -27 45 -55 34 -124c-16 -95 -26 -220 -33 -360c68 154 183 363 258 479c8 12 17 9 23 -2c15 -30 14 -70 -31 -145 c-59 -98 -186 -338 -245 -471c-4 -10 -9 -12 -20 -6c-30 16 -44 40 -49 104c-5 61 -1 196 17 338z" glyph-name="N" horiz-adv-x="459"/>
<glyph unicode="O" d="M476 597c124 -54 96 -251 21 -389c-81 -149 -207 -266 -343 -216c-82 30 -114 105 -114 187c0 213 187 398 300 438c58 20 108 9 136 -20zM424 236c91 167 87 317 32 337c-49 18 -176 -50 -270 -196c-96 -149 -98 -318 -30 -347c66 -28 184 52 268 206z" glyph-name="O" horiz-adv-x="537"/>
<glyph unicode="P" d="M206 509c-34 4 -53 21 -63 42c-5 11 -3 17 10 18c83 9 158 51 226 54c51 2 95 -14 119 -83c21 -60 4 -118 -30 -171c-50 -78 -158 -153 -289 -178c-23 -4 -45 0 -62 10c-28 -55 -58 -121 -93 -204c-4 -10 -9 -10 -16 -3c-14 15 -24 45 -9 99c26 91 120 279 207 416z M146 257c224 42 336 204 309 274c-21 55 -121 3 -187 -16c0 -27 -10 -62 -38 -110c-26 -46 -54 -92 -84 -148z" glyph-name="P" horiz-adv-x="425"/>
<glyph unicode="Q" d="M226 -16c76 -38 146 -87 215 -73c17 3 16 -5 10 -12c-33 -43 -100 -45 -149 -28c-107 36 -171 129 -301 99c-10 -2 -14 4 -9 11c18 24 56 40 108 38h7c-49 37 -70 97 -70 162c1 213 186 395 296 433c60 21 109 10 138 -20c121 -54 92 -249 19 -387 c-64 -120 -159 -218 -264 -223zM417 235c90 166 88 315 33 337c-49 20 -174 -49 -268 -195c-95 -147 -97 -315 -30 -345c66 -30 183 51 265 203z" glyph-name="Q" horiz-adv-x="543"/>
<glyph unicode="R" d="M129 195c-27 -53 -56 -116 -89 -198c-4 -10 -9 -11 -16 -4c-14 15 -24 45 -9 99c25 91 119 281 207 419c-34 3 -52 18 -64 40c-5 10 -2 15 11 17c84 10 159 51 226 54c51 2 95 -13 119 -81c21 -60 7 -121 -31 -172c-54 -72 -162 -135 -273 -161c38 -47 74 -95 95 -137 c14 -27 18 -61 5 -81c-5 -8 -10 -11 -16 -2c-66 90 -118 155 -165 207zM283 517c0 -28 -11 -63 -38 -113c-27 -48 -52 -90 -79 -139c221 49 334 195 305 266c-22 56 -122 4 -188 -14z" glyph-name="R" horiz-adv-x="458"/>
<glyph unicode="S" d="M-33 134c33 10 74 1 101 -21c40 -32 108 -84 173 -84c28 0 49 7 62 18c17 19 12 40 -2 52c-53 45 -211 107 -211 210c0 137 155 254 244 292c48 20 96 28 129 -2c25 -23 43 -56 50 -84c10 -40 -14 -79 -29 -100c-26 -35 -55 -86 -69 -111c-5 -9 -11 -14 -22 -3 c-19 19 -31 50 -10 97c21 48 96 131 72 156c-34 35 -280 -118 -285 -243c-3 -65 125 -118 181 -158c38 -27 33 -73 -11 -124c-60 -69 -234 -88 -375 82c-11 13 -7 20 2 23z" glyph-name="S" horiz-adv-x="444"/>
<glyph unicode="T" d="M276 525c-23 -4 -43 -6 -61 -7c-60 -2 -103 20 -114 57c-3 9 1 14 11 13c89 -7 255 30 312 28c42 -1 80 -12 95 -51c3 -8 1 -16 -12 -15c-49 5 -112 -5 -170 -15c1 -24 -6 -57 -33 -106c-60 -109 -145 -249 -223 -432c-4 -10 -9 -10 -16 -3c-14 13 -26 43 -13 91 c23 82 131 299 224 440z" glyph-name="T" horiz-adv-x="403"/>
<glyph unicode="U" d="M76 -12c-49 20 -95 70 -68 180c28 113 141 301 232 439c8 12 17 10 24 -1c16 -25 20 -64 -19 -139c-49 -95 -150 -244 -175 -350c-12 -51 -9 -89 20 -100c61 -24 141 64 211 199c55 107 164 305 219 392c8 13 17 10 24 -1c12 -21 13 -66 -13 -124 c-35 -77 -159 -307 -226 -400c-71 -98 -160 -123 -229 -95z" glyph-name="U" horiz-adv-x="452"/>
<glyph unicode="V" d="M100 78c96 161 307 438 396 531c10 11 20 9 23 -5c7 -35 -6 -77 -55 -142c-71 -94 -230 -290 -347 -472c-7 -11 -14 -15 -28 -5c-37 28 -53 64 -45 134c17 155 67 388 103 484c6 15 13 17 22 6c23 -27 27 -64 10 -141c-21 -96 -54 -237 -79 -390z" glyph-name="V" horiz-adv-x="403"/>
<glyph unicode="W" d="M395 406c-90 -118 -206 -281 -291 -416c-7 -11 -17 -16 -30 -5c-35 31 -43 69 -27 138c36 152 117 382 166 476c8 15 18 16 25 4c17 -29 19 -65 -10 -142c-33 -90 -82 -220 -125 -362c93 152 247 362 350 487c7 8 17 11 25 -1c20 -29 25 -54 0 -130 c-32 -94 -74 -216 -112 -361c101 165 295 422 383 516c12 12 22 10 24 -4c6 -35 -7 -78 -58 -145c-73 -96 -221 -280 -342 -466c-8 -12 -17 -17 -30 -5c-34 31 -46 67 -31 138c16 74 50 184 83 278z" glyph-name="W" horiz-adv-x="630"/>
<glyph unicode="X" d="M280 387c87 89 174 176 228 226c12 11 20 6 23 -7c6 -28 -4 -79 -66 -138c-46 -44 -108 -103 -173 -168c16 -114 38 -237 73 -297c7 -11 2 -19 -9 -18c-39 3 -79 29 -103 128c-9 39 -17 80 -24 122c-80 -82 -159 -170 -213 -245c-6 -8 -13 -6 -16 2c-9 22 -9 57 22 105 c27 43 105 130 193 223c-14 96 -28 195 -50 282c-2 10 3 16 13 14c25 -4 58 -23 77 -89c8 -29 16 -80 25 -140z" glyph-name="X" horiz-adv-x="399"/>
<glyph unicode="Y" d="M174 197c-42 -75 -74 -147 -95 -207c-4 -10 -11 -10 -19 -3c-15 13 -25 48 -10 100c11 36 34 89 62 145c2 122 10 275 29 370c3 16 12 17 21 11c24 -15 39 -44 35 -116c-3 -56 -11 -121 -15 -196c93 103 234 241 313 311c11 9 18 6 21 -5c8 -29 -2 -73 -61 -131 c-72 -70 -158 -146 -281 -279z" glyph-name="Y" horiz-adv-x="379"/>
<glyph unicode="Z" d="M54 50c50 13 127 30 177 34c48 4 76 -14 88 -43c4 -9 3 -15 -10 -15c-63 0 -166 -22 -236 -41c-26 -7 -39 -9 -50 9c-7 11 -20 30 -24 41c-8 20 -11 30 5 54c83 122 329 360 477 461c-45 -7 -115 -24 -157 -29c-66 -7 -95 18 -106 51c-3 9 0 15 11 15 c74 -2 177 23 232 27c21 2 34 0 47 -17c14 -18 25 -42 33 -65c7 -20 1 -29 -23 -46c-148 -106 -344 -294 -464 -436z" glyph-name="Z" horiz-adv-x="441"/>
<glyph unicode="[" d="M364 616c-111 -162 -253 -431 -331 -625c12 3 25 6 35 8c40 8 57 -7 71 -32c5 -9 4 -17 -9 -18c-24 -2 -66 -13 -91 -23c-16 -6 -24 -3 -35 9c-9 10 -16 19 -24 32c-10 16 -10 26 -1 52c49 140 195 453 327 630c15 20 24 24 38 29c19 6 50 10 70 11s32 -2 41 -10 c8 -7 16 -16 24 -27c5 -7 1 -16 -11 -17c-30 -2 -72 -9 -104 -19z" glyph-name="bracketleft" horiz-adv-x="316"/>
<glyph unicode="\" d="M157 633c-1 16 9 19 20 13c29 -15 53 -53 65 -138c17 -122 57 -393 92 -534c2 -10 -2 -15 -12 -13c-23 4 -47 24 -65 78c-32 99 -87 431 -100 594z" glyph-name="backslash" horiz-adv-x="355"/>
<glyph unicode="]" d="M390 619c-17 -3 -34 -7 -50 -9c-23 -3 -42 18 -55 36c-9 13 -2 20 10 22c40 6 84 17 118 17c17 0 22 -4 29 -14s12 -24 18 -36c7 -14 7 -22 -1 -34c-117 -178 -252 -428 -349 -645c-8 -18 -13 -24 -32 -27c-20 -3 -39 -7 -58 -10c-17 -3 -30 -5 -47 6 c-10 7 -21 16 -29 24c-7 7 -6 17 6 21c28 9 70 17 108 22c85 192 225 469 332 627z" glyph-name="bracketright" horiz-adv-x="319"/>
<glyph unicode="^" d="M191 500c-30 -38 -66 -79 -89 -116c-6 -10 -10 -12 -18 -4c-10 9 -24 38 0 77c23 37 74 106 113 150c7 9 13 8 22 2c15 -11 22 -25 25 -49c4 -35 16 -113 29 -161c3 -12 1 -14 -9 -15c-15 -1 -45 5 -56 44c-5 18 -12 44 -17 72z" glyph-name="asciicircum" horiz-adv-x="267"/>
<glyph unicode="_" d="M433 -72c10 0 15 -6 12 -14c-8 -19 -35 -39 -80 -39h-432c-11 0 -14 4 -11 14c6 19 35 39 79 39h432z" glyph-name="underscore" horiz-adv-x="366"/>
<glyph unicode="`" d="M-44 505c15 8 45 14 71 0c27 -14 62 -40 88 -61c7 -6 7 -11 -1 -14c-13 -5 -33 -7 -52 1c-25 10 -72 39 -107 59c-10 6 -5 12 1 15z" glyph-name="grave" horiz-adv-x="77"/>
<glyph unicode="a" d="M324 325c13 24 25 45 36 61c9 13 17 15 24 6c15 -18 23 -61 -1 -111c-22 -45 -72 -120 -96 -173c-25 -56 -26 -99 8 -97c41 2 96 70 131 139c5 9 12 10 16 1s4 -34 -9 -62c-26 -55 -89 -110 -144 -107c-54 3 -82 35 -82 82c-32 -41 -77 -78 -125 -78 c-93 0 -112 127 -29 248c81 118 160 163 210 163c43 0 63 -33 61 -72zM237 170c63 110 72 172 43 175c-32 3 -105 -62 -160 -151c-53 -86 -66 -174 -27 -175c41 -1 93 63 144 151z" glyph-name="a" horiz-adv-x="407"/>
<glyph unicode="b" d="M312 151c-47 -105 -109 -162 -167 -162c-53 0 -87 27 -105 71c-9 -21 -20 -45 -29 -66c-4 -10 -10 -11 -16 -3c-15 20 -25 49 -5 110c27 83 223 453 292 549c9 13 17 13 25 -1c15 -28 15 -73 -26 -148c-15 -28 -58 -97 -89 -152c29 26 60 42 86 42c85 0 89 -118 34 -240z M263 350c-21 2 -43 -9 -73 -40c-45 -47 -93 -130 -130 -207c2 -29 15 -61 42 -67c35 -8 81 22 139 138c57 113 45 174 22 176z" glyph-name="b" horiz-adv-x="352"/>
<glyph unicode="c" d="M247 386c27 -16 43 -32 55 -55c21 -42 -19 -95 -39 -149c-4 -12 -8 -15 -21 -8c-24 12 -38 42 -24 87c11 36 41 79 27 90c-17 14 -92 -50 -137 -141c-55 -113 -34 -196 25 -197c84 -1 156 79 197 142c5 8 14 9 18 -1c3 -8 -1 -33 -18 -60c-38 -59 -117 -108 -193 -109 c-127 -2 -170 122 -105 251c64 126 165 180 215 150z" glyph-name="c" horiz-adv-x="311"/>
<glyph unicode="d" d="M277 108c-27 -58 -28 -99 6 -97c41 2 95 69 130 138c5 9 12 9 16 1c4 -9 5 -35 -8 -62c-27 -55 -89 -108 -144 -105c-54 3 -81 33 -81 80c-32 -40 -77 -77 -124 -77c-93 0 -111 127 -29 247c79 116 159 161 209 161c41 0 61 -31 60 -68c54 103 130 239 166 290 c10 14 19 13 24 0c14 -33 11 -76 -31 -151c-48 -86 -144 -251 -194 -357zM268 343c-31 1 -104 -62 -159 -150c-54 -86 -65 -173 -26 -174c40 -1 94 58 141 149c58 111 73 174 44 175z" glyph-name="d" horiz-adv-x="401"/>
<glyph unicode="e" d="M92 171c-32 -92 -8 -155 45 -158c83 -4 156 76 199 142c5 8 13 8 17 -1c4 -8 1 -36 -17 -62c-42 -61 -119 -107 -196 -108c-127 -2 -171 123 -106 252s167 181 217 152c25 -15 43 -30 59 -52c18 -24 10 -85 -32 -136c-49 -60 -116 -86 -186 -29zM101 193 c49 -31 90 12 119 50c32 42 54 94 40 105c-21 17 -104 -43 -151 -138c-3 -6 -6 -12 -8 -17z" glyph-name="e" horiz-adv-x="320"/>
<glyph unicode="f" d="M106 184c38 -12 53 -50 52 -116c0 -11 -1 -22 -2 -34c38 25 78 75 104 127c6 12 16 13 21 -1c5 -15 -1 -37 -10 -60c-10 -24 -60 -83 -120 -104c-16 -101 -60 -212 -108 -272c-34 -42 -59 -46 -89 -20c-25 21 -55 60 -44 145c28 223 258 606 369 772c8 12 21 11 25 -1 c12 -34 9 -77 -34 -150c-41 -68 -110 -181 -164 -286zM101 18c5 24 8 49 9 72c1 37 -9 68 -16 65c-10 -4 -19 -57 -20 -80c-1 -32 8 -53 27 -57zM34 29c-56 -133 -92 -257 -69 -286c22 -29 97 109 130 246c-29 3 -49 16 -61 40z" glyph-name="f" horiz-adv-x="245"/>
<glyph unicode="g" d="M415 90c-39 -61 -111 -101 -194 -131c-55 -134 -126 -293 -207 -325c-20 -8 -40 -5 -58 21c-21 30 -39 65 -20 124c29 90 115 151 214 189c10 22 19 46 29 69c-29 -29 -64 -50 -101 -50c-92 0 -110 125 -29 245c78 116 159 161 210 161c40 0 60 -31 59 -66 c12 20 23 38 33 55c8 14 18 15 25 6c15 -18 23 -61 -2 -110c-30 -60 -93 -181 -135 -278c84 42 139 97 179 150c6 8 15 8 17 -2c2 -9 -3 -31 -20 -58zM231 168c63 110 72 172 43 174c-31 2 -104 -62 -159 -149c-54 -86 -65 -174 -25 -175c39 -1 90 62 141 150zM133 -73 c-130 -76 -174 -213 -157 -237c13 -19 92 85 157 237z" glyph-name="g" horiz-adv-x="401"/>
<glyph unicode="h" d="M399 91c-28 -57 -89 -107 -148 -107c-84 0 -105 61 -75 148c33 97 120 201 104 210c-14 8 -123 -60 -181 -155c-36 -59 -73 -129 -97 -190c-4 -9 -11 -11 -17 -4c-16 18 -25 46 -4 106c35 100 243 452 324 553c9 12 19 11 24 -1c13 -29 10 -79 -28 -142 c-24 -40 -77 -121 -120 -188c41 40 93 73 120 70c34 -4 65 -54 39 -105c-22 -44 -70 -117 -93 -169c-25 -58 -20 -105 17 -103c41 2 96 74 127 138c4 9 14 9 18 1c5 -11 5 -32 -10 -62z" glyph-name="h" horiz-adv-x="377"/>
<glyph unicode="i" d="M232 459c13 -26 6 -53 -7 -67s-41 -11 -56 15c-16 27 -11 57 5 74s45 5 58 -22zM69 -15c-76 0 -95 64 -67 146c25 73 91 191 128 243c9 12 16 15 24 6c15 -16 23 -59 -1 -109c-21 -44 -63 -112 -84 -162c-24 -58 -22 -97 10 -95c45 2 100 68 130 137c5 9 12 8 16 0 c8 -16 5 -37 -7 -62c-30 -62 -93 -104 -149 -104z" glyph-name="i" horiz-adv-x="201"/>
<glyph unicode="j" d="M230 461c12 -27 6 -51 -6 -65c-13 -15 -41 -12 -56 15s-10 55 5 72c16 18 45 6 57 -22zM9 -19c92 48 147 110 189 172c5 8 13 9 16 -1s0 -33 -15 -59c-39 -69 -118 -116 -208 -154c-57 -133 -131 -295 -210 -325c-18 -7 -38 -9 -57 19c-20 30 -43 66 -23 124 c31 91 118 152 217 190c68 163 158 349 211 430c9 14 16 15 24 6c15 -17 20 -60 -3 -110c-25 -56 -97 -193 -141 -292zM-99 -95c-130 -74 -175 -213 -157 -237c14 -18 94 90 157 237z" glyph-name="j" horiz-adv-x="178"/>
<glyph unicode="k" d="M182 347c32 31 63 48 89 57c38 13 62 -2 82 -44c19 -39 16 -81 -21 -117c-34 -33 -76 -62 -139 -81c4 -82 32 -139 70 -143c41 -4 96 73 126 135c6 12 15 13 20 1s3 -36 -12 -61c-24 -42 -70 -106 -149 -105c-70 1 -129 58 -127 193c0 18 2 21 21 27 c124 41 190 128 175 154c-11 18 -55 7 -108 -34c-75 -57 -120 -145 -197 -329c-3 -8 -11 -10 -18 -2c-15 17 -20 49 -1 110c28 91 194 420 283 541c9 12 19 13 25 1c15 -30 13 -70 -29 -143c-24 -41 -63 -111 -90 -160z" glyph-name="k" horiz-adv-x="367"/>
<glyph unicode="l" d="M98 200c-40 -98 -51 -181 -6 -185c48 -4 118 68 157 145c7 13 18 14 22 0c5 -16 1 -38 -10 -62c-14 -30 -87 -113 -167 -111c-69 2 -106 50 -83 158c37 174 151 355 253 461c15 16 29 18 43 5c29 -26 35 -63 23 -110c-31 -123 -143 -243 -232 -301zM116 243 c137 111 193 271 180 279s-87 -103 -156 -231c-9 -16 -17 -32 -24 -48z" glyph-name="l" horiz-adv-x="230"/>
<glyph unicode="m" d="M158 284c44 51 119 110 155 109c34 -1 52 -54 39 -98c48 47 115 94 148 93c36 -1 44 -60 24 -110c-18 -45 -67 -111 -92 -161c-28 -57 -14 -103 22 -102c41 1 86 67 125 137c5 9 13 9 18 2s2 -40 -9 -63c-28 -57 -92 -107 -150 -107c-87 0 -119 69 -82 151 c37 83 126 195 111 200c-8 3 -42 -8 -107 -73c-83 -83 -132 -179 -174 -273c-6 -12 -14 -15 -23 -5c-17 15 -31 54 -2 126c33 83 141 221 121 228c-12 5 -61 -22 -125 -92c-59 -64 -107 -157 -147 -251c-4 -9 -10 -13 -19 -5c-22 19 -27 52 -10 103c21 63 94 204 157 298 c7 11 15 10 21 0c17 -28 14 -67 -1 -107z" glyph-name="m" horiz-adv-x="565"/>
<glyph unicode="n" d="M160 294c45 48 113 103 146 98s64 -54 39 -106c-21 -44 -70 -118 -93 -170c-26 -58 -20 -105 16 -103c41 2 90 68 128 138c5 9 12 9 17 1c7 -11 5 -34 -9 -63c-27 -56 -90 -107 -148 -107c-85 0 -105 62 -76 149c33 98 121 204 103 212c-10 4 -68 -24 -132 -94 c-59 -64 -103 -160 -146 -254c-4 -9 -10 -13 -19 -4c-20 20 -26 53 -10 103c20 63 97 202 160 295c7 11 15 10 21 0c15 -25 14 -59 3 -95z" glyph-name="n" horiz-adv-x="384"/>
<glyph unicode="o" d="M342 215c-7 -8 -17 -12 -27 -13c-21 -85 -84 -186 -158 -211c-36 -12 -86 -8 -126 44c-44 58 -29 145 16 225c38 68 99 126 159 130c31 2 48 -7 68 -34c23 -31 53 -38 47 -110c-1 -8 -1 -15 -2 -23c6 0 12 2 20 2c7 0 7 -5 3 -10zM256 242c8 31 11 56 8 74 c-5 32 -25 26 -30 -3c-5 -27 6 -56 22 -71zM249 215c-7 3 -13 7 -19 12c-21 16 -45 51 -46 88c-27 -23 -56 -56 -77 -94c-42 -76 -57 -168 -31 -190c28 -23 89 12 138 104c15 28 27 56 35 80z" glyph-name="o" horiz-adv-x="332"/>
<glyph unicode="p" d="M209 4c98 6 158 78 190 146c6 14 17 10 19 0c2 -9 4 -35 -13 -66c-38 -69 -106 -102 -178 -107c-64 -4 -106 5 -141 37c-21 19 -31 42 -34 67c-47 -86 -98 -188 -146 -299c-4 -9 -11 -11 -17 -2c-15 21 -20 49 -1 110c30 97 198 414 261 498c10 13 19 11 24 -1 c5 -13 7 -28 6 -45c44 38 103 66 146 21c48 -51 26 -140 -11 -222c-30 -66 -67 -114 -105 -137zM108 181c-25 -63 -30 -123 -2 -146c32 -26 97 47 144 143c39 80 50 163 25 175c-24 12 -86 -38 -133 -115c-11 -18 -22 -36 -34 -57z" glyph-name="p" horiz-adv-x="389"/>
<glyph unicode="q" d="M154 10c-22 -15 -47 -25 -72 -25c-93 0 -112 126 -29 248c79 115 160 161 210 161c44 0 64 -35 61 -72c17 30 34 55 43 64c11 11 17 8 25 -3c12 -25 11 -69 -22 -128c-61 -109 -180 -315 -259 -504c-5 -11 -11 -12 -18 -4c-14 16 -26 35 -9 92c12 42 38 106 70 171z M237 168c63 110 72 173 43 175c-32 2 -105 -62 -160 -150c-54 -86 -66 -177 -27 -177c41 0 93 63 144 152z" glyph-name="q" horiz-adv-x="373"/>
<glyph unicode="r" d="M165 316c32 4 66 20 103 46c12 8 20 10 27 2c19 -21 43 -65 14 -98c-45 -51 -94 -114 -110 -166s-4 -91 25 -92c39 -2 87 60 119 132c4 8 10 9 14 1c5 -11 6 -35 -5 -62c-23 -58 -81 -100 -134 -98c-72 3 -101 69 -76 144c22 66 80 137 120 183c-44 -29 -87 -38 -117 -38 c-38 -70 -134 -212 -153 -303c-2 -9 -8 -14 -17 -5c-29 30 -29 76 -2 127c23 44 90 138 127 191c-57 37 30 155 67 156c31 1 23 -57 -2 -120z" glyph-name="r" horiz-adv-x="330"/>
<glyph unicode="s" d="M39 164c41 56 86 121 115 172c5 39 15 58 36 77c22 20 45 24 54 15c10 -10 5 -21 -8 -44c-4 -6 -7 -12 -11 -19c-7 -92 12 -170 9 -239c-2 -39 -9 -81 -45 -105c67 25 109 85 134 139c5 11 15 8 19 0c4 -9 3 -35 -14 -66c-38 -69 -106 -107 -177 -110 c-58 -2 -114 13 -148 75c-24 45 -21 111 13 139c12 10 20 6 21 -10c1 -8 1 -16 2 -24zM152 272c-29 -53 -66 -108 -104 -162c15 -58 44 -99 77 -89c46 14 31 171 27 251z" glyph-name="s" horiz-adv-x="302"/>
<glyph unicode="t" d="M125 389c-34 0 -57 15 -65 26c-10 14 -4 21 11 20c28 -1 56 1 83 4c31 55 59 102 76 124c9 13 19 12 24 0c11 -28 11 -61 -13 -113c39 1 54 -17 62 -30c7 -12 3 -19 -12 -19c-22 3 -53 0 -78 -4c-39 -67 -96 -164 -134 -248c-33 -73 -22 -135 20 -137 c45 -2 102 69 139 144c6 12 17 14 21 0c5 -16 0 -34 -10 -57c-13 -29 -79 -117 -159 -114c-66 2 -119 76 -71 191c21 50 63 134 106 213z" glyph-name="t" horiz-adv-x="214"/>
<glyph unicode="u" d="M196 81c-35 -47 -88 -98 -144 -94c-71 5 -73 79 -51 145s73 164 138 255c8 11 18 10 26 1c22 -33 17 -78 -19 -135c-37 -59 -57 -99 -78 -147c-21 -49 -18 -85 5 -87c39 -3 94 67 148 154c63 102 92 171 124 214c10 14 17 16 25 6c15 -18 23 -62 -1 -112 c-22 -45 -72 -120 -95 -171c-26 -57 -22 -99 14 -97c42 2 93 68 132 138c5 9 14 10 18 1c4 -8 5 -35 -9 -63c-29 -56 -91 -107 -150 -107c-65 0 -91 41 -83 99z" glyph-name="u"/>
<glyph unicode="v" d="M68 29c71 117 204 293 272 363c11 11 17 9 19 -4c3 -21 -9 -47 -41 -87c-50 -63 -141 -159 -237 -311c-5 -8 -10 -15 -20 -10c-39 19 -53 39 -50 92c4 70 31 213 65 317c4 11 12 15 20 8c33 -28 38 -65 24 -126c-18 -77 -38 -133 -52 -242z" glyph-name="v" horiz-adv-x="300"/>
<glyph unicode="w" d="M403 174c17 153 86 219 107 223c13 2 19 -13 15 -34c-8 -40 -25 -85 -87 -190c-68 -114 -139 -191 -206 -189c-43 1 -67 40 -64 83c-32 -41 -74 -81 -122 -78c-62 4 -73 69 -47 143c23 66 72 164 139 255c8 11 18 10 24 1c24 -33 19 -76 -18 -135 c-36 -57 -62 -104 -82 -152c-20 -49 -19 -84 4 -83c40 1 77 68 131 155c64 102 93 171 126 214c10 13 16 15 25 6c14 -18 22 -62 -2 -112c-22 -45 -72 -121 -97 -174c-27 -57 -24 -91 5 -92c35 -1 95 65 149 159z" glyph-name="w" horiz-adv-x="490"/>
<glyph unicode="x" d="M174 180c-11 75 -27 169 -37 170c-12 1 -52 -36 -82 -103c-4 -9 -13 -10 -16 -2c-5 14 -1 36 6 54c19 48 77 99 127 90c31 -6 44 -26 53 -70c5 -24 10 -54 14 -86c54 44 108 93 150 147c10 13 20 14 20 -2c0 -33 -20 -62 -54 -101c-22 -25 -62 -57 -109 -95 c7 -42 12 -83 17 -109c8 -40 20 -54 32 -55c37 -2 80 71 109 132c4 9 12 10 15 2c5 -12 5 -36 -9 -63c-30 -59 -82 -105 -132 -105c-53 0 -81 31 -93 114c-1 6 -2 17 -4 29c-49 -41 -98 -87 -138 -137c-8 -9 -25 -14 -23 3c3 34 23 64 60 104c24 26 57 53 94 83z" glyph-name="x" horiz-adv-x="391"/>
<glyph unicode="y" d="M386 97c-39 -62 -109 -100 -192 -134c-56 -134 -127 -295 -210 -327c-19 -7 -38 -7 -57 21c-20 30 -40 65 -20 124c30 90 115 150 214 189c10 23 20 48 31 72c-31 -32 -69 -58 -109 -55c-72 6 -74 79 -51 145c22 64 71 163 136 253c8 11 18 10 25 0 c24 -32 18 -74 -19 -133c-36 -58 -58 -99 -77 -146c-20 -49 -18 -84 5 -86c39 -3 89 61 140 148c43 74 86 164 121 215c9 13 16 15 25 7c14 -18 22 -61 -4 -112c-30 -58 -91 -178 -133 -275c78 42 137 99 177 154c5 7 14 8 16 -2c2 -9 -1 -32 -18 -58zM104 -72 c-130 -75 -175 -212 -157 -237c13 -19 95 90 157 237z" glyph-name="y" horiz-adv-x="375"/>
<glyph unicode="z" d="M205 3c4 21 3 39 -6 51c-14 18 -75 12 -125 -23c-7 -5 -14 -7 -17 1c-15 43 8 74 43 94c150 86 214 184 187 218s-163 -37 -240 -133c-6 -8 -13 -5 -15 3c-8 26 4 72 41 108c40 39 97 67 145 73c45 6 74 0 99 -36c24 -34 27 -80 -4 -133c-26 -44 -83 -93 -148 -134 c24 1 47 -5 63 -20c14 -13 22 -30 26 -49c46 24 88 68 120 129c4 8 14 9 18 0c4 -8 0 -36 -14 -62c-23 -43 -80 -77 -122 -95c0 -107 -104 -258 -167 -293c-20 -11 -41 -17 -66 14c-21 26 -47 61 -23 117c37 86 120 135 205 170zM196 -30c-133 -75 -175 -197 -156 -220 c18 -21 122 119 156 220z" glyph-name="z" horiz-adv-x="353"/>
<glyph unicode="{" d="M139 310c27 -29 25 -63 0 -112c-26 -52 -98 -146 -88 -193c3 -14 -4 -19 -15 -12c-29 18 -47 59 -27 109c25 63 71 114 87 154c10 26 8 40 -4 51c-7 10 -7 23 7 24c17 1 36 9 52 32c28 39 70 155 106 209c30 45 77 50 108 44c12 -2 12 -11 1 -18 c-51 -35 -104 -165 -132 -216c-26 -47 -54 -70 -95 -72z" glyph-name="braceleft" horiz-adv-x="193"/>
<glyph unicode="|" d="M309 644c9 13 19 11 24 -1c13 -29 9 -75 -33 -150c-60 -106 -214 -384 -270 -523c-4 -10 -10 -10 -17 -2c-15 17 -20 54 -2 107c34 98 209 435 298 569z" glyph-name="bar" horiz-adv-x="224"/>
<glyph unicode="}" d="M224 295c-23 24 -23 62 0 106c27 52 104 157 92 202c-4 13 2 17 15 12c35 -14 50 -48 36 -90c-25 -72 -84 -140 -99 -179c-10 -26 -5 -43 5 -53c9 -9 2 -18 -14 -22c-17 -4 -31 -14 -46 -34c-29 -37 -66 -146 -102 -200c-30 -45 -72 -52 -109 -45c-13 2 -11 11 0 18 c46 28 101 161 129 212c25 45 54 69 93 73z" glyph-name="braceright" horiz-adv-x="306"/>
<glyph unicode="…" d="M60 43c11 27 36 43 56 35c19 -8 26 -33 15 -60c-10 -25 -37 -43 -56 -35c-20 8 -26 34 -15 60zM330 42c10 26 35 41 55 35c19 -6 25 -32 14 -59c-10 -25 -35 -41 -55 -35s-24 34 -14 59zM192 42c12 28 38 43 58 36s26 -33 15 -61c-10 -26 -38 -42 -58 -35s-26 34 -15 60z " glyph-name="ellipsis" horiz-adv-x="490"/>
<glyph unicode="†" d="M399 538c-11 -21 -36 -35 -68 -36h-32c-34 -59 -79 -134 -103 -185c-4 -8 -8 -8 -15 -1c-10 11 -12 31 -2 62c10 30 35 78 61 124c-22 0 -46 0 -66 -3c-9 -1 -14 3 -10 12c6 15 21 33 57 38c13 2 30 3 48 3c17 29 34 56 45 75c5 9 9 7 15 4c11 -10 19 -37 1 -72 c-1 -2 -2 -5 -4 -7h63c11 0 15 -4 10 -14z" glyph-name="dagger" horiz-adv-x="326"/>
<glyph unicode="ˆ" d="M118 471c-22 -13 -44 -26 -60 -35c-21 -11 -41 -11 -51 -9c-9 2 -9 9 -1 15c29 19 84 63 116 82c4 3 9 2 13 3c10 2 16 -6 20 -13c11 -20 30 -53 41 -70c6 -9 1 -13 -6 -15c-18 -4 -35 0 -53 18c-7 7 -14 16 -19 24z" glyph-name="circumflex" horiz-adv-x="197"/>
<glyph unicode="Œ" d="M880 550c-56 2 -148 -15 -211 -33c-38 -57 -85 -138 -132 -223c27 5 52 7 70 8c50 3 74 -18 83 -48c3 -10 1 -15 -11 -15c-55 -2 -130 -15 -187 -29c-27 -54 -52 -106 -72 -151c49 13 112 25 150 27c50 3 77 -16 89 -47c3 -8 2 -15 -12 -15c-56 1 -158 -23 -216 -38 c-27 -7 -39 -7 -50 9c-10 14 -17 26 -24 40v1c-61 -47 -128 -69 -202 -42c-82 30 -115 103 -115 185c1 211 187 396 299 435c56 20 108 8 136 -22c47 -21 72 -63 80 -116c16 28 34 55 49 79c9 15 21 29 37 34c46 13 120 26 161 27c50 1 78 -21 88 -52c3 -8 2 -14 -10 -14z M422 235c90 166 87 316 32 336c-50 19 -174 -50 -268 -196c-95 -148 -97 -314 -30 -344c65 -29 183 51 266 204z" glyph-name="OE" horiz-adv-x="746"/>
<glyph unicode="‘" d="M251 402c-24 35 -62 105 -81 145c-9 19 -16 42 -8 61c4 10 15 14 26 -2c29 -41 77 -152 93 -203c3 -11 2 -15 -6 -17c-6 -2 -15 3 -24 16z" glyph-name="quoteleft" horiz-adv-x="257"/>
<glyph unicode="’" d="M171 440c-11 -13 -19 -15 -26 -14c-6 1 -8 8 -4 18c23 49 81 154 115 192c13 14 21 10 25 -1c7 -19 -2 -42 -13 -60c-23 -37 -70 -103 -97 -135z" glyph-name="quoteright" horiz-adv-x="230"/>
<glyph unicode="“" d="M308 420c-17 37 -42 109 -55 150c-6 20 -8 46 4 63c6 9 17 9 24 -6c22 -47 48 -157 57 -212c0 -11 -1 -15 -9 -15c-7 0 -14 5 -21 20zM253 395c-22 35 -67 113 -84 153c-9 20 -15 46 -5 64c5 9 14 12 25 -4c28 -41 77 -159 93 -213c3 -11 1 -13 -4 -16 c-6 -3 -16 1 -25 16z" glyph-name="quotedblleft" horiz-adv-x="312"/>
<glyph unicode="”" d="M172 437c-11 -13 -19 -16 -26 -14c-8 2 -8 8 -5 16c21 52 79 153 113 191c11 12 20 7 24 -1c9 -21 0 -43 -13 -63c-23 -35 -66 -98 -93 -129zM216 400c-12 -10 -21 -15 -26 -11c-8 6 -6 10 0 20c29 45 109 145 148 179c12 10 25 5 26 -5c2 -22 -11 -44 -24 -61 c-27 -35 -92 -95 -124 -122z" glyph-name="quotedblright" horiz-adv-x="311"/>
<glyph unicode="•" d="M130 246c-17 -31 -43 -38 -62 -29c-20 9 -28 38 -13 67c14 26 47 39 64 32c18 -7 28 -39 11 -70z" glyph-name="bullet" horiz-adv-x="151"/>
<glyph unicode="–" d="M117 199c-47 1 -67 25 -72 55c-2 9 -2 15 11 14c72 -5 187 11 264 10c48 -1 68 -25 73 -54c2 -9 0 -16 -12 -14c-64 8 -206 -12 -264 -11z" glyph-name="endash" horiz-adv-x="414"/>
<glyph unicode="—" d="M116 200c-46 1 -66 25 -71 55c-2 9 -2 15 11 14c80 -5 226 14 321 11c50 -2 69 -25 74 -55c2 -9 0 -16 -13 -14c-80 10 -250 -13 -322 -11z" glyph-name="emdash" horiz-adv-x="472"/>
<glyph unicode="™" d="M363 557c-53 -74 -120 -184 -165 -279c-4 -9 -11 -10 -17 -1c-11 15 -21 39 -1 87c17 42 53 105 96 175c-6 -1 -12 -1 -17 -2c-49 -5 -81 19 -91 51c-3 8 1 13 10 11c67 -12 147 23 213 29c40 4 72 -15 87 -45c4 -7 1 -15 -10 -14c-32 3 -69 -3 -105 -12zM646 464 c-38 -63 -86 -152 -118 -226c-4 -10 -8 -10 -15 -2c-13 15 -23 38 -4 87c10 25 25 58 45 95c-43 -51 -90 -114 -124 -165c-6 -8 -12 -7 -20 -2c-16 10 -30 30 -29 62c3 23 5 55 12 90c-33 -55 -67 -116 -93 -171c-4 -9 -11 -10 -16 -3c-11 15 -21 39 -1 89 c18 44 75 153 123 224c6 9 13 15 25 2c11 -12 20 -21 28 -32c7 -9 4 -24 2 -40c-3 -23 -12 -69 -17 -110c46 65 111 142 164 189c10 9 16 11 25 0s17 -28 21 -42c3 -11 3 -27 -8 -45z" glyph-name="trademark" horiz-adv-x="577"/>
<glyph unicode="œ" d="M557 91c-41 -61 -118 -107 -194 -108c-61 -1 -104 28 -122 73c-25 -30 -55 -51 -84 -62c-36 -13 -87 -13 -126 40c-44 59 -29 146 16 225c39 69 100 126 160 130c30 2 46 -6 67 -34c13 -17 27 -26 37 -44c57 69 125 94 162 73c25 -14 43 -29 59 -51 c17 -24 8 -78 -30 -132c-45 -65 -125 -81 -190 -31c-33 -92 -4 -157 47 -159c83 -3 155 77 198 142c6 7 14 7 17 -2s0 -35 -17 -60zM256 239c8 31 9 57 7 76c-4 33 -26 29 -29 -1c-3 -26 8 -55 22 -75zM321 193c48 -27 91 6 122 50c29 42 53 89 39 101 c-21 19 -109 -44 -154 -136c-2 -5 -5 -10 -7 -15zM248 213c-29 23 -61 63 -60 105c-27 -22 -58 -58 -81 -98c-43 -75 -58 -167 -31 -189s88 13 137 103c16 29 26 55 35 79z" glyph-name="oe" horiz-adv-x="540"/>
<glyph unicode=" " glyph-name="nonbreakingspace" horiz-adv-x="220"/>
<glyph unicode="¡" d="M311 530c-11 23 -4 50 7 64c12 15 41 9 55 -14c16 -26 11 -56 -5 -73c-15 -16 -44 -5 -57 23zM86 -33c-8 -12 -19 -12 -25 2c-13 28 -11 77 30 151c55 99 139 256 190 367c5 10 9 12 17 4c15 -16 25 -49 3 -109c-40 -107 -140 -305 -215 -415z" glyph-name="exclamdown" horiz-adv-x="317"/>
<glyph unicode="¢" d="M307 482c20 37 41 72 60 103c7 12 11 12 18 2c10 -15 7 -46 -14 -89l-21 -42c13 -11 24 -23 31 -39c20 -43 -23 -93 -44 -144c-5 -12 -9 -17 -23 -8c-23 15 -33 41 -16 83c12 31 42 77 26 88c-28 19 -132 -58 -176 -155c-37 -82 -24 -141 14 -155c39 -14 98 19 131 74 c6 10 11 10 16 2c10 -17 3 -45 -14 -67c-32 -41 -87 -58 -139 -43c-17 -32 -33 -63 -46 -92c-4 -10 -10 -10 -14 -3c-7 11 -13 32 4 74c3 11 9 24 15 39c-63 43 -75 132 -21 225c62 107 157 160 213 147z" glyph-name="cent" horiz-adv-x="353"/>
<glyph unicode="£" d="M380 361c-31 -31 -60 -32 -77 -28c-10 2 -13 7 -5 15c43 45 75 115 58 126c-16 10 -61 -15 -102 -51c-37 -33 -59 -78 -55 -108c11 3 22 4 31 4c31 1 54 -18 61 -39c2 -7 2 -10 -6 -10c-29 0 -54 -4 -75 -7c4 -27 -1 -54 -24 -79c17 2 32 4 44 5c41 4 65 -13 76 -39 c3 -7 2 -12 -8 -12c-47 -2 -128 -20 -174 -35c-12 -4 -19 -5 -28 6s-18 22 -25 31s-6 18 5 24c38 20 85 55 98 90c-14 -4 -25 -7 -38 -8c-36 -3 -58 14 -67 35c-4 9 0 13 7 13c27 -1 58 7 89 15c-12 37 -41 87 48 166c40 36 106 68 162 26c60 -45 35 -110 5 -140z" glyph-name="sterling" horiz-adv-x="355"/>
<glyph unicode="€" d="M93 299c-48 -6 -77 12 -88 27c-10 13 -5 19 12 19c35 -1 69 3 101 6c70 116 178 165 228 134c27 -17 44 -36 55 -58c20 -42 -23 -92 -44 -142c-5 -13 -9 -17 -22 -9c-23 15 -33 41 -17 83c12 31 43 75 25 87c-20 14 -84 -26 -133 -89c36 -2 49 -15 58 -28 c8 -11 4 -19 -12 -18c-23 1 -52 -1 -79 -4c-2 -5 -5 -10 -7 -15c-4 -9 -7 -17 -10 -25c40 2 53 -15 62 -28c8 -11 4 -20 -10 -19c-19 1 -42 -1 -64 -4c-4 -42 10 -68 35 -77c39 -14 98 18 130 73c6 9 10 9 15 2c12 -17 5 -44 -13 -67c-34 -43 -95 -58 -150 -38 c-46 17 -74 52 -82 97c-40 -4 -67 12 -78 26c-10 12 -5 19 10 19c24 -1 46 2 67 4c2 14 6 29 11 44z" glyph-name="euro" horiz-adv-x="407"/>
<glyph unicode="©" d="M495 612c112 -48 103 -188 55 -286c-49 -100 -140 -161 -232 -157c-118 5 -155 110 -87 223c64 107 150 155 193 129c22 -14 36 -29 45 -49c17 -36 -20 -86 -39 -132c-5 -11 -7 -14 -19 -8c-20 10 -30 38 -16 75c12 31 36 66 24 74c-16 11 -76 -35 -121 -112 c-55 -95 -38 -166 16 -169c69 -4 136 60 177 139c35 67 70 203 -7 246c-67 38 -199 -9 -284 -139c-84 -129 -75 -275 -1 -319c58 -34 132 -16 179 15c9 6 14 7 13 -6c-1 -14 -12 -37 -46 -51c-54 -22 -113 -14 -162 15c-65 39 -94 99 -97 171c-8 188 167 346 277 370 c60 13 105 -1 132 -29z" glyph-name="copyright" horiz-adv-x="550"/>
<glyph unicode="®" d="M563 324c-38 -91 -105 -136 -166 -136c-60 0 -109 40 -129 117c-20 -36 -38 -72 -55 -107c-4 -9 -11 -10 -16 -3c-11 15 -21 39 -2 88c16 43 53 112 98 186c-7 5 -15 12 -21 24c-5 10 -1 13 8 15c47 8 91 37 132 38c30 1 62 -13 76 -53c14 -39 3 -74 -20 -104 c-27 -35 -85 -69 -137 -83c14 -56 44 -86 69 -87c28 -1 69 28 108 114c53 117 26 225 -37 252c-68 29 -189 -17 -278 -141c-90 -126 -84 -275 -10 -314c56 -29 134 -5 175 31c9 8 15 9 15 -3c0 -14 -8 -40 -40 -59c-55 -32 -123 -16 -152 -3c-78 34 -108 104 -108 177 c-1 187 175 340 285 363c63 13 105 -1 133 -28c112 -50 112 -188 72 -284zM455 481c-7 20 -52 0 -88 -12c-21 -33 -45 -70 -69 -111c99 27 168 92 157 123z" glyph-name="registered" horiz-adv-x="567"/>
<glyph unicode="°" d="M258 613c17 0 37 -7 54 -30s25 -44 23 -75c-3 -62 -47 -139 -105 -150c-23 -4 -54 1 -78 35c-27 38 -21 97 5 147c24 46 63 73 101 73zM285 565c-13 16 -54 -14 -79 -57c-23 -40 -33 -93 -20 -107c14 -15 44 5 72 52c28 48 37 100 27 112z" glyph-name="degree" horiz-adv-x="302"/>
<glyph unicode="¶" d="M621 551c-17 0 -35 1 -55 0c-3 -23 -15 -49 -35 -83c-66 -110 -173 -295 -241 -465c-4 -10 -10 -10 -17 -2c-13 15 -21 43 -5 99c27 93 135 307 230 447c-17 -1 -33 -4 -50 -7c-95 -158 -220 -382 -284 -543c-4 -10 -11 -13 -18 -4c-12 15 -22 45 -6 99 c10 35 31 86 59 144c-48 9 -88 37 -96 100c-8 62 21 117 67 162c80 78 225 125 376 122c50 -1 78 -29 87 -54c3 -8 2 -15 -12 -15z" glyph-name="paragraph" horiz-adv-x="471"/>
<glyph unicode="¿" d="M342 562c-10 26 -7 50 6 64s40 11 55 -14c15 -26 11 -56 -5 -73s-45 -5 -56 23zM278 86c-54 -87 -150 -130 -223 -82c-55 36 -71 112 -31 195c38 79 108 125 185 167c74 41 101 93 115 145c3 11 10 11 18 3c13 -13 27 -46 7 -93c-18 -42 -51 -74 -126 -117 c-61 -35 -114 -87 -144 -151c-19 -41 -34 -103 -1 -121c52 -28 141 62 197 177c7 13 12 13 19 3c15 -23 18 -71 -16 -126z" glyph-name="questiondown" horiz-adv-x="369"/>
<glyph unicode="Æ" d="M128 142c-41 -53 -77 -105 -104 -151c-5 -9 -10 -9 -16 0c-11 17 -13 51 17 109c7 14 17 31 30 49c-19 9 -28 21 -31 28c-6 12 -4 15 10 15c16 -1 34 1 53 3c90 123 245 294 359 372c17 12 38 22 60 27c52 11 148 25 202 26c50 1 75 -18 88 -50c3 -8 1 -16 -12 -15 c-49 4 -142 -11 -212 -27c-38 -61 -91 -153 -142 -248c31 6 59 9 79 10c50 1 73 -21 82 -51c3 -9 1 -15 -12 -15c-57 1 -135 -13 -192 -27c-24 -50 -47 -98 -65 -140c49 15 115 27 152 29c50 3 78 -17 89 -48c3 -8 3 -15 -10 -15c-57 2 -160 -22 -216 -37 c-28 -8 -40 -8 -51 9c-9 14 -17 26 -23 38c-9 18 -10 32 0 58s22 56 36 87c-57 -15 -130 -32 -171 -36zM482 516c-85 -73 -195 -185 -292 -298c52 14 104 31 148 42c44 87 97 179 144 256z" glyph-name="AE" horiz-adv-x="651"/>
<glyph unicode="Ç" d="M121 10c-1 0 -1 1 -2 1c-45 24 -84 86 -86 168c-4 212 174 393 286 436c54 21 103 25 135 -3c22 -19 45 -48 53 -73c9 -29 6 -57 -9 -88s-29 -70 -40 -99c-3 -8 -10 -14 -22 -6c-23 15 -39 46 -24 96c16 53 52 110 29 134c-28 30 -180 -51 -270 -200 c-88 -146 -78 -294 -29 -334c64 -52 170 15 246 164c5 11 16 11 21 -2c25 -67 -39 -142 -81 -172c-54 -38 -115 -47 -165 -37c-5 -10 -10 -20 -12 -25c18 -1 29 -9 38 -27c11 -22 8 -36 2 -46c-12 -20 -35 -30 -54 -30c-16 0 -35 8 -48 26c-7 9 -1 14 7 14 c46 -2 74 18 70 25c-4 8 -19 5 -32 3c-12 -2 -20 -2 -30 10c-9 11 -10 18 -5 28c4 8 13 23 22 37z" glyph-name="Ccedilla" horiz-adv-x="462"/>
<glyph unicode="Ø" d="M540 527c39 -84 9 -216 -46 -319c-79 -147 -204 -263 -339 -215c-21 7 -39 19 -52 32c-17 -22 -33 -43 -48 -64c-6 -9 -12 -7 -14 2c-3 12 -3 35 22 82c3 3 6 8 8 13c-21 35 -31 77 -31 120c1 212 188 397 299 435c60 20 107 9 135 -21c12 -5 24 -11 32 -20 c24 25 45 46 64 63c11 10 17 8 19 -3c4 -25 -18 -67 -48 -104c-1 0 -1 0 -1 -1zM110 116c89 124 249 305 369 429c-6 13 -15 22 -26 26c-49 19 -174 -50 -268 -195c-59 -91 -81 -191 -75 -260zM493 473c-95 -105 -239 -256 -365 -416c7 -12 16 -21 27 -26 c66 -29 184 52 266 204c48 90 72 176 72 238z" glyph-name="Oslash" horiz-adv-x="525"/>
<glyph unicode="ß" d="M448 405c-28 -37 -76 -74 -133 -96c15 -5 28 -12 38 -21c50 -44 41 -129 -35 -215c-50 -56 -103 -80 -150 -84c-29 -2 -59 6 -81 31c-8 9 -5 16 8 16c55 -1 125 32 169 83c50 59 80 125 56 147c-15 14 -41 11 -61 7c-25 -5 -46 3 -64 35c-6 10 -3 18 8 21 c181 55 260 193 224 235c-47 55 -143 -65 -172 -105c-63 -88 -173 -293 -237 -460c-4 -10 -11 -10 -16 -3c-15 22 -23 49 -4 110c25 82 107 255 176 358c34 51 80 114 139 141c50 23 109 23 145 -22s42 -109 -10 -178z" glyph-name="germandbls" horiz-adv-x="410"/>
<glyph unicode="æ" d="M571 89c-45 -66 -124 -109 -237 -109c-84 0 -122 36 -124 87c-33 -43 -79 -83 -129 -83c-91 0 -109 128 -26 248c80 115 159 161 209 161c41 0 62 -34 60 -70c12 24 23 42 35 59c9 13 16 16 25 6c8 -8 12 -24 13 -43c47 33 90 40 115 23c17 -11 25 -20 35 -35 c17 -25 9 -83 -32 -134c-49 -61 -121 -85 -193 -25c-13 -24 -26 -47 -35 -67c-25 -57 -21 -101 50 -101c124 0 188 77 235 147c5 8 14 7 17 -1s-1 -37 -18 -63zM344 209c-3 -5 -7 -10 -10 -15c51 -36 92 8 122 46c33 42 55 92 41 104c-21 19 -96 -40 -153 -135zM280 342 c-33 2 -106 -62 -159 -149c-54 -88 -67 -177 -27 -178c38 -1 91 66 142 153c64 110 71 172 44 174z" glyph-name="ae" horiz-adv-x="555"/>
<glyph unicode="ç" d="M66 0c-70 36 -86 135 -35 236c64 126 165 180 215 150c27 -16 43 -32 55 -55c21 -42 -19 -95 -39 -149c-4 -12 -8 -15 -21 -8c-24 12 -38 42 -24 87c11 36 41 79 27 90c-17 14 -92 -50 -137 -141c-55 -113 -34 -196 25 -197c84 -1 156 79 197 142c5 8 14 9 18 -1 c3 -8 -1 -33 -18 -60c-38 -59 -117 -108 -193 -109c-10 0 -20 1 -29 2c-6 -9 -10 -18 -12 -23c16 -1 27 -10 36 -26c11 -20 7 -30 1 -42c-10 -19 -33 -28 -50 -28c-15 0 -33 7 -44 24c-6 9 -1 13 6 13c43 -3 68 16 64 23c-4 8 -16 6 -27 3c-13 -3 -20 -1 -29 9 c-10 11 -9 17 -5 27c3 7 11 20 19 33z" glyph-name="ccedilla" horiz-adv-x="310"/>
<glyph unicode="ø" d="M305 318c11 -15 17 -35 15 -74c-6 -95 -79 -226 -164 -253c-32 -10 -71 -10 -107 23c-9 -11 -16 -23 -24 -34c-6 -9 -12 -6 -14 3c-2 11 0 31 15 58c-38 59 -23 143 20 219c39 68 99 125 159 130c30 3 48 -6 68 -34c1 -1 1 -3 2 -2c18 17 33 34 45 46c9 9 18 8 19 -4 c2 -21 -13 -48 -34 -78zM64 100c50 70 130 165 194 234c-2 1 -3 2 -3 2c-29 25 -104 -35 -149 -115c-23 -40 -37 -85 -42 -121zM261 263c-57 -69 -132 -149 -192 -224c1 -3 3 -5 6 -8c26 -22 86 15 139 104c25 43 41 89 47 128z" glyph-name="oslash" horiz-adv-x="330"/>
<glyph unicode="ı" d="M69 -15c-76 0 -95 64 -67 146c25 73 91 191 128 243c9 12 16 15 24 6c15 -16 23 -59 -1 -109c-21 -44 -63 -112 -84 -162c-24 -58 -22 -97 10 -95c45 2 100 68 130 137c5 9 12 8 16 0c8 -16 5 -37 -7 -62c-30 -62 -93 -104 -149 -104z" glyph-name="dotlessi" horiz-adv-x="201"/>
<glyph unicode="˘" d="M23 523c6 5 12 4 16 -3c18 -31 40 -38 66 -38c21 0 44 10 65 35c7 8 11 7 14 0c4 -10 1 -33 -16 -51c-19 -20 -46 -31 -78 -31c-27 0 -49 7 -65 24c-18 20 -19 50 -2 64z" glyph-name="breve" horiz-adv-x="197"/>
<glyph unicode="˚" d="M83 535c29 -24 26 -56 10 -85c-13 -24 -42 -38 -67 -20c-29 21 -32 56 -18 84c14 27 46 45 75 21zM72 519c-9 5 -26 -6 -34 -24c-11 -24 -9 -41 -2 -46c5 -4 20 2 30 21s15 44 6 49z" glyph-name="ring" horiz-adv-x="105"/>
<glyph unicode="#" d="M217 347c-35 -1 -69 -3 -104 -6c-10 -1 -14 6 -8 13c10 13 30 24 82 32c14 2 32 4 53 6c34 63 67 120 87 152c7 12 15 13 19 2c9 -24 -7 -69 -27 -113c-5 -12 -12 -25 -18 -38c30 2 62 3 93 3c36 65 70 121 92 151c8 11 16 11 19 -1c7 -24 -8 -68 -29 -110 c-7 -13 -14 -26 -21 -40c35 0 67 -1 91 -4c14 -2 17 -7 9 -15c-23 -24 -67 -30 -113 -30h-14c-24 -43 -51 -91 -79 -142c42 1 81 0 109 -2c14 -1 17 -7 9 -15c-22 -22 -67 -31 -112 -31h-32c-25 -46 -50 -94 -73 -143c-4 -8 -9 -8 -14 0c-6 10 -9 38 10 87c6 15 14 34 24 55 c-32 0 -63 -1 -93 -2c-20 -40 -41 -83 -62 -128c-4 -9 -9 -8 -14 0c-6 10 -10 36 8 87c4 11 9 24 15 38c-32 -2 -65 -4 -98 -7c-12 -1 -13 4 -8 11c9 14 29 27 81 35c12 2 27 4 45 6c20 46 46 98 73 149zM367 349h-90c-23 -46 -49 -94 -77 -147c29 2 61 3 93 4 c22 45 48 95 74 143z" glyph-name="numbersign" horiz-adv-x="510"/>
<glyph unicode="!" d="M356 615c8 12 19 12 25 -2c13 -28 11 -77 -30 -151c-55 -99 -139 -256 -190 -367c-5 -10 -9 -12 -17 -4c-15 16 -25 49 -3 109c40 107 140 305 215 415zM131 52c11 -23 4 -50 -7 -64c-12 -15 -41 -9 -55 14c-16 26 -11 56 5 73c15 16 44 5 57 -23z" glyph-name="exclam" horiz-adv-x="317"/>
<glyph unicode='&quot;' d="M191 433c-10 -14 -17 -17 -24 -16c-8 1 -10 7 -7 16c18 52 69 157 101 197c10 13 18 10 23 1c10 -20 3 -43 -8 -63c-21 -37 -60 -102 -85 -135zM239 398c-11 -11 -22 -16 -26 -13c-8 6 -8 10 -2 20c27 47 99 153 136 189c11 11 24 7 26 -3c4 -22 -7 -45 -20 -63 c-25 -35 -84 -101 -114 -130z" glyph-name="quotedbl" horiz-adv-x="318"/>
<glyph unicode="¦" d="M309 644c9 13 19 11 24 -1c13 -29 9 -75 -33 -150c-15 -26 -53 -95 -67 -129c-5 -24 -11 -24 -20 -16c-20 14 -25 59 -7 128c12 29 72 129 103 168zM110 294c15 13 25 11 30 -1c13 -23 9 -61 -16 -123c-21 -41 -74 -147 -94 -200c-4 -10 -10 -10 -17 -2 c-15 17 -20 54 -2 107c11 38 69 167 99 219z" glyph-name="brokenbar" horiz-adv-x="224"/>
<glyph unicode="´" d="M174 504c8 -5 10 -11 0 -16c-36 -17 -89 -46 -115 -54c-22 -7 -41 -6 -52 -1c-8 4 -9 9 1 16c27 19 70 47 95 58c27 12 56 6 71 -3z" glyph-name="acute" horiz-adv-x="181"/>
<glyph unicode="˜" d="M6 442c6 18 30 42 59 47c46 8 86 -29 141 -2c9 4 15 1 10 -10c-10 -24 -27 -38 -50 -44c-55 -14 -104 25 -150 1c-9 -5 -13 0 -10 8z" glyph-name="tilde" horiz-adv-x="221"/>
<glyph unicode="¨" d="M117 473c10 21 30 36 45 29c16 -7 21 -28 12 -48c-9 -21 -30 -36 -45 -29c-16 7 -22 28 -12 48zM8 473c9 21 29 34 45 27c15 -7 21 -26 11 -47c-7 -20 -29 -33 -44 -28c-16 5 -21 27 -12 48z" glyph-name="dieresis" horiz-adv-x="181"/>
<glyph unicode="΄" d="M175 662c6 -2 13 -5 5 -15c-25 -32 -71 -98 -89 -114c-20 -17 -38 -23 -48 -22c-9 0 -14 4 -7 13c19 28 52 91 69 112c23 22 51 29 70 26z" glyph-name="tonosgreek" horiz-adv-x="222"/>
<glyph d="M223 476c6 -2 13 -5 5 -15c-25 -32 -71 -98 -89 -114c-20 -17 -38 -23 -48 -22c-9 0 -14 4 -7 13c19 28 52 91 69 112c23 22 51 29 70 26zM114 273c10 21 30 36 45 29c16 -7 21 -28 12 -48c-9 -21 -30 -36 -45 -29c-16 7 -22 28 -12 48zM5 273c9 21 29 34 45 27 c15 -7 21 -26 11 -47c-7 -20 -29 -33 -44 -28c-16 5 -21 27 -12 48z" glyph-name="dialytikatonosgreek" horiz-adv-x="232"/>
<glyph unicode="Ά" d="M313 157c-71 -5 -152 -17 -199 -16c-30 -51 -56 -100 -76 -144c-4 -9 -13 -9 -18 -2c-12 16 -16 46 5 102c6 15 15 35 27 57c-22 12 -30 27 -33 34c-5 13 -3 17 12 15c14 -2 29 -4 45 -5c78 136 217 334 323 421c16 13 26 13 36 -1s13 -16 23 -41c10 -24 9 -46 0 -73 c-26 -79 -54 -181 -73 -291c30 -10 41 -30 45 -51c2 -9 -2 -12 -11 -9c-12 3 -26 5 -43 6c-7 -52 -13 -107 -15 -160c0 -10 -6 -13 -15 -9c-20 9 -36 34 -37 91c0 20 1 46 4 76zM152 201c61 5 122 16 169 17c15 104 43 230 74 308c-76 -85 -167 -206 -243 -325zM285 662 c6 -2 13 -5 5 -15c-25 -32 -71 -98 -89 -114c-20 -17 -38 -23 -48 -22c-9 0 -14 4 -7 13c19 28 52 91 69 112c23 22 51 29 70 26z" glyph-name="Alphatonosgreek" horiz-adv-x="442"/>
<glyph unicode="Έ" d="M318 525c-25 10 -36 30 -42 51c-2 9 1 13 11 12c83 -5 193 24 249 25c42 1 64 -16 76 -49c3 -8 1 -15 -11 -13c-72 1 -142 -17 -203 -27c-40 -60 -89 -147 -138 -236c27 5 53 7 71 8c50 2 72 -14 82 -45c3 -9 3 -15 -10 -15c-54 0 -129 -14 -185 -28 c-29 -56 -56 -111 -77 -158c48 15 114 29 155 31c49 2 74 -14 85 -44c3 -9 2 -15 -10 -15c-56 1 -165 -25 -221 -40c-19 -5 -30 -5 -42 10c-8 9 -14 24 -21 37c-9 17 -9 30 1 57c46 123 146 309 230 439zM255 662c6 -2 13 -5 5 -15c-25 -32 -71 -98 -89 -114 c-20 -17 -38 -23 -48 -22c-9 0 -14 4 -7 13c19 28 52 91 69 112c23 22 51 29 70 26z" glyph-name="Epsilontonosgreek" horiz-adv-x="471"/>
<glyph unicode="Ή" d="M621 465c-30 -54 -69 -121 -112 -199c23 -10 35 -27 39 -44c2 -8 -1 -13 -11 -11c-16 3 -35 4 -56 3c-34 -65 -69 -137 -102 -212c-4 -10 -11 -11 -17 -2c-14 20 -23 49 -3 110c7 20 22 55 42 96c-73 -9 -150 -22 -197 -22c-31 -62 -62 -128 -91 -195 c-4 -10 -12 -13 -18 -4c-15 21 -22 49 -5 110c6 21 23 57 43 102c-22 10 -30 24 -34 32c-6 12 -4 16 13 15c15 -1 29 -3 42 -3c64 133 157 306 198 364c9 12 18 10 24 -1c15 -28 12 -77 -25 -148c-29 -56 -70 -127 -114 -210c69 9 131 26 197 30c65 129 153 288 193 341 c10 13 19 12 25 -1c14 -29 11 -76 -31 -151zM268 662c6 -2 13 -5 5 -15c-25 -32 -71 -98 -89 -114c-20 -17 -38 -23 -48 -22c-9 0 -14 4 -7 13c19 28 52 91 69 112c23 22 51 29 70 26z" glyph-name="Etatonosgreek" horiz-adv-x="551"/>
<glyph unicode="Ί" d="M364 616c9 13 18 11 24 -1c14 -29 13 -77 -30 -153c-62 -109 -172 -302 -245 -466c-4 -10 -8 -11 -16 -2c-14 15 -26 50 -4 111c49 136 190 394 271 511zM290 662c6 -2 13 -5 5 -15c-25 -32 -71 -98 -89 -114c-20 -17 -38 -23 -48 -22c-9 0 -14 4 -7 13 c19 28 52 91 69 112c23 22 51 29 70 26z" glyph-name="Iotatonosgreek" horiz-adv-x="277"/>
<glyph unicode="Ό" d="M516 597c124 -54 96 -251 21 -389c-81 -149 -207 -266 -343 -216c-82 30 -114 105 -114 187c0 213 187 398 300 438c58 20 108 9 136 -20zM464 236c91 167 87 317 32 337c-49 18 -176 -50 -270 -196c-96 -149 -98 -318 -30 -347c66 -28 184 52 268 206zM255 662 c6 -2 13 -5 5 -15c-25 -32 -71 -98 -89 -114c-20 -17 -38 -23 -48 -22c-9 0 -14 4 -7 13c19 28 52 91 69 112c23 22 51 29 70 26z" glyph-name="Omicrontonosgreek" horiz-adv-x="577"/>
<glyph unicode="Ύ" d="M302 197c-42 -75 -74 -147 -95 -207c-4 -10 -11 -10 -19 -3c-15 13 -25 48 -10 100c11 36 34 89 62 145c2 122 10 275 29 370c3 16 12 17 21 11c24 -15 39 -44 35 -116c-3 -56 -11 -121 -15 -196c93 103 234 241 313 311c11 9 18 6 21 -5c8 -29 -2 -73 -61 -131 c-72 -70 -158 -146 -281 -279zM243 662c6 -2 13 -5 5 -15c-25 -32 -71 -98 -89 -114c-20 -17 -38 -23 -48 -22c-9 0 -14 4 -7 13c19 28 52 91 69 112c23 22 51 29 70 26z" glyph-name="Upsilontonosgreek" horiz-adv-x="507"/>
<glyph unicode="Ώ" d="M43 18c18 24 56 40 108 38c-24 35 -34 79 -34 125c1 213 186 395 296 433c60 21 109 10 138 -20c121 -54 92 -249 19 -387c-64 -120 -159 -218 -264 -223c76 -38 146 -87 215 -73c17 3 16 -5 10 -12c-33 -43 -100 -45 -149 -28c-42 14 -69 28 -114 58c-6 4 -11 99 29 103 c63 21 141 93 200 203c90 166 88 315 33 337c-49 20 -174 -49 -268 -195c-83 -128 -95 -273 -52 -327c13 -14 -3 -34 -15 -46c-4 -4 -30 3 -33 3c-32 10 -68 10 -110 0c-10 -2 -14 4 -9 11zM290 662c6 -2 13 -5 5 -15c-25 -32 -71 -98 -89 -114c-20 -17 -38 -23 -48 -22 c-9 0 -14 4 -7 13c19 28 52 91 69 112c23 22 51 29 70 26z" glyph-name="Omegatonosgreek" horiz-adv-x="623"/>
<glyph unicode="ΐ" d="M69 -15c-76 0 -95 64 -67 146c25 73 91 191 128 243c9 12 16 15 24 6c15 -16 23 -59 -1 -109c-21 -44 -63 -112 -84 -162c-24 -58 -22 -97 10 -95c45 2 100 68 130 137c5 9 12 8 16 0c8 -16 5 -37 -7 -62c-30 -62 -93 -104 -149 -104zM336 672c6 -2 13 -5 5 -15 c-25 -32 -71 -98 -89 -114c-20 -17 -38 -23 -48 -22c-9 0 -14 4 -7 13c19 28 52 91 69 112c23 22 51 29 70 26zM218 473c10 21 30 36 45 29c16 -7 21 -28 12 -48c-9 -21 -30 -36 -45 -29c-16 7 -22 28 -12 48zM109 473c9 21 29 34 45 27c15 -7 21 -26 11 -47 c-7 -20 -29 -33 -44 -28c-16 5 -21 27 -12 48z" glyph-name="iotadieresistonosgreek" horiz-adv-x="201"/>
<glyph unicode="Α" d="M313 157c-71 -5 -152 -17 -199 -16c-30 -51 -56 -100 -76 -144c-4 -9 -13 -9 -18 -2c-12 16 -16 46 5 102c6 15 15 35 27 57c-22 12 -30 27 -33 34c-5 13 -3 17 12 15c14 -2 29 -4 45 -5c78 136 217 334 323 421c16 13 26 13 36 -1s13 -16 23 -41c10 -24 9 -46 0 -73 c-26 -79 -54 -181 -73 -291c30 -10 41 -30 45 -51c2 -9 -2 -12 -11 -9c-12 3 -26 5 -43 6c-7 -52 -13 -107 -15 -160c0 -10 -6 -13 -15 -9c-20 9 -36 34 -37 91c0 20 1 46 4 76zM152 201c61 5 122 16 169 17c15 104 43 230 74 308c-76 -85 -167 -206 -243 -325z" glyph-name="Alphagreek" horiz-adv-x="442"/>
<glyph unicode="Β" d="M213 511c-40 2 -61 24 -68 40c-5 11 -2 16 10 17c70 6 160 55 227 59c51 3 100 -13 118 -81c18 -67 -1 -123 -35 -167c-29 -37 -82 -87 -156 -119c19 -9 35 -23 48 -42c21 -31 20 -90 -23 -137c-44 -48 -119 -83 -175 -93c-38 -7 -62 -6 -84 5c-20 10 -38 27 -51 46 c-15 22 -25 38 -2 102c40 112 116 258 191 370zM167 288c198 46 321 181 296 249c-20 52 -119 6 -188 -16c2 -22 -5 -52 -30 -98c-20 -37 -49 -84 -78 -135zM244 238c-14 -3 -28 -5 -42 -7c-28 -3 -48 0 -62 7c-27 -52 -52 -105 -67 -155c-11 -35 0 -47 32 -43 c64 8 150 49 193 102c37 46 37 91 -54 96z" glyph-name="Betagreek" horiz-adv-x="454"/>
<glyph unicode="Γ" d="M214 526c-23 11 -34 31 -39 51c-2 8 1 12 11 12c83 -4 189 25 245 25c43 0 69 -20 82 -51c3 -8 1 -15 -12 -15c-75 1 -145 -19 -206 -28c-35 -57 -82 -138 -131 -228l-44 -83c-38 -74 -75 -149 -104 -216c-4 -10 -10 -10 -17 -4c-19 16 -29 48 -8 110 c30 88 135 284 223 427z" glyph-name="Gammagreek" horiz-adv-x="363"/>
<glyph unicode="Δ" d="M458 504c-61 -187 -61 -298 -76 -448c-3 -31 -41 -33 -71 -34c-44 -1 -183 -25 -239 -40c-19 -5 -30 -5 -42 10c-8 9 -14 24 -21 37c-10 20 -6 40 6 68c67 167 255 416 384 522c16 13 26 13 36 -1s13 -16 23 -41c10 -24 9 -46 0 -73zM320 92c12 167 25 298 75 434 c-97 -115 -232 -287 -332 -476c38 12 26 23 257 42z" glyph-name="Deltagreek" horiz-adv-x="442"/>
<glyph unicode="Ε" d="M218 525c-25 10 -36 30 -42 51c-2 9 1 13 11 12c83 -5 193 24 249 25c42 1 64 -16 76 -49c3 -8 1 -15 -11 -13c-72 1 -142 -17 -203 -27c-40 -60 -89 -147 -138 -236c27 5 53 7 71 8c50 2 72 -14 82 -45c3 -9 3 -15 -10 -15c-54 0 -129 -14 -185 -28 c-29 -56 -56 -111 -77 -158c48 15 114 29 155 31c49 2 74 -14 85 -44c3 -9 2 -15 -10 -15c-56 1 -165 -25 -221 -40c-19 -5 -30 -5 -42 10c-8 9 -14 24 -21 37c-9 17 -9 30 1 57c46 123 146 309 230 439z" glyph-name="Epsilongreek" horiz-adv-x="368"/>
<glyph unicode="Ζ" d="M54 50c50 13 127 30 177 34c48 4 76 -14 88 -43c4 -9 3 -15 -10 -15c-63 0 -166 -22 -236 -41c-26 -7 -39 -9 -50 9c-7 11 -20 30 -24 41c-8 20 -11 30 5 54c83 122 329 360 477 461c-45 -7 -115 -24 -157 -29c-66 -7 -95 18 -106 51c-3 9 0 15 11 15 c74 -2 177 23 232 27c21 2 34 0 47 -17c14 -18 25 -42 33 -65c7 -20 1 -29 -23 -46c-148 -106 -344 -294 -464 -436z" glyph-name="Zetagreek" horiz-adv-x="441"/>
<glyph unicode="Η" d="M558 465c-30 -54 -69 -121 -112 -199c23 -10 35 -27 39 -44c2 -8 -1 -13 -11 -11c-16 3 -35 4 -56 3c-34 -65 -69 -137 -102 -212c-4 -10 -11 -11 -17 -2c-14 20 -23 49 -3 110c7 20 22 55 42 96c-73 -9 -150 -22 -197 -22c-31 -62 -62 -128 -91 -195 c-4 -10 -12 -13 -18 -4c-15 21 -22 49 -5 110c6 21 23 57 43 102c-22 10 -30 24 -34 32c-6 12 -4 16 13 15c15 -1 29 -3 42 -3c64 133 157 306 198 364c9 12 18 10 24 -1c15 -28 12 -77 -25 -148c-29 -56 -70 -127 -114 -210c69 9 131 26 197 30c65 129 153 288 193 341 c10 13 19 12 25 -1c14 -29 11 -76 -31 -151z" glyph-name="Etagreek" horiz-adv-x="488"/>
<glyph unicode="Θ" d="M248 259c-47 2 -67 23 -73 53c-2 9 -1 15 10 14c54 -3 108 8 154 8c50 0 69 -23 75 -52c2 -9 0 -15 -11 -14c-73 6 -109 -11 -155 -9zM476 597c124 -54 96 -251 21 -389c-81 -149 -207 -266 -343 -216c-82 30 -114 105 -114 187c0 213 187 398 300 438 c58 20 108 9 136 -20zM424 236c91 167 87 317 32 337c-49 18 -176 -50 -270 -196c-96 -149 -98 -318 -30 -347c66 -28 184 52 268 206z" glyph-name="Thetagreek" horiz-adv-x="537"/>
<glyph unicode="Ι" d="M269 616c9 13 18 11 24 -1c14 -29 13 -77 -30 -153c-62 -109 -172 -302 -245 -466c-4 -10 -8 -11 -16 -2c-14 15 -26 50 -4 111c49 136 190 394 271 511z" glyph-name="Iotagreek" horiz-adv-x="182"/>
<glyph unicode="Κ" d="M125 210c-35 -67 -70 -142 -103 -219c-4 -9 -10 -11 -16 -3c-15 21 -23 50 -5 110c25 85 197 424 258 509c9 12 16 11 24 -2c13 -23 18 -71 -23 -146c-26 -47 -59 -106 -95 -173c131 98 271 223 366 326c7 8 15 7 19 -2c6 -22 5 -56 -31 -105 c-45 -61 -181 -183 -316 -278c32 -51 59 -97 71 -125c24 -57 15 -92 0 -111c-6 -7 -13 -7 -18 2c-38 74 -82 146 -131 217z" glyph-name="Kappagreek" horiz-adv-x="397"/>
<glyph unicode="Λ" d="M309 81c0 139 36 309 86 445c-111 -132 -280 -359 -357 -529c-4 -9 -13 -9 -18 -2c-12 16 -16 46 5 102c67 167 245 416 374 522c16 13 26 13 36 -1s13 -16 23 -41c10 -24 9 -46 0 -73c-63 -193 -91 -351 -97 -505c0 -10 -6 -13 -15 -9c-20 9 -36 34 -37 91z" glyph-name="Lambdagreek" horiz-adv-x="442"/>
<glyph unicode="Μ" d="M269 435c-89 -134 -201 -313 -260 -447c-4 -10 -10 -10 -17 -2c-14 15 -25 49 -2 109c37 95 199 362 307 509c9 13 19 17 32 6c39 -34 50 -69 24 -148c-32 -96 -68 -213 -106 -353c109 178 255 327 365 498c9 14 17 15 29 3c40 -41 30 -96 3 -146 c-70 -130 -170 -332 -220 -476c-4 -10 -8 -10 -16 -3c-16 13 -28 43 -11 109c15 59 79 199 144 324c-114 -138 -230 -291 -302 -425c-5 -10 -10 -13 -18 -7c-33 24 -48 59 -38 121c9 57 42 195 86 328z" glyph-name="Mugreek" horiz-adv-x="573"/>
<glyph unicode="Ν" d="M239 429c-75 -129 -177 -315 -217 -435c-3 -10 -10 -12 -17 -4c-17 19 -25 58 -5 112c49 135 180 372 259 505c9 15 16 16 26 9c37 -27 45 -55 34 -124c-16 -95 -26 -220 -33 -360c68 154 183 363 258 479c8 12 17 9 23 -2c15 -30 14 -70 -31 -145 c-59 -98 -186 -338 -245 -471c-4 -10 -9 -12 -20 -6c-30 16 -44 40 -49 104c-5 61 -1 196 17 338z" glyph-name="Nugreek" horiz-adv-x="459"/>
<glyph unicode="Ξ" d="M16 0c-46 1 -66 25 -71 55c-2 9 -2 15 11 14c80 -5 226 14 321 11c50 -2 69 -25 74 -55c2 -9 0 -16 -13 -14c-80 10 -250 -13 -322 -11zM196 530c-46 1 -66 25 -71 55c-2 9 -2 15 11 14c80 -5 226 14 321 11c50 -2 69 -25 74 -55c2 -9 0 -16 -13 -14 c-80 10 -250 -13 -322 -11zM158 219c-47 2 -67 23 -73 53c-2 9 -1 15 10 14c54 -3 128 8 174 8c50 0 69 -23 75 -52c2 -9 0 -15 -11 -14c-73 6 -129 -11 -175 -9z" glyph-name="Xigreek" horiz-adv-x="368"/>
<glyph unicode="Ο" d="M476 597c124 -54 96 -251 21 -389c-81 -149 -207 -266 -343 -216c-82 30 -114 105 -114 187c0 213 187 398 300 438c58 20 108 9 136 -20zM424 236c91 167 87 317 32 337c-49 18 -176 -50 -270 -196c-96 -149 -98 -318 -30 -347c66 -28 184 52 268 206z" glyph-name="Omicrongreek" horiz-adv-x="537"/>
<glyph unicode="Π" d="M174 246c-31 -62 -95 -190 -124 -257c-4 -10 -12 -13 -18 -4c-15 21 -22 49 -5 110c6 21 23 57 43 102l21 44c52 107 122 241 169 319l61 -9c-3 -26 -13 -57 -33 -95c-29 -56 -70 -127 -114 -210zM520 547c-43 0 -97 -15 -144 -22c-34 -5 -43 -6 -61 -7 c-60 -2 -103 20 -114 57c-3 9 1 14 11 13c89 -7 255 30 312 28c13 0 25 -1 36 -4c62 -14 38 -75 -2 -147c-30 -54 -69 -121 -112 -199l-28 -52c-34 -65 -69 -137 -102 -212c-4 -10 -11 -11 -17 -2c-14 20 -23 49 -3 110c7 20 22 55 42 96c48 96 128 248 182 341z" glyph-name="Pigreek" horiz-adv-x="488"/>
<glyph unicode="Ρ" d="M206 509c-34 4 -53 21 -63 42c-5 11 -3 17 10 18c83 9 158 51 226 54c51 2 95 -14 119 -83c21 -60 4 -118 -30 -171c-50 -78 -158 -153 -289 -178c-23 -4 -45 0 -62 10c-28 -55 -58 -121 -93 -204c-4 -10 -9 -10 -16 -3c-14 15 -24 45 -9 99c26 91 120 279 207 416z M146 257c224 42 336 204 309 274c-21 55 -121 3 -187 -16c0 -27 -10 -62 -38 -110c-26 -46 -54 -92 -84 -148z" glyph-name="Rhogreek" horiz-adv-x="425"/>
<glyph unicode="Σ" d="M258 524c-24 -4 -63 -6 -80 1c-25 10 -36 30 -42 51c-2 9 1 13 11 12c83 -5 213 24 269 25c42 1 64 -16 76 -49c3 -8 1 -15 -11 -13c-72 1 -192 -22 -223 -27zM273 291c-98 -101 -167 -163 -219 -226c38 9 93 14 121 16c49 2 74 -14 85 -44c3 -9 2 -15 -10 -15 c-56 1 -185 -25 -241 -40c-19 -5 -30 -5 -42 10c-5 5 -9 13 -13 21c-9 18 -6 22 6 40c78 114 156 183 247 280c-11 79 -21 169 -29 231l69 11l5 -30c6 -45 18 -152 27 -224c2 -16 7 -16 -6 -30z" glyph-name="Sigmagreek" horiz-adv-x="368"/>
<glyph unicode="Τ" d="M276 525c-23 -4 -43 -6 -61 -7c-60 -2 -103 20 -114 57c-3 9 1 14 11 13c89 -7 255 30 312 28c42 -1 80 -12 95 -51c3 -8 1 -16 -12 -15c-49 5 -112 -5 -170 -15c1 -24 -6 -57 -33 -106c-60 -109 -145 -249 -223 -432c-4 -10 -9 -10 -16 -3c-14 13 -26 43 -13 91 c23 82 131 299 224 440z" glyph-name="Taugreek" horiz-adv-x="403"/>
<glyph unicode="Υ" d="M174 197c-42 -75 -74 -147 -95 -207c-4 -10 -11 -10 -19 -3c-15 13 -25 48 -10 100c11 36 34 89 62 145c2 122 10 275 29 370c3 16 12 17 21 11c24 -15 39 -44 35 -116c-3 -56 -11 -121 -15 -196c93 103 234 241 313 311c11 9 18 6 21 -5c8 -29 -2 -73 -61 -131 c-72 -70 -158 -146 -281 -279z" glyph-name="Upsilongreek" horiz-adv-x="379"/>
<glyph unicode="Φ" d="M485 607c91 0 153 -65 153 -133c0 -175 -156 -326 -377 -326c-167 0 -221 77 -221 156c0 195 189 325 363 325c62 0 63 -8 82 -22zM241 181c156 0 326 156 326 315c0 70 -34 95 -126 95c-136 0 -325 -165 -325 -303c0 -74 38 -107 125 -107zM462 657c9 13 18 11 24 -1 c14 -29 13 -77 -30 -153c-62 -109 -216 -392 -289 -556c-4 -10 -8 -11 -16 -2c-14 15 -26 50 -4 111c49 136 234 484 315 601z" glyph-name="Phigreek" horiz-adv-x="608"/>
<glyph unicode="Χ" d="M280 387c87 89 174 176 228 226c12 11 20 6 23 -7c6 -28 -4 -79 -66 -138c-46 -44 -108 -103 -173 -168c16 -114 38 -237 73 -297c7 -11 2 -19 -9 -18c-39 3 -79 29 -103 128c-9 39 -17 80 -24 122c-80 -82 -159 -170 -213 -245c-6 -8 -13 -6 -16 2c-9 22 -9 57 22 105 c27 43 105 130 193 223c-14 96 -28 195 -50 282c-2 10 3 16 13 14c25 -4 58 -23 77 -89c8 -29 16 -80 25 -140z" glyph-name="Chigreek" horiz-adv-x="399"/>
<glyph unicode="Ψ" d="M324 173c-92 0 -216 56 -216 170c0 64 26 126 116 262c4 5 8 8 11 8c12 0 25 -26 25 -53c0 -23 -8 -54 -31 -95c-28 -51 -57 -85 -57 -147c0 -49 53 -106 106 -106c109 0 149 16 213 132c48 87 92 174 147 261c4 6 7 8 11 8c12 0 21 -20 21 -47c0 -68 -81 -214 -145 -303 c-48 -66 -131 -90 -201 -90zM432 605c9 13 18 11 24 -1c14 -29 13 -77 -30 -153c-62 -109 -167 -299 -240 -463c-4 -10 -8 -11 -16 -2c-14 15 -26 50 -4 111c49 136 185 391 266 508z" glyph-name="Psigreek" horiz-adv-x="537"/>
<glyph unicode="Ω" d="M-37 18c18 24 56 40 108 38c-24 35 -34 79 -34 125c1 213 186 395 296 433c60 21 109 10 138 -20c121 -54 92 -249 19 -387c-64 -120 -159 -218 -264 -223c76 -38 146 -87 215 -73c17 3 16 -5 10 -12c-33 -43 -100 -45 -149 -28c-42 14 -69 28 -114 58 c-6 4 -11 99 29 103c63 21 141 93 200 203c90 166 88 315 33 337c-49 20 -174 -49 -268 -195c-83 -128 -95 -273 -52 -327c13 -14 -3 -34 -15 -46c-4 -4 -30 3 -33 3c-32 10 -68 10 -110 0c-10 -2 -14 4 -9 11z" glyph-name="Omegagreek" horiz-adv-x="543"/>
<glyph unicode="Ϊ" d="M375 700c10 21 30 32 45 28c17 -5 22 -27 13 -48c-9 -20 -27 -34 -43 -27s-25 27 -15 47zM273 701c10 20 29 33 45 28c15 -5 20 -26 11 -48c-9 -21 -29 -33 -45 -28c-15 5 -21 27 -11 48zM299 616c9 13 18 11 24 -1c14 -29 13 -77 -30 -153c-62 -109 -172 -302 -245 -466 c-4 -10 -8 -11 -16 -2c-14 15 -26 50 -4 111c49 136 190 394 271 511z" glyph-name="Iotadieresisgreek" horiz-adv-x="212"/>
<glyph unicode="Ϋ" d="M441 686c10 21 29 33 44 28c16 -5 21 -27 12 -48c-9 -20 -29 -34 -45 -27c-15 7 -21 26 -11 47zM326 684c10 21 29 33 45 28c15 -5 20 -27 11 -48c-9 -20 -29 -33 -45 -28c-15 5 -21 26 -11 48zM76 -12c-49 20 -95 70 -68 180c28 113 141 301 232 439c8 12 17 10 24 -1 c16 -25 20 -64 -19 -139c-49 -95 -150 -244 -175 -350c-12 -51 -9 -89 20 -100c61 -24 141 64 211 199c55 107 164 305 219 392c8 13 17 10 24 -1c12 -21 13 -66 -13 -124c-35 -77 -159 -307 -226 -400c-71 -98 -160 -123 -229 -95z" glyph-name="Upsilondieresisgreek" horiz-adv-x="452"/>
<glyph unicode="ά" d="M100 -14c116 0 181 111 324 283c33 40 42 76 37 108c-3 16 -12 12 -20 -1c-97 -150 -261 -357 -329 -357c-16 0 -24 14 -24 36c0 117 129 290 178 290c14 0 25 -14 25 -42c0 -86 -51 -148 -51 -236c0 -47 13 -85 65 -85c71 0 157 79 157 152c0 16 -4 23 -9 23 c-3 0 -6 -2 -9 -7c-35 -69 -88 -133 -115 -133c-12 0 -22 13 -22 41c1 79 57 140 57 242c0 45 -15 97 -83 97c-115 0 -263 -201 -263 -313c0 -57 29 -98 82 -98zM143 462c6 -2 13 -5 5 -15c-25 -32 -71 -98 -89 -114c-20 -17 -38 -23 -48 -22c-9 0 -14 4 -7 13 c19 28 52 91 69 112c23 22 51 29 70 26z" glyph-name="alphatonosgreek" horiz-adv-x="425"/>
<glyph unicode="έ" d="M140 296c-48 -38 -58 -5 -41 24c15 26 80 66 140 70c31 2 48 -7 68 -34c23 -31 53 -38 47 -110c-1 -8 -1 -15 -2 -23l-4 -21c-21 -85 -84 -186 -158 -211c-36 -12 -86 -8 -126 44c-28 37 -16 78 -2 115c8 24 58 -5 49 -54c-5 -29 -14 -56 -2 -65c28 -23 89 12 138 104 c15 28 36 80 42 107c7 32 11 56 8 74c-5 32 -51 32 -79 24c-36 -10 -59 -29 -78 -44zM203 159c-47 2 -67 23 -73 53c-2 9 -1 15 10 14c54 -3 128 8 174 8c50 0 69 -23 75 -52c2 -9 0 -15 -11 -14c-73 6 -129 -11 -175 -9zM138 462c6 -2 13 -5 5 -15 c-25 -32 -71 -98 -89 -114c-20 -17 -38 -23 -48 -22c-9 0 -14 4 -7 13c19 28 52 91 69 112c23 22 51 29 70 26z" glyph-name="epsilontonosgreek" horiz-adv-x="388"/>
<glyph unicode="ή" d="M169 -218c-3 -5 -6 -8 -9 -8c-9 0 -26 30 -26 57c0 16 5 35 17 59c111 216 207 389 207 438c0 10 -4 15 -11 15c-17 0 -69 -24 -133 -94c-59 -64 -103 -160 -146 -254c-3 -6 -6 -9 -10 -9c-15 0 -28 33 -28 57c0 48 78 211 169 346c3 5 7 8 10 8c14 0 22 -33 22 -53 c0 -16 -3 -33 -8 -50c45 48 113 98 163 98c30 0 51 -28 51 -64c0 -46 -119 -272 -268 -546zM138 462c6 -2 13 -5 5 -15c-25 -32 -71 -98 -89 -114c-20 -17 -38 -23 -48 -22c-9 0 -14 4 -7 13c19 28 52 91 69 112c23 22 51 29 70 26z" glyph-name="etatonosgreek" horiz-adv-x="447"/>
<glyph unicode="ί" d="M122 -15c-76 0 -95 64 -67 146c25 73 91 191 128 243c9 12 16 15 24 6c15 -16 23 -59 -1 -109c-21 -44 -63 -112 -84 -162c-24 -58 -22 -97 10 -95c45 2 97 70 130 137c5 9 12 8 16 0c8 -16 5 -37 -7 -62c-30 -62 -93 -104 -149 -104zM138 462c6 -2 13 -5 5 -15 c-25 -32 -71 -98 -89 -114c-20 -17 -38 -23 -48 -22c-9 0 -14 4 -7 13c19 28 52 91 69 112c23 22 51 29 70 26z" glyph-name="iotatonosgreek" horiz-adv-x="254"/>
<glyph unicode="ΰ" d="M73 19c53 -5 122 108 150 155c17 153 86 219 107 223c13 2 19 -13 15 -34c-8 -40 -25 -85 -87 -190c-36 -60 -117 -193 -206 -186c-71 5 -73 79 -51 145s73 164 138 255c8 11 18 10 26 1c22 -33 17 -78 -19 -135c-37 -59 -57 -99 -78 -147c-21 -49 -18 -85 5 -87z M416 672c6 -2 13 -5 5 -15c-25 -32 -71 -98 -89 -114c-20 -17 -38 -23 -48 -22c-9 0 -14 4 -7 13c19 28 52 91 69 112c23 22 51 29 70 26zM297 475c10 21 30 36 45 29c16 -7 21 -28 12 -48c-9 -21 -30 -36 -45 -29c-16 7 -22 28 -12 48zM188 475c9 21 29 34 45 27 c15 -7 21 -26 11 -47c-7 -20 -29 -33 -44 -28c-16 5 -21 27 -12 48z" glyph-name="upsilondieresistonosgreek" horiz-adv-x="310"/>
<glyph unicode="α" d="M82 -14c-53 0 -82 41 -82 98c0 112 148 313 263 313c68 0 83 -52 83 -97c0 -102 -56 -163 -57 -242c0 -28 10 -41 22 -41c27 0 80 64 115 133c3 5 6 7 9 7c5 0 9 -7 9 -23c0 -73 -86 -152 -157 -152c-52 0 -65 38 -65 85c0 88 51 150 51 236c0 28 -11 42 -25 42 c-49 0 -178 -173 -178 -290c0 -22 8 -36 24 -36c68 0 232 207 329 357c8 13 17 17 20 1c5 -32 -4 -68 -37 -108c-143 -172 -208 -283 -324 -283z" glyph-name="alphagreek" horiz-adv-x="407"/>
<glyph unicode="β" d="M448 405c-28 -37 -76 -74 -133 -96c15 -5 28 -12 38 -21c50 -44 41 -129 -35 -215c-50 -56 -103 -80 -150 -84c-29 -2 -59 6 -81 31c-8 9 -5 16 8 16c55 -1 125 32 169 83c50 59 80 125 56 147c-15 14 -41 11 -61 7c-25 -5 -46 3 -64 35c-6 10 -3 18 8 21 c181 55 260 193 224 235c-47 55 -143 -65 -172 -105c-53 -74 -139 -231 -349 -677c-4 -9 -11 -11 -17 -2c-15 21 -23 50 -1 110c49 135 197 435 286 574c33 52 80 114 139 141c50 23 109 23 145 -22s42 -109 -10 -178z" glyph-name="betagreek" horiz-adv-x="410"/>
<glyph unicode="γ" d="M174 86l245 294c5 6 10 9 14 9c3 0 6 -3 6 -11c0 -33 -21 -91 -54 -131c-38 -46 -116 -141 -220 -277c-52 -68 -85 -150 -106 -210c-2 -6 -5 -8 -9 -8c-12 0 -28 23 -28 57c0 39 30 114 75 204c24 144 35 232 35 292c0 24 -1 45 -17 45c-19 0 -50 -36 -80 -103 c-2 -5 -6 -8 -9 -8c-7 0 -9 11 -9 21c0 61 66 129 123 129c44 0 58 -45 58 -92c0 -82 -8 -127 -24 -211z" glyph-name="gammagreek" horiz-adv-x="389"/>
<glyph unicode="δ" d="M324 284c0 -88 -79 -300 -201 -299c-45 0 -118 42 -118 135c0 105 99 263 201 270h4l-3 2c-106 67 -171 140 -171 208c0 63 48 97 91 97c86 0 215 -78 215 -166c0 -12 -2 -25 -10 -25c-2 0 -5 2 -7 5c-64 79 -168 142 -217 142c-19 0 -29 -10 -29 -28 c0 -44 70 -122 167 -193c62 -45 78 -92 78 -148zM249 215l7 27c6 23 9 43 9 59c0 34 -12 40 -27 40s-54 -23 -54 -26c-70 -59 -121 -160 -121 -241c0 -33 10 -50 33 -50c41 0 112 69 153 191z" glyph-name="deltagreek" horiz-adv-x="335"/>
<glyph unicode="ε" d="M37 226l-21 -57c-18 9 -27 24 -31 43c-2 9 -1 15 10 14c15 -1 28 -1 42 0zM16 169l21 57c37 2 72 8 106 8c50 0 69 -23 75 -52c2 -9 0 -15 -11 -14c-73 6 -103 -11 -149 -9c-17 1 -31 5 -42 10zM247 386c27 -16 44 -31 55 -55c12 -27 6 -36 -14 -90c-4 -12 -8 -15 -21 -8 c-24 12 -35 41 -24 87c4 17 9 25 2 31c-17 14 -92 -50 -137 -141c-55 -113 -34 -196 25 -197c84 -1 156 79 197 142c5 8 14 9 18 -1c3 -8 -1 -33 -18 -60c-38 -59 -117 -108 -193 -109c-127 -2 -170 122 -105 251c64 126 165 180 215 150z" glyph-name="epsilongreek" horiz-adv-x="345"/>
<glyph unicode="ζ" d="M71 -28c-59 0 -112 26 -73 133c49 136 190 394 271 511c9 13 18 11 24 -1c14 -29 13 -77 -30 -153c-62 -109 -282 -458 -177 -458c25 0 66 18 114 40c12 6 28 11 44 11c30 0 60 -18 60 -81c0 -98 -91 -223 -178 -223c-13 0 -30 4 -30 18c0 3 3 7 7 8 c79 28 135 120 135 212c0 17 -8 24 -24 24c-37 0 -77 -41 -143 -41zM143 538c-18 -3 -67 -4 -80 1c-26 10 -36 30 -42 51c-2 9 1 13 11 12c83 -5 193 24 249 25c42 1 64 -16 76 -49c3 -8 1 -15 -11 -13c-72 1 -124 -13 -203 -27z" glyph-name="zetagreek" horiz-adv-x="328"/>
<glyph unicode="η" d="M106 -218c-3 -5 -6 -8 -9 -8c-9 0 -26 30 -26 57c0 16 5 35 17 59c111 216 207 389 207 438c0 10 -4 15 -11 15c-17 0 -69 -24 -133 -94c-59 -64 -103 -160 -146 -254c-3 -6 -6 -9 -10 -9c-15 0 -28 33 -28 57c0 48 78 211 169 346c3 5 7 8 10 8c14 0 22 -33 22 -53 c0 -16 -3 -33 -8 -50c45 48 113 98 163 98c30 0 51 -28 51 -64c0 -46 -119 -272 -268 -546z" glyph-name="etagreek" horiz-adv-x="384"/>
<glyph unicode="θ" d="M178 259c-47 2 -74 26 -74 59c0 5 2 8 9 8s14 -1 21 -1c48 0 94 9 135 9c50 0 76 -26 76 -58c0 -5 -3 -8 -10 -8c-12 0 -23 1 -33 1c-50 0 -81 -10 -116 -10h-8zM406 597c38 -17 53 -59 53 -112c0 -216 -192 -501 -332 -501c-105 0 -117 97 -117 149 c0 189 198 494 346 494c21 0 32 -11 50 -30zM304 236c64 117 106 226 106 288c0 33 -13 52 -41 52c-49 0 -119 -68 -203 -199c-66 -102 -111 -214 -111 -283c0 -43 19 -70 57 -70c58 0 119 78 192 212z" glyph-name="thetagreek" horiz-adv-x="419"/>
<glyph unicode="ι" d="M69 -15c-76 0 -95 64 -67 146c25 73 91 191 128 243c9 12 16 15 24 6c15 -16 23 -59 -1 -109c-21 -44 -63 -112 -84 -162c-24 -58 -22 -97 10 -95c45 2 97 70 130 137c5 9 12 8 16 0c8 -16 5 -37 -7 -62c-30 -62 -93 -104 -149 -104z" glyph-name="iotagreek" horiz-adv-x="201"/>
<glyph unicode="κ" d="M143 216c70 61 123 101 213 154c12 7 21 10 27 10c9 0 13 -6 13 -14c0 -20 -20 -52 -49 -73c-66 -48 -110 -82 -154 -131c4 -83 33 -143 73 -143c41 0 94 74 123 135c3 6 7 9 11 9c5 0 11 -8 11 -23c0 -23 -48 -151 -161 -151c-70 0 -129 55 -129 186c0 25 4 26 22 41z M160 372c8 -20 17 -43 -5 -87c-37 -74 -66 -101 -143 -285c-3 -8 -11 -10 -18 -2c-15 17 -20 49 -1 110c28 91 51 147 140 268c9 12 20 14 27 -4z" glyph-name="kappagreek" horiz-adv-x="367"/>
<glyph unicode="μ" d="M196 81c-35 -47 -88 -98 -144 -94c-18 2 -32 7 -42 16c-34 -67 -70 -142 -104 -221c-4 -9 -11 -11 -17 -2c-15 21 -25 51 -1 110c42 102 165 358 251 497c7 12 18 10 26 1c22 -33 17 -78 -19 -135c-37 -59 -57 -99 -78 -147c-7 -18 -28 -85 5 -87c39 -3 94 67 148 154 c63 102 92 171 124 214c10 14 17 16 25 6c15 -18 23 -62 -1 -112c-22 -45 -72 -120 -95 -171c-26 -57 -22 -99 14 -97c42 2 93 68 132 138c5 9 14 10 18 1c4 -8 5 -35 -9 -63c-29 -56 -91 -107 -150 -107c-65 0 -91 41 -83 99z" glyph-name="mugreek"/>
<glyph unicode="ν" d="M68 29c71 117 204 293 272 363c11 11 17 9 19 -4c3 -21 -9 -47 -41 -87c-50 -63 -141 -159 -237 -311c-5 -8 -10 -15 -20 -10c-39 19 -53 39 -50 92c4 70 31 213 65 317c4 11 12 15 20 8c33 -28 38 -65 24 -126c-18 -77 -38 -133 -52 -242z" glyph-name="nugreek" horiz-adv-x="300"/>
<glyph unicode="ξ" d="M156 44c12 6 28 11 44 11c30 0 60 -18 60 -81c0 -98 -91 -223 -178 -223c-13 0 -30 4 -30 18c0 3 3 7 7 8c79 28 135 120 135 211c0 18 -8 25 -24 25c-37 0 -85 -40 -131 -40c-45 0 -67 37 -67 83c0 67 65 141 171 208c-67 0 -97 51 -97 91c0 106 181 226 234 255 c9 5 18 9 28 9c12 0 24 -6 38 -23l3 -4l-19 -32c0 1 -1 1 -1 2c0 2 1 3 1 4c0 4 -3 5 -7 5c-37 0 -226 -137 -226 -232c0 -20 5 -47 43 -47c25 0 62 11 94 33c4 2 7 4 10 4c9 0 12 -22 12 -31c0 -30 -21 -52 -48 -68c-128 -73 -193 -155 -193 -199c0 -17 9 -27 27 -27 c25 0 66 18 114 40zM154 532c-18 -3 -67 -4 -80 1c-26 10 -36 30 -42 51c-2 9 1 13 11 12c83 -5 193 24 249 25c42 1 64 -16 76 -49c3 -8 1 -15 -11 -13c-72 1 -124 -13 -203 -27z" glyph-name="xigreek" horiz-adv-x="295"/>
<glyph unicode="ο" d="M342 215c-7 -8 -17 -12 -27 -13c-21 -85 -84 -186 -158 -211c-36 -12 -86 -8 -126 44c-44 58 -29 145 16 225c38 68 99 126 159 130c31 2 48 -7 68 -34c23 -31 53 -38 47 -110c-1 -8 -1 -15 -2 -23c6 0 12 2 20 2c7 0 7 -5 3 -10zM256 242c8 31 11 56 8 74 c-5 32 -25 26 -30 -3c-5 -27 6 -56 22 -71zM249 215c-7 3 -13 7 -19 12c-21 16 -45 51 -46 88c-27 -23 -56 -56 -77 -94c-42 -76 -57 -168 -31 -190c28 -23 89 12 138 104c15 28 27 56 35 80z" glyph-name="omicrongreek" horiz-adv-x="332"/>
<glyph unicode="π" d="M165 294l-155 -299c-4 -9 -10 -13 -19 -4c-20 20 -22 53 -6 103c20 63 97 202 160 295h21c15 -25 16 -62 -1 -95zM105 320c-46 1 -66 25 -71 55c-2 9 -2 15 11 14c80 -5 206 14 301 11c50 -2 69 -25 74 -55c2 -9 0 -16 -13 -14c-80 10 -230 -13 -302 -11zM244 -15 c-76 0 -95 64 -67 146c25 73 91 191 128 243c9 12 16 15 24 6c15 -16 23 -59 -1 -109c-21 -44 -63 -112 -84 -162c-24 -58 -22 -97 10 -95c45 2 97 70 130 137c5 9 12 8 16 0c8 -16 5 -37 -7 -62c-30 -62 -93 -104 -149 -104z" glyph-name="pigreek" horiz-adv-x="381"/>
<glyph unicode="ρ" d="M209 4c98 6 158 78 190 146c6 14 17 10 19 0c2 -9 4 -35 -13 -66c-38 -69 -106 -102 -178 -107c-64 -4 -106 5 -141 37c-21 19 -31 42 -34 67c-47 -86 -98 -188 -146 -299c-4 -9 -11 -11 -17 -2c-15 21 -20 49 -1 110c16 52 145 357 273 463c45 37 121 55 164 10 c48 -51 26 -140 -11 -222c-30 -66 -67 -114 -105 -137zM108 181c-29 -61 -30 -123 -2 -146c32 -26 97 47 144 143c39 80 50 163 25 175c-37 19 -135 -103 -167 -172z" glyph-name="rhogreek" horiz-adv-x="389"/>
<glyph unicode="ς" d="M139 13c22 2 46 19 73 31c12 6 28 11 44 11c30 0 60 -18 60 -81c0 -98 -91 -223 -178 -223c-13 0 -30 4 -30 18c0 3 3 7 7 8c79 28 135 120 135 211c0 17 -8 25 -24 25c-37 0 -86 -40 -131 -40c-104 0 -116 134 -51 263c64 126 165 180 215 150c27 -16 43 -32 55 -55 c21 -42 -19 -95 -39 -149c-4 -12 -8 -15 -21 -8c-24 12 -38 42 -24 87c11 36 41 79 27 90c-17 14 -92 -50 -137 -141c-53 -109 -35 -202 19 -197z" glyph-name="sigmafinalgreek" horiz-adv-x="336"/>
<glyph unicode="σ" d="M432 471c-60 -108 -162 -64 -237 -129c-70 -60 -132 -194 -132 -268c0 -33 10 -50 33 -50c32 0 78 37 118 111c21 39 52 107 52 161c0 14 -4 31 -4 41c0 7 2 10 6 10c17 0 54 -26 54 -82c0 -86 -71 -280 -199 -280c-45 0 -118 42 -118 135c0 120 102 244 201 270 s152 61 205 149c6 10 14 12 18 12c5 0 13 -6 15 -17c3 -18 -1 -43 -12 -63z" glyph-name="sigmagreek" horiz-adv-x="354"/>
<glyph unicode="τ" d="M87 320c-46 1 -66 25 -71 55c-2 9 -2 15 11 14c80 -5 226 14 321 11c50 -2 69 -25 74 -55c2 -9 0 -16 -13 -14c-80 10 -250 -13 -322 -11zM155 -15c-76 0 -95 64 -67 146c25 73 91 191 128 243c9 12 16 15 24 6c15 -16 23 -59 -1 -109c-21 -44 -63 -112 -84 -162 c-24 -58 -22 -97 10 -95c45 2 97 70 130 137c5 9 12 8 16 0c8 -16 5 -37 -7 -62c-30 -62 -93 -104 -149 -104z" glyph-name="taugreek" horiz-adv-x="323"/>
<glyph unicode="υ" d="M70 19c53 -5 122 108 150 155c17 153 86 219 107 223c13 2 19 -13 15 -34c-8 -40 -25 -85 -87 -190c-36 -60 -117 -193 -206 -186c-71 5 -73 79 -51 145s73 164 138 255c8 11 18 10 26 1c22 -33 17 -78 -19 -135c-37 -59 -57 -99 -78 -147c-21 -49 -18 -85 5 -87z" glyph-name="upsilongreek" horiz-adv-x="307"/>
<glyph unicode="φ" d="M336 360c42 0 99 -44 99 -115c0 -95 -90 -264 -253 -260c-73 2 -178 29 -178 145c0 109 99 230 221 252c1 0 3 1 5 1c6 0 14 -3 14 -10c0 -12 -22 -41 -48 -59c-60 -41 -129 -130 -129 -221c0 -52 46 -69 88 -69c102 1 219 131 219 259c0 17 -4 48 -37 48 c-10 0 -27 -7 -45 -42c-59 -114 -177 -370 -233 -509c-2 -5 -5 -8 -8 -8c-11 0 -23 24 -23 52c0 17 4 37 12 61c25 71 115 250 200 404c26 47 56 71 96 71z" glyph-name="phigreek" horiz-adv-x="455"/>
<glyph unicode="χ" d="M336 268c-139 -159 -276 -300 -404 -478c-6 -8 -13 -6 -16 2c-5 12 6 47 22 75c69 121 340 418 446 516c12 11 20 16 23 3c6 -23 -23 -64 -71 -118zM156 307c37 -135 32 -417 95 -524c7 -11 2 -19 -9 -18c-39 3 -74 29 -98 128c-36 157 -30 319 -73 489c-2 10 3 16 13 14 c25 -4 53 -23 72 -89z" glyph-name="chigreek" horiz-adv-x="355"/>
<glyph unicode="ψ" d="M342 477c9 13 18 11 24 -1c14 -29 13 -77 -30 -153c-62 -109 -216 -392 -289 -556c-4 -10 -8 -11 -16 -2c-14 15 -26 50 -4 111c49 136 234 484 315 601zM143 19c95 0 202 108 230 155c17 153 86 219 107 223c13 2 19 -13 15 -34c-8 -40 -25 -85 -87 -190 c-36 -60 -151 -182 -286 -186c-114 -3 -153 79 -131 145s73 164 138 255c8 11 18 10 26 1c22 -33 13 -76 -19 -135c-33 -60 -57 -99 -78 -147c-21 -49 13 -87 85 -87z" glyph-name="psigreek" horiz-adv-x="460"/>
<glyph unicode="ω" d="M403 174c17 153 86 219 107 223c13 2 19 -13 15 -34c-8 -40 -25 -85 -87 -190c-68 -114 -139 -191 -206 -189c-43 1 -67 40 -64 83c-32 -41 -74 -81 -122 -78c-62 4 -73 69 -47 143c23 66 72 164 139 255c8 11 18 10 24 1c24 -33 19 -76 -18 -135 c-36 -57 -62 -104 -82 -152c-20 -49 -19 -84 4 -83c40 1 77 68 131 155c64 102 93 171 126 214c10 13 16 15 25 6c14 -18 22 -62 -2 -112c-22 -45 -72 -121 -97 -174c-27 -57 -24 -91 5 -92c35 -1 95 65 149 159z" glyph-name="omegagreek" horiz-adv-x="490"/>
<glyph unicode="ϊ" d="M213 472c10 20 29 33 45 28c15 -5 20 -26 11 -48c-8 -20 -28 -33 -45 -28c-15 4 -21 27 -11 48zM114 472c8 21 30 32 45 28c17 -5 22 -26 13 -48c-8 -20 -29 -33 -45 -28s-21 27 -13 48zM69 -15c-76 0 -95 64 -67 146c25 73 91 191 128 243c9 12 16 15 24 6 c15 -16 23 -59 -1 -109c-21 -44 -63 -112 -84 -162c-24 -58 -22 -97 10 -95c45 2 100 68 130 137c5 9 12 8 16 0c8 -16 5 -37 -7 -62c-30 -62 -93 -104 -149 -104z" glyph-name="iotadieresisgreek" horiz-adv-x="201"/>
<glyph unicode="ϋ" d="M73 19c53 -5 122 108 150 155c17 153 86 219 107 223c13 2 19 -13 15 -34c-8 -40 -25 -85 -87 -190c-36 -60 -117 -193 -206 -186c-71 5 -73 79 -51 145s73 164 138 255c8 11 18 10 26 1c22 -33 17 -78 -19 -135c-37 -59 -57 -99 -78 -147c-21 -49 -18 -85 5 -87z M301 472c10 21 30 36 45 29c16 -7 21 -28 12 -48c-9 -21 -30 -36 -45 -29c-16 7 -22 28 -12 48zM192 472c9 21 29 34 45 27c15 -7 21 -26 11 -47c-7 -20 -29 -33 -44 -28c-16 5 -21 27 -12 48z" glyph-name="upsilondieresisgreek" horiz-adv-x="310"/>
<glyph unicode="ό" d="M385 215c-7 -8 -17 -12 -27 -13c-21 -85 -84 -186 -158 -211c-36 -12 -86 -8 -126 44c-44 58 -29 145 16 225c38 68 99 126 159 130c31 2 48 -7 68 -34c23 -31 53 -38 47 -110c-1 -8 -1 -15 -2 -23c6 0 12 2 20 2c7 0 7 -5 3 -10zM299 242c8 31 11 56 8 74 c-5 32 -25 26 -30 -3c-5 -27 6 -56 22 -71zM292 215c-7 3 -13 7 -19 12c-21 16 -45 51 -46 88c-27 -23 -56 -56 -77 -94c-42 -76 -57 -168 -31 -190c28 -23 89 12 138 104c15 28 27 56 35 80zM138 462c6 -2 13 -5 5 -15c-25 -32 -71 -98 -89 -114c-20 -17 -38 -23 -48 -22 c-9 0 -14 4 -7 13c19 28 52 91 69 112c23 22 51 29 70 26z" glyph-name="omicrontonosgreek" horiz-adv-x="375"/>
<glyph unicode="ύ" d="M136 19c53 -5 122 108 150 155c17 153 86 219 107 223c13 2 19 -13 15 -34c-8 -40 -25 -85 -87 -190c-36 -60 -117 -193 -206 -186c-71 5 -73 79 -51 145s73 164 138 255c8 11 18 10 26 1c22 -33 17 -78 -19 -135c-37 -59 -57 -99 -78 -147c-21 -49 -18 -85 5 -87z M138 462c6 -2 13 -5 5 -15c-25 -32 -71 -98 -89 -114c-20 -17 -38 -23 -48 -22c-9 0 -14 4 -7 13c19 28 52 91 69 112c23 22 51 29 70 26z" glyph-name="upsilontonosgreek" horiz-adv-x="373"/>
<glyph unicode="ώ" d="M466 174c17 153 86 219 107 223c13 2 19 -13 15 -34c-8 -40 -25 -85 -87 -190c-68 -114 -139 -191 -206 -189c-43 1 -67 40 -64 83c-32 -41 -74 -81 -122 -78c-62 4 -73 69 -47 143c23 66 72 164 139 255c8 11 18 10 24 1c24 -33 19 -76 -18 -135 c-36 -57 -62 -104 -82 -152c-20 -49 -19 -84 4 -83c40 1 77 68 131 155c64 102 93 171 126 214c10 13 16 15 25 6c14 -18 22 -62 -2 -112c-22 -45 -72 -121 -97 -174c-27 -57 -24 -91 5 -92c35 -1 95 65 149 159zM138 462c6 -2 13 -5 5 -15c-25 -32 -71 -98 -89 -114 c-20 -17 -38 -23 -48 -22c-9 0 -14 4 -7 13c19 28 52 91 69 112c23 22 51 29 70 26z" glyph-name="omegatonosgreek" horiz-adv-x="553"/>
<glyph unicode="Ё" d="M218 525c-25 10 -36 30 -42 51c-2 9 1 13 11 12c83 -5 193 24 249 25c42 1 64 -16 76 -49c3 -8 1 -15 -11 -13c-72 1 -142 -17 -203 -27c-40 -60 -89 -147 -138 -236c27 5 53 7 71 8c50 2 72 -14 82 -45c3 -9 3 -15 -10 -15c-54 0 -129 -14 -185 -28 c-29 -56 -56 -111 -77 -158c48 15 114 29 155 31c49 2 74 -14 85 -44c3 -9 2 -15 -10 -15c-56 1 -165 -25 -221 -40c-19 -5 -30 -5 -42 10c-8 9 -14 24 -21 37c-9 17 -9 30 1 57c46 123 146 309 230 439zM403 708c9 22 30 33 45 28c16 -5 21 -26 12 -48 c-8 -20 -30 -32 -45 -27c-16 5 -21 26 -12 47zM288 706c10 21 30 36 45 29c16 -7 21 -28 12 -48s-28 -34 -45 -29c-16 5 -22 28 -12 48z" glyph-name="Iocyrillic" horiz-adv-x="368"/>
<glyph unicode="Ђ" d="M214 526c-23 11 -34 31 -39 51c-2 8 1 12 11 12c83 -4 189 25 245 25c43 0 69 -20 82 -51c3 -8 1 -15 -12 -15c-75 1 -145 -19 -206 -28c-35 -57 -82 -138 -131 -228l-44 -83c-38 -74 -75 -149 -104 -216c-4 -10 -10 -10 -17 -4c-19 16 -29 48 -8 110 c30 88 135 284 223 427zM474 731c6 -4 10 -11 0 -16c-37 -17 -90 -46 -115 -54c-23 -7 -43 -6 -53 0c-7 3 -9 9 0 15c29 19 69 47 95 58c28 12 58 6 73 -3z" glyph-name="Djecyrillic" horiz-adv-x="363"/>
<glyph unicode="Ѓ" d="M118 199c-47 2 -67 23 -73 53c-2 9 -1 15 10 14c54 -3 128 8 174 8c50 0 69 -23 75 -52c2 -9 0 -15 -11 -14c-73 6 -129 -11 -175 -9zM388 206c5 11 16 11 21 -2c25 -67 -39 -142 -81 -172c-71 -51 -155 -50 -209 -21c-45 24 -84 86 -86 168c-4 212 174 393 286 436 c54 21 103 25 135 -3c22 -19 45 -48 53 -73c9 -29 6 -57 -9 -88s-29 -70 -40 -99c-3 -8 -10 -14 -22 -6c-23 15 -39 46 -24 96c16 53 52 110 29 134c-28 30 -180 -51 -270 -200c-88 -146 -78 -294 -29 -334c64 -52 170 15 246 164z" glyph-name="Gjecyrillic" horiz-adv-x="462"/>
<glyph unicode="Є" d="M-33 134c33 10 74 1 101 -21c40 -32 108 -84 173 -84c28 0 49 7 62 18c17 19 12 40 -2 52c-53 45 -211 107 -211 210c0 137 155 254 244 292c48 20 96 28 129 -2c25 -23 43 -56 50 -84c10 -40 -14 -79 -29 -100c-26 -35 -55 -86 -69 -111c-5 -9 -11 -14 -22 -3 c-19 19 -31 50 -10 97c21 48 96 131 72 156c-34 35 -280 -118 -285 -243c-3 -65 125 -118 181 -158c38 -27 33 -73 -11 -124c-60 -69 -234 -88 -375 82c-11 13 -7 20 2 23z" glyph-name="Ecyrillic" horiz-adv-x="444"/>
<glyph unicode="Ѕ" d="M269 616c9 13 18 11 24 -1c14 -29 13 -77 -30 -153c-62 -109 -172 -302 -245 -466c-4 -10 -8 -11 -16 -2c-14 15 -26 50 -4 111c49 136 190 394 271 511z" glyph-name="Dzecyrillic" horiz-adv-x="182"/>
<glyph unicode="І" d="M269 616c9 13 18 11 24 -1c14 -29 13 -77 -30 -153c-62 -109 -172 -302 -245 -466c-4 -10 -8 -11 -16 -2c-14 15 -26 50 -4 111c49 136 190 394 271 511zM329 708c9 22 30 33 45 28c16 -5 21 -26 12 -48c-8 -20 -30 -32 -45 -27c-16 5 -21 26 -12 47zM214 706 c10 21 30 36 45 29c16 -7 21 -28 12 -48s-28 -34 -45 -29c-16 5 -22 28 -12 48z" glyph-name="Icyrillic" horiz-adv-x="182"/>
<glyph unicode="Ї" d="M66 229c14 3 21 -3 15 -20c-49 -142 -10 -187 21 -194c90 -21 163 131 230 270c54 111 140 282 172 331c8 12 17 11 24 -1c13 -22 18 -66 -7 -125c-33 -78 -130 -277 -185 -368c-77 -128 -160 -152 -241 -138c-75 13 -118 82 -95 168c11 43 40 71 66 77z" glyph-name="Yicyrillic" horiz-adv-x="437"/>
<glyph unicode="Ј" d="M309 81c0 144 36 310 86 445c-111 -132 -280 -359 -357 -529c-4 -9 -13 -9 -18 -2c-12 16 -16 46 5 102c67 167 245 416 374 522c16 13 26 13 36 -1s13 -16 23 -41c10 -24 9 -46 0 -73c-53 -161 -81 -298 -92 -428c2 -30 1 -37 15 -37c35 0 230 44 230 141 c0 49 -49 59 -96 59c-52 0 -118 -33 -146 -52c1 2 6 70 17 78c18 14 92 31 127 31c105 0 154 -53 154 -122c0 -154 -212 -191 -271 -191c-38 0 -87 42 -87 98z" glyph-name="Jecyrillic" horiz-adv-x="692"/>
<glyph unicode="Љ" d="M448 269l-114 -71l4 8c-73 -9 -150 -22 -197 -22c-31 -62 -62 -128 -91 -195c-4 -10 -12 -13 -18 -4c-15 21 -22 49 -5 110c6 21 23 57 43 102c-22 10 -30 24 -34 32c-6 12 -4 16 13 15c15 -1 29 -3 42 -3c64 133 157 306 198 364c9 12 18 10 24 -1 c15 -28 12 -77 -25 -148c-29 -56 -70 -127 -114 -210c69 9 131 26 197 30c65 129 153 288 193 341c10 13 19 12 25 -1c14 -29 11 -76 -31 -151c-30 -53 -68 -119 -110 -196zM364 267l100 33l-23 -42c-31 -57 -86 -156 -86 -197c0 -15 7 -22 21 -22c35 0 230 44 230 141 c0 49 -49 59 -96 59c-52 0 -118 -33 -146 -52c1 2 6 70 17 78c18 14 92 31 127 31c105 0 154 -53 154 -122c0 -154 -212 -191 -271 -191c-38 0 -97 42 -97 98c0 32 29 104 70 186z" glyph-name="Ljecyrillic" horiz-adv-x="687"/>
<glyph unicode="Њ" d="M276 525c-23 -4 -43 -6 -61 -7c-60 -2 -103 20 -114 57c-3 9 1 14 11 13c89 -7 255 30 312 28c42 -1 80 -12 95 -51c3 -8 1 -16 -12 -15c-49 5 -112 -5 -170 -15c1 -24 -6 -57 -33 -106c-60 -109 -145 -249 -223 -432c-4 -10 -9 -10 -16 -3c-14 13 -26 43 -13 91 c23 82 131 299 224 440zM138 143l-3 115l20 55l100 54l-21 -56c41 40 97 83 132 80c34 -3 65 -54 39 -105c-22 -44 -70 -117 -93 -169c-25 -58 -20 -105 17 -103c41 2 96 74 127 138c4 9 14 9 18 1c5 -11 5 -32 -10 -62c-28 -57 -89 -107 -148 -107c-84 0 -105 61 -75 148 c33 97 120 201 104 210c-14 8 -123 -60 -181 -155c-9 -14 -18 -29 -26 -44z" glyph-name="Njecyrillic" horiz-adv-x="486"/>
<glyph unicode="Ћ" d="M125 210c-35 -67 -70 -142 -103 -219c-4 -9 -10 -11 -16 -3c-15 21 -23 50 -5 110c25 85 197 424 258 509c9 12 16 11 24 -2c13 -23 18 -71 -23 -146c-26 -47 -59 -106 -95 -173c131 98 271 223 366 326c7 8 15 7 19 -2c6 -22 5 -56 -31 -105 c-45 -61 -181 -183 -316 -278c32 -51 59 -97 71 -125c24 -57 15 -92 0 -111c-6 -7 -13 -7 -18 2c-38 74 -82 146 -131 217zM494 731c6 -4 10 -11 0 -16c-37 -17 -90 -46 -115 -54c-23 -7 -43 -6 -53 0c-7 3 -9 9 0 15c29 19 69 47 95 58c28 12 58 6 73 -3z" glyph-name="Tshecyrillic" horiz-adv-x="397"/>
<glyph unicode="Ќ" d="M27 -6c112 274 174 354 261 531c18 43 -1 75 -18 91c-9 8 -17 6 -26 -9c-79 -133 -194 -370 -243 -505c-20 -54 -13 -93 4 -112c7 -8 19 -6 22 4zM529 611c-119 -185 -217 -445 -240 -517c-17 -54 -5 -97 11 -109c10 -8 12 -7 16 3c50 138 161 378 220 476 c45 75 31 115 16 145c-6 11 -15 14 -23 2zM43 83c0 -3 -18 -55 -21 -95c37 17 294 274 456 447l69 148c-199 -217 -504 -497 -504 -500zM326 735c15 8 45 14 71 0c27 -14 62 -40 88 -61c7 -6 7 -11 -1 -14c-13 -5 -33 -7 -52 1c-25 10 -72 39 -107 59c-10 6 -5 12 1 15z" glyph-name="Kjecyrillic" horiz-adv-x="450"/>
<glyph unicode="Ў" d="M189 73c36 5 60 3 96 9c110 266 271 534 289 534c11 0 19 -24 19 -46c0 -64 -214 -428 -256 -524c-8 -18 -13 -24 -32 -27c-22 -2 -46 -4 -74 -5c-1 -1 -2 -2 -2 -3c-58 -94 -74 -137 -91 -178c-4 -10 -11 -12 -18 -4c-16 18 -24 49 -5 111c6 19 13 37 22 55 c-24 -5 -42 -10 -50 -13c-19 -5 -30 -5 -42 10c-8 9 -14 24 -21 37c-9 17 -9 30 1 57c57 150 208 440 264 519c9 12 18 10 24 -1c15 -28 12 -77 -25 -148c-29 -56 -71 -127 -114 -210c-34 -62 -64 -127 -96 -196c21 6 45 14 111 23z" glyph-name="Ushortcyrillic" horiz-adv-x="488"/>
<glyph unicode="Џ" d="M27 -6c112 274 174 354 261 531c18 43 -1 75 -18 91c-9 8 -17 6 -26 -9c-79 -133 -194 -370 -243 -505c-20 -54 -13 -93 4 -112c7 -8 19 -6 22 4zM529 611c-119 -185 -217 -445 -240 -517c-17 -54 -5 -97 11 -109c10 -8 12 -7 16 3c50 138 161 378 220 476 c45 75 31 115 16 145c-6 11 -15 14 -23 2zM43 83c0 -3 -18 -55 -21 -95c37 17 294 274 456 447l69 148c-199 -217 -504 -497 -504 -500zM364 743c6 5 12 4 16 -3c18 -31 40 -38 66 -38c21 0 44 10 65 35c7 8 11 7 14 0c4 -10 1 -33 -16 -51c-19 -20 -46 -31 -78 -31 c-27 0 -49 7 -65 24c-18 20 -19 50 -2 64z" glyph-name="Dzhecyrillic" horiz-adv-x="450"/>
<glyph unicode="А" d="M313 157c-71 -5 -152 -17 -199 -16c-30 -51 -56 -100 -76 -144c-4 -9 -13 -9 -18 -2c-12 16 -16 46 5 102c6 15 15 35 27 57c-22 12 -30 27 -33 34c-5 13 -3 17 12 15c14 -2 29 -4 45 -5c78 136 217 334 323 421c16 13 26 13 36 -1s13 -16 23 -41c10 -24 9 -46 0 -73 c-26 -79 -54 -181 -73 -291c30 -10 41 -30 45 -51c2 -9 -2 -12 -11 -9c-12 3 -26 5 -43 6c-7 -52 -13 -107 -15 -160c0 -10 -6 -13 -15 -9c-20 9 -36 34 -37 91c0 20 1 46 4 76zM152 201c61 5 122 16 169 17c15 104 43 230 74 308c-76 -85 -167 -206 -243 -325z" glyph-name="Acyrillic" horiz-adv-x="442"/>
<glyph unicode="Б" d="M80 182c1 2 4 73 17 80c50 28 101 47 181 47c92 0 149 -53 148 -122c-2 -157 -241 -204 -297 -204c-54 0 -121 42 -121 98c0 78 141 337 230 471c11 2 20 3 27 3c23 0 31 -9 31 -23c0 -39 -89 -178 -141 -274c-31 -57 -86 -156 -86 -197c0 -15 8 -22 25 -22 c42 0 285 59 285 158c0 60 -58 60 -85 60c-75 1 -145 -31 -214 -75zM417 535l-61 -10c-26 -4 -49 -7 -69 -7c-52 0 -107 24 -107 62c0 5 3 8 9 8c9 0 18 -1 28 -1c89 0 227 29 282 29c33 0 101 -11 101 -57c0 -5 -3 -9 -11 -9c-10 0 -20 1 -30 1c-44 1 -95 -8 -142 -16z" glyph-name="Becyrillic" horiz-adv-x="454"/>
<glyph unicode="В" d="M213 511c-40 2 -61 24 -68 40c-5 11 -2 16 10 17c70 6 160 55 227 59c51 3 100 -13 118 -81c18 -67 -1 -123 -35 -167c-29 -37 -82 -87 -156 -119c19 -9 35 -23 48 -42c21 -31 20 -90 -23 -137c-44 -48 -119 -83 -175 -93c-38 -7 -62 -6 -84 5c-20 10 -38 27 -51 46 c-15 22 -25 38 -2 102c40 112 116 258 191 370zM167 288c198 46 321 181 296 249c-20 52 -119 6 -188 -16c2 -22 -5 -52 -30 -98c-20 -37 -49 -84 -78 -135zM244 238c-14 -3 -28 -5 -42 -7c-28 -3 -48 0 -62 7c-27 -52 -52 -105 -67 -155c-11 -35 0 -47 32 -43 c64 8 150 49 193 102c37 46 37 91 -54 96z" glyph-name="Vecyrillic" horiz-adv-x="454"/>
<glyph unicode="Г" d="M214 526c-23 11 -34 31 -39 51c-2 8 1 12 11 12c83 -4 189 25 245 25c43 0 69 -20 82 -51c3 -8 1 -15 -12 -15c-75 1 -145 -19 -206 -28c-35 -57 -82 -138 -131 -228l-44 -83c-38 -74 -75 -149 -104 -216c-4 -10 -10 -10 -17 -4c-19 16 -29 48 -8 110 c30 88 135 284 223 427z" glyph-name="Gecyrillic" horiz-adv-x="363"/>
<glyph unicode="Д" d="M210 501c-39 2 -59 27 -65 42c-4 11 -3 17 10 19c69 9 119 49 184 59c64 10 114 -23 151 -88c92 -160 -86 -452 -354 -541c-29 -10 -47 -7 -64 7c-12 10 -28 23 -42 43c-19 26 -24 41 -3 106c31 94 114 250 183 353zM263 511c5 -25 -1 -61 -26 -105 c-50 -89 -131 -222 -160 -314c-13 -42 -6 -56 24 -45c273 104 399 390 340 484c-35 56 -108 3 -178 -20z" glyph-name="Decyrillic" horiz-adv-x="483"/>
<glyph unicode="Е" d="M218 525c-25 10 -36 30 -42 51c-2 9 1 13 11 12c83 -5 193 24 249 25c42 1 64 -16 76 -49c3 -8 1 -15 -11 -13c-72 1 -142 -17 -203 -27c-40 -60 -89 -147 -138 -236c27 5 53 7 71 8c50 2 72 -14 82 -45c3 -9 3 -15 -10 -15c-54 0 -129 -14 -185 -28 c-29 -56 -56 -111 -77 -158c48 15 114 29 155 31c49 2 74 -14 85 -44c3 -9 2 -15 -10 -15c-56 1 -165 -25 -221 -40c-19 -5 -30 -5 -42 10c-8 9 -14 24 -21 37c-9 17 -9 30 1 57c46 123 146 309 230 439z" glyph-name="Iecyrillic" horiz-adv-x="368"/>
<glyph unicode="Ж" d="M406 210c-35 -67 -70 -142 -103 -219c-4 -9 -10 -11 -16 -3c-15 21 -23 50 -5 110c25 85 197 424 258 509c9 12 16 11 24 -2c13 -23 18 -71 -23 -146c-26 -47 -59 -106 -95 -173c131 98 271 223 366 326c7 8 15 7 19 -2c6 -22 5 -56 -31 -105 c-45 -61 -181 -183 -316 -278c32 -51 59 -97 71 -125c24 -57 15 -92 0 -111c-6 -7 -13 -7 -18 2c-38 74 -82 146 -131 217zM296 251l79 1c-5 -11 -13 -23 -22 -36c-29 -39 -112 -103 -202 -161c-36 -23 -73 -42 -109 -42c-29 0 -53 14 -53 27c0 5 6 8 16 13 c87 43 202 124 291 198zM340 387l24 -161l-75 9l-14 85c-14 96 -28 195 -50 282c-2 10 3 16 13 14c25 -4 58 -23 77 -89c8 -29 16 -80 25 -140z" glyph-name="Zhecyrillic" horiz-adv-x="678"/>
<glyph unicode="З" d="M-30 79c-17 23 -22 39 -22 50c0 13 8 18 13 18c8 0 11 -3 22 -17c47 -59 82 -90 165 -90c92 0 219 86 219 153c0 24 -22 42 -77 45c-21 -5 -45 -8 -65 -8c-26 0 -48 7 -48 22s18 32 36 36c181 44 299 159 299 230c0 30 -18 41 -46 41c-46 0 -118 -29 -178 -44 c-9 -2 -18 -3 -26 -3c-54 0 -73 40 -73 47c0 6 4 8 12 9c74 6 170 59 238 59c55 0 114 -29 114 -132c0 -45 -17 -84 -42 -116c-29 -37 -82 -87 -156 -119c30 -15 61 -44 61 -91c0 -114 -152 -185 -251 -185c-72 0 -140 21 -195 95z" glyph-name="Zecyrillic" horiz-adv-x="500"/>
<glyph unicode="И" d="M27 -6c-3 -10 -15 -12 -22 -4c-17 19 -24 58 -4 112c49 135 164 372 243 505c9 15 17 17 26 9c17 -16 36 -48 18 -91c-87 -177 -149 -257 -261 -531zM529 611c8 12 17 9 23 -2c15 -30 29 -70 -16 -145c-59 -98 -170 -338 -220 -476c-4 -10 -6 -11 -16 -3 c-16 12 -28 55 -11 109c23 72 121 332 240 517zM43 83c0 3 305 283 504 500l-69 -148c-162 -173 -419 -430 -456 -447c3 40 21 92 21 95z" glyph-name="Iicyrillic" horiz-adv-x="450"/>
<glyph unicode="Й" d="M27 -6c112 274 174 354 261 531c18 43 -1 75 -18 91c-9 8 -17 6 -26 -9c-79 -133 -194 -370 -243 -505c-20 -54 -13 -93 4 -112c7 -8 19 -6 22 4zM529 611c-119 -185 -217 -445 -240 -517c-17 -54 -5 -97 11 -109c10 -8 12 -7 16 3c50 138 161 378 220 476 c45 75 31 115 16 145c-6 11 -15 14 -23 2zM43 83c0 -3 -18 -55 -21 -95c37 17 294 274 456 447l69 148c-199 -217 -504 -497 -504 -500zM363 733c6 5 12 4 16 -3c18 -31 40 -38 66 -38c21 0 44 10 65 35c7 8 11 7 14 0c4 -10 1 -33 -16 -51c-19 -20 -46 -31 -78 -31 c-27 0 -49 7 -65 24c-18 20 -19 50 -2 64z" glyph-name="Iishortcyrillic" horiz-adv-x="450"/>
<glyph unicode="К" d="M125 210c-35 -67 -70 -142 -103 -219c-4 -9 -10 -11 -16 -3c-15 21 -23 50 -5 110c25 85 197 424 258 509c9 12 16 11 24 -2c13 -23 18 -71 -23 -146c-26 -47 -59 -106 -95 -173c131 98 271 223 366 326c7 8 15 7 19 -2c6 -22 5 -56 -31 -105 c-45 -61 -181 -183 -316 -278c32 -51 59 -97 71 -125c24 -57 15 -92 0 -111c-6 -7 -13 -7 -18 2c-38 74 -82 146 -131 217z" glyph-name="Kacyrillic" horiz-adv-x="397"/>
<glyph unicode="Л" d="M309 81c0 139 36 309 86 445c-111 -132 -280 -359 -357 -529c-4 -9 -13 -9 -18 -2c-12 16 -16 46 5 102c67 167 245 416 374 522c16 13 26 13 36 -1s13 -16 23 -41c10 -24 9 -46 0 -73c-63 -193 -91 -351 -97 -505c0 -10 -6 -13 -15 -9c-20 9 -36 34 -37 91z" glyph-name="Elcyrillic" horiz-adv-x="442"/>
<glyph unicode="М" d="M269 435c-89 -134 -201 -313 -260 -447c-4 -10 -10 -10 -17 -2c-14 15 -25 49 -2 109c37 95 199 362 307 509c9 13 19 17 32 6c39 -34 50 -69 24 -148c-32 -96 -68 -213 -106 -353c109 178 255 327 365 498c9 14 17 15 29 3c40 -41 30 -96 3 -146 c-70 -130 -170 -332 -220 -476c-4 -10 -8 -10 -16 -3c-16 13 -28 43 -11 109c15 59 79 199 144 324c-114 -138 -230 -291 -302 -425c-5 -10 -10 -13 -18 -7c-33 24 -48 59 -38 121c9 57 42 195 86 328z" glyph-name="Emcyrillic" horiz-adv-x="573"/>
<glyph unicode="Н" d="M558 465c-30 -54 -69 -121 -112 -199c23 -10 34 -27 39 -44c1 -8 -1 -13 -11 -11c-16 3 -35 4 -56 3c-34 -65 -69 -137 -102 -212c-4 -10 -11 -11 -17 -2c-14 20 -23 49 -3 110c7 20 22 55 42 96c-73 -9 -150 -22 -197 -22c-31 -62 -62 -128 -91 -195 c-4 -10 -12 -13 -18 -4c-15 21 -22 49 -5 110c6 21 23 57 43 102c-22 10 -30 24 -34 32c-6 12 -4 16 13 15c15 -1 29 -3 42 -3c64 133 157 306 198 364c9 12 18 10 24 -1c15 -28 12 -77 -25 -148c-29 -56 -70 -127 -114 -210c69 9 131 26 197 30c65 129 153 288 193 341 c10 13 19 12 25 -1c14 -29 11 -76 -31 -151z" glyph-name="Encyrillic" horiz-adv-x="488"/>
<glyph unicode="О" d="M476 597c124 -54 96 -251 21 -389c-81 -149 -207 -266 -343 -216c-82 30 -114 105 -114 187c0 213 187 398 300 438c58 20 108 9 136 -20zM424 236c91 167 87 317 32 337c-49 18 -176 -50 -270 -196c-96 -149 -98 -318 -30 -347c66 -28 184 52 268 206z" glyph-name="Ocyrillic" horiz-adv-x="537"/>
<glyph unicode="П" d="M174 246c-31 -62 -95 -190 -124 -257c-4 -10 -12 -13 -18 -4c-15 21 -22 49 -5 110c6 21 23 57 43 102l21 44c52 107 122 241 169 319l61 -9c-3 -26 -13 -57 -33 -95c-29 -56 -70 -127 -114 -210zM520 547c-43 0 -97 -15 -144 -22c-34 -5 -43 -6 -61 -7 c-60 -2 -103 20 -114 57c-3 9 1 14 11 13c89 -7 255 30 312 28c13 0 25 -1 36 -4c62 -14 38 -75 -2 -147c-30 -54 -69 -121 -112 -199l-28 -52c-34 -65 -69 -137 -102 -212c-4 -10 -11 -11 -17 -2c-14 20 -23 49 -3 110c7 20 22 55 42 96c48 96 128 248 182 341z" glyph-name="Pecyrillic" horiz-adv-x="488"/>
<glyph unicode="Р" d="M206 509c-34 4 -53 21 -63 42c-5 11 -3 17 10 18c83 9 158 51 226 54c51 2 95 -14 119 -83c21 -60 4 -118 -30 -171c-50 -78 -158 -153 -289 -178c-23 -4 -45 0 -62 10c-28 -55 -58 -121 -93 -204c-4 -10 -9 -10 -16 -3c-14 15 -24 45 -9 99c26 91 120 279 207 416z M146 257c224 42 336 204 309 274c-21 55 -121 3 -187 -16c0 -27 -10 -62 -38 -110c-26 -46 -54 -92 -84 -148z" glyph-name="Ercyrillic" horiz-adv-x="425"/>
<glyph unicode="С" d="M388 206c5 11 16 11 21 -2c25 -67 -39 -142 -81 -172c-71 -51 -155 -50 -209 -21c-45 24 -84 86 -86 168c-4 212 174 393 286 436c54 21 103 25 135 -3c22 -19 45 -48 53 -73c9 -29 6 -57 -9 -88s-29 -70 -40 -99c-3 -8 -10 -14 -22 -6c-23 15 -39 46 -24 96 c16 53 52 110 29 134c-28 30 -180 -51 -270 -200c-88 -146 -78 -294 -29 -334c64 -52 170 15 246 164z" glyph-name="Escyrillic" horiz-adv-x="462"/>
<glyph unicode="Т" d="M276 525c-23 -4 -43 -6 -61 -7c-60 -2 -103 20 -114 57c-3 9 1 14 11 13c89 -7 255 30 312 28c42 -1 80 -12 95 -51c3 -8 1 -16 -12 -15c-49 5 -112 -5 -170 -15c1 -24 -6 -57 -33 -106c-60 -109 -145 -249 -223 -432c-4 -10 -9 -10 -16 -3c-14 13 -26 43 -13 91 c23 82 131 299 224 440z" glyph-name="Tecyrillic" horiz-adv-x="403"/>
<glyph unicode="У" d="M294 268l-58 -51c-38 107 -52 235 -51 382c0 17 8 19 17 15c27 -12 48 -34 55 -107c8 -86 7 -136 37 -239zM235 244l12 13c124 137 213 283 251 350c5 9 9 10 11 10c7 0 23 -17 23 -55c0 -58 -59 -152 -224 -344c-59 -68 -187 -220 -292 -220c-23 0 -37 12 -37 19 s4 8 9 11c103 66 158 121 231 199z" glyph-name="Ucyrillic" horiz-adv-x="379"/>
<glyph unicode="Ф" d="M485 607c91 0 153 -65 153 -133c0 -175 -156 -326 -377 -326c-167 0 -221 77 -221 156c0 195 189 325 363 325c62 0 63 -8 82 -22zM241 181c156 0 326 156 326 315c0 70 -34 95 -126 95c-136 0 -325 -165 -325 -303c0 -74 38 -107 125 -107zM462 657c9 13 18 11 24 -1 c14 -29 13 -77 -30 -153c-62 -109 -216 -392 -289 -556c-4 -10 -8 -11 -16 -2c-14 15 -26 50 -4 111c49 136 234 484 315 601z" glyph-name="Efcyrillic" horiz-adv-x="608"/>
<glyph unicode="Ц" d="M289 86c56 146 213 449 275 531c10 13 19 12 25 -1c14 -29 11 -76 -31 -151c-68 -122 -140 -242 -201 -372c9 1 18 2 26 2c17 0 22 -4 29 -14s12 -24 18 -36c7 -14 7 -22 -1 -34c-58 -94 -74 -137 -91 -178c-4 -10 -11 -12 -18 -4c-16 18 -24 49 -5 111 c10 31 23 59 45 89c-53 -9 -243 -33 -273 -47c-19 -5 -30 -5 -42 10c-8 9 -14 24 -21 37c-9 17 -9 30 1 57c57 150 208 440 264 519c9 12 18 10 24 -1c15 -28 12 -77 -25 -148c-29 -56 -71 -127 -114 -210c-34 -62 -64 -127 -96 -196c29 9 65 18 211 36z" glyph-name="Tsecyrillic" horiz-adv-x="488"/>
<glyph unicode="Ч" d="M407 383c45 83 131 242 152 242c11 0 20 -25 20 -48c0 -29 -10 -66 -38 -115c-62 -109 -172 -302 -245 -466c-2 -6 -4 -8 -7 -8c-8 0 -25 21 -25 56c0 34 19 81 45 142c-15 -4 -31 -6 -46 -6c-79 0 -147 44 -147 122c0 83 97 215 165 314c4 6 8 9 12 9 c11 0 20 -25 20 -48c0 -29 -10 -66 -38 -115c-54 -94 -95 -135 -95 -187c0 -42 36 -62 61 -62c66 0 116 78 166 170z" glyph-name="Checyrillic" horiz-adv-x="471"/>
<glyph unicode="Ш" d="M68 50c38 12 89 23 128 28c40 118 260 548 291 548c11 0 19 -24 19 -46c0 -62 -70 -165 -150 -314l-28 -52c-23 -43 -46 -88 -68 -136c34 2 79 6 128 14c110 266 271 534 289 534c11 0 19 -24 19 -46c0 -64 -214 -428 -256 -524c-8 -18 -13 -24 -32 -27 c-33 -2 -71 -6 -122 -7c-44 -1 -153 -25 -209 -40c-19 -5 -30 -5 -42 10c-8 9 -14 24 -21 37c-9 17 -9 30 1 57c6 16 10 33 66 155c64 138 187 372 210 372c12 0 20 -24 20 -47c0 -68 -70 -171 -147 -320c-16 -30 -39 -76 -96 -196z" glyph-name="Shacyrillic" horiz-adv-x="580"/>
<glyph unicode="Щ" d="M458 29c-126 -6 -244 -10 -381 -47c-19 -5 -30 -5 -42 10c-8 9 -14 24 -21 37c-9 17 -9 30 1 57c6 16 10 33 66 155c64 138 187 372 210 372c12 0 20 -24 20 -47c0 -68 -70 -171 -147 -320c-16 -30 -39 -76 -96 -196c38 12 89 23 128 28c40 118 260 548 291 548 c11 0 19 -24 19 -46c0 -62 -70 -165 -150 -314l-28 -52c-23 -43 -46 -88 -68 -136c34 2 79 6 128 14c110 266 271 534 289 534c11 0 19 -24 19 -46c0 -52 -141 -302 -241 -487c9 1 18 2 26 2c17 0 22 -4 29 -14s12 -24 18 -36c7 -14 7 -22 -1 -34c-58 -94 -74 -137 -91 -178 c-4 -10 -11 -12 -18 -4c-16 18 -24 49 -5 111c10 31 23 59 45 89z" glyph-name="Shchacyrillic" horiz-adv-x="587"/>
<glyph unicode="Ъ" d="M266 310l-6 -12c24 7 51 12 75 12c77 0 117 -55 117 -126c0 -138 -158 -204 -222 -204c-70 0 -89 36 -101 66l-23 -52c-4 -10 -10 -11 -16 -3c-15 20 -25 49 -5 110c14 46 73 167 135 281c16 29 31 58 74 132c5 8 10 16 14 24c-30 -6 -59 -12 -91 -16 c-26 -3 -65 -1 -81 6c-23 10 -34 31 -39 51c-2 8 1 12 11 12c121 0 154 24 235 24c17 0 22 -4 29 -14s12 -24 18 -36c7 -14 7 -22 -1 -34c0 0 -10 -14 -13 -20c-35 -67 -73 -132 -110 -201zM347 250c-37 0 -77 -11 -133 -37l-59 -110c2 -28 19 -63 54 -63 c57 0 196 70 196 157c0 30 -14 53 -58 53z" glyph-name="Hardsigncyrillic" horiz-adv-x="473"/>
<glyph unicode="Ы" d="M709 616c9 13 18 11 24 -1c14 -29 13 -77 -30 -153c-62 -109 -172 -302 -245 -466c-4 -10 -8 -11 -16 -2c-14 15 -26 50 -4 111c49 136 190 394 271 511zM107 40c57 0 196 70 196 157c0 30 -14 53 -58 53c-46 0 -99 -17 -179 -60c1 2 -5 64 6 72c18 14 97 48 161 48 c77 0 117 -55 117 -126c0 -138 -158 -204 -222 -204c-70 0 -89 36 -101 66l-23 -52c-4 -10 -10 -11 -16 -3c-15 20 -25 49 -5 110c27 83 198 410 267 506c9 13 17 13 25 -1c15 -28 15 -73 -26 -148c-15 -28 -33 -54 -64 -109l-132 -246c2 -28 19 -63 54 -63z" glyph-name="Yericyrillic" horiz-adv-x="625"/>
<glyph unicode="Ь" d="M107 40c57 0 196 70 196 157c0 30 -14 53 -58 53c-46 0 -99 -17 -179 -60c1 2 -5 64 6 72c18 14 97 48 161 48c77 0 117 -55 117 -126c0 -138 -158 -204 -222 -204c-70 0 -89 36 -101 66l-23 -52c-4 -10 -10 -11 -16 -3c-15 20 -25 49 -5 110c27 83 198 410 267 506 c9 13 17 13 25 -1c15 -28 15 -73 -26 -148c-15 -28 -33 -54 -64 -109l-132 -246c2 -28 19 -63 54 -63z" glyph-name="Softsigncyrillic" horiz-adv-x="381"/>
<glyph unicode="Э" d="M266 476c31 64 56 93 102 137c33 31 58 22 108 -16c124 -54 96 -251 21 -389c-81 -149 -207 -266 -343 -216c-82 30 -114 105 -114 187c0 50 11 99 28 145c43 -1 65 -48 53 -96c-24 -97 -10 -179 35 -198c66 -28 184 52 268 206c91 167 87 317 32 337 c-36 13 -35 -13 -111 -86c-24 -22 -42 -28 -62 -28c-15 0 -22 6 -17 17zM419 184c-73 -9 -120 -16 -169 13c-21 12 -30 24 -34 32c-6 12 -4 16 13 15c15 -1 29 -3 42 -3c68 -1 119 17 185 21s-37 -78 -37 -78z" glyph-name="Ereversedcyrillic" horiz-adv-x="537"/>
<glyph unicode="Ю" d="M679 597c124 -54 96 -251 21 -389c-81 -149 -207 -266 -343 -216c-82 30 -114 105 -114 187c0 213 187 398 300 438c58 20 108 9 136 -20zM627 236c91 167 87 317 32 337c-49 18 -176 -50 -270 -196c-96 -149 -98 -318 -30 -347c66 -28 184 52 268 206zM272 616 c9 13 18 11 24 -1c14 -29 13 -77 -30 -153c-62 -109 -172 -302 -245 -466c-4 -10 -8 -11 -16 -2c-14 15 -26 50 -4 111c49 136 190 394 271 511zM117 269l27 70c60 3 126 10 176 9l-20 -67c-66 -3 -144 -13 -183 -12z" glyph-name="IUcyrillic" horiz-adv-x="740"/>
<glyph unicode="Я" d="M500 595c53 0 67 -38 64 -74c17 30 34 55 43 64c11 11 18 9 25 -3c14 -24 10 -68 -22 -128c-128 -237 -158 -271 -230 -457c-4 -10 -9 -10 -16 -3c-14 13 -26 43 -13 91c8 28 31 80 56 135c-30 -10 -46 -14 -81 -14c-90 0 -125 68 -125 130c0 156 172 259 299 259z M507 538c-80 0 -257 -110 -257 -223c0 -35 28 -58 60 -58c52 0 84 17 136 51l44 84c46 87 63 146 17 146zM275 244l78 -1c-5 -11 -7 -15 -16 -28c-31 -42 -183 -220 -281 -220c-23 0 -37 15 -37 22s4 8 9 11c84 49 138 100 247 216z" glyph-name="IAcyrillic" horiz-adv-x="476"/>
<glyph unicode="а" d="M324 325c13 24 25 45 36 61c9 13 17 15 24 6c15 -18 23 -61 -1 -111c-22 -45 -72 -120 -96 -173c-25 -56 -26 -99 8 -97c41 2 96 70 131 139c5 9 12 10 16 1s4 -34 -9 -62c-26 -55 -89 -110 -144 -107c-54 3 -82 35 -82 82c-32 -41 -77 -78 -125 -78 c-93 0 -112 127 -29 248c81 118 160 163 210 163c43 0 63 -33 61 -72zM237 170c63 110 72 172 43 175c-32 3 -105 -62 -160 -151c-53 -86 -66 -174 -27 -175c41 -1 93 63 144 151z" glyph-name="acyrillic" horiz-adv-x="407"/>
<glyph unicode="б" d="M315 202c-18 -86 -84 -186 -158 -211c-36 -12 -86 -8 -126 44c-44 58 -29 145 16 225c38 68 99 126 159 130c31 2 48 -7 68 -34c23 -31 53 -38 47 -110c-1 -8 0 -15 -6 -44zM256 242c7 31 11 56 8 74c-5 32 -51 24 -80 -1c-27 -23 -56 -56 -77 -94 c-42 -76 -57 -168 -31 -190c28 -23 89 12 138 104c15 28 35 77 42 107zM133 345c-6 -14 -97 -106 -94 -100c87 193 148 274 281 345c43 23 94 51 127 104c6 9 12 9 15 -3c6 -24 -3 -76 -35 -107c-63 -63 -237 -97 -294 -239z" glyph-name="becyrillic" horiz-adv-x="365"/>
<glyph unicode="в" d="M64 128c1 59 29 106 105 286c63 131 126 293 207 325c20 8 40 5 58 -21c21 -30 39 -65 20 -124c-29 -90 -115 -151 -214 -189c-10 -22 -19 -46 -29 -69c29 29 64 50 101 50c92 0 92 -134 39 -245c-60 -126 -112 -154 -165 -154c-69 0 -123 47 -122 141zM159 205 c-51 -97 -41 -183 -4 -181c47 3 99 68 140 156c43 92 45 174 5 175c-39 1 -94 -60 -141 -150zM257 446c130 76 174 213 157 237c-13 19 -92 -85 -157 -237zM287 447c1 0 -118 -121 -190 -137c-31 -4 -54 -2 -61 3c-10 6 -6 14 3 16c65 19 132 54 204 116c2 0 43 3 44 2z" glyph-name="vecyrillic" horiz-adv-x="409"/>
<glyph unicode="г" d="M36 284c45 48 153 113 186 108s64 -54 39 -106c-21 -44 -70 -118 -93 -170c-26 -58 -20 -105 16 -103c41 2 90 68 128 138c5 9 12 9 17 1c7 -11 5 -34 -9 -63c-27 -56 -90 -107 -148 -107c-85 0 -105 62 -76 149c33 98 118 194 100 202c-10 4 -95 -24 -159 -94 c-28 -27 -13 35 -1 45z" glyph-name="gecyrillic" horiz-adv-x="300"/>
<glyph unicode="д" d="M415 90c-39 -61 -111 -101 -194 -131c-55 -134 -126 -293 -207 -325c-20 -8 -40 -5 -58 21c-21 30 -39 65 -20 124c29 90 115 151 214 189c10 22 19 46 29 69c-29 -29 -64 -50 -101 -50c-92 0 -110 125 -29 245c78 116 159 161 210 161c40 0 60 -31 59 -66 c12 20 23 38 33 55c8 14 18 15 25 6c15 -18 23 -61 -2 -110c-30 -60 -93 -181 -135 -278c84 42 139 97 179 150c6 8 15 8 17 -2c2 -9 -3 -31 -20 -58zM231 168c63 110 72 172 43 174c-31 2 -104 -62 -159 -149c-54 -86 -65 -174 -25 -175c39 -1 90 62 141 150zM133 -73 c-130 -76 -174 -213 -157 -237c13 -19 92 85 157 237z" glyph-name="decyrillic" horiz-adv-x="401"/>
<glyph unicode="е" d="M92 171c-32 -92 -8 -155 45 -158c83 -4 156 76 199 142c5 8 13 8 17 -1c4 -8 1 -36 -17 -62c-42 -61 -119 -107 -196 -108c-127 -2 -171 123 -106 252s167 181 217 152c25 -15 43 -30 59 -52c18 -24 10 -85 -32 -136c-49 -60 -116 -86 -186 -29zM101 193 c49 -31 90 12 119 50c32 42 54 94 40 105c-21 17 -104 -43 -151 -138c-3 -6 -6 -12 -8 -17z" glyph-name="iecyrillic" horiz-adv-x="320"/>
<glyph unicode="ж" d="M721 386c27 -16 43 -32 55 -55c21 -42 -19 -95 -39 -149c-4 -12 -8 -15 -21 -8c-24 12 -38 42 -24 87c11 36 41 79 27 90c-17 14 -92 -50 -137 -141c-55 -113 -34 -196 25 -197c84 -1 156 79 197 142c5 8 14 9 18 -1c3 -8 -1 -33 -18 -60c-38 -59 -117 -108 -193 -109 c-127 -2 -170 122 -105 251c64 126 165 180 215 150zM539 246l-8 -45c-52 -25 -325 -54 -325 -54c-29 -6 -19 38 13 45c0 0 274 28 320 54zM453 271c-13 -29 -36 -68 -56 -105c-29 -57 -57 -115 -82 -170c-4 -10 -8 -11 -16 -2c-14 15 -25 50 -4 111c34 98 98 217 135 269 c9 12 16 15 24 6c15 -16 23 -59 -1 -109zM214 349c-27 9 -27 -12 -86 -70c-18 -17 -32 -22 -48 -22c-12 0 -17 5 -13 13c24 51 43 74 79 109c21 20 63 20 89 -26c26 -30 50 -35 44 -107c-1 -8 -1 -15 -2 -23l-4 -21c-21 -85 -84 -186 -158 -211c-36 -12 -86 -8 -126 44 c-28 37 -16 78 -2 115c8 24 58 -5 49 -54c-5 -29 -14 -56 -2 -65c28 -23 89 12 138 104c15 28 36 80 42 107c7 32 17 101 0 107z" glyph-name="zhecyrillic" horiz-adv-x="785"/>
<glyph unicode="з" d="M205 3c4 21 3 39 -6 51c-14 18 -75 12 -125 -23c-7 -5 -14 -7 -17 1c-15 43 8 74 43 94c150 86 214 184 187 218s-163 -37 -240 -133c-6 -8 -13 -5 -15 3c-8 26 4 72 41 108c40 39 97 67 145 73c45 6 74 0 99 -36c24 -34 27 -80 -4 -133c-26 -44 -83 -93 -148 -134 c24 1 47 -5 63 -20c14 -13 22 -30 26 -49c46 24 88 68 120 129c4 8 14 9 18 0c4 -8 0 -36 -14 -62c-23 -43 -80 -77 -122 -95c0 -107 -104 -258 -167 -293c-20 -11 -41 -17 -66 14c-21 26 -47 61 -23 117c37 86 120 135 205 170zM196 -30c-133 -75 -175 -197 -156 -220 c18 -21 122 119 156 220z" glyph-name="zecyrillic" horiz-adv-x="353"/>
<glyph unicode="и" d="M196 81c-35 -47 -88 -98 -144 -94c-71 5 -73 79 -51 145s73 164 138 255c8 11 18 10 26 1c22 -33 17 -78 -19 -135c-37 -59 -57 -99 -78 -147c-21 -49 -18 -85 5 -87c39 -3 94 67 148 154c63 102 92 171 124 214c10 14 17 16 25 6c15 -18 23 -62 -1 -112 c-22 -45 -72 -120 -95 -171c-26 -57 -22 -99 14 -97c42 2 93 68 132 138c5 9 14 10 18 1c4 -8 5 -35 -9 -63c-29 -56 -91 -107 -150 -107c-65 0 -91 41 -83 99z" glyph-name="iicyrillic"/>
<glyph unicode="й" d="M196 81c-35 -47 -88 -98 -144 -94c-71 5 -73 79 -51 145s73 164 138 255c8 11 18 10 26 1c22 -33 17 -78 -19 -135c-37 -59 -57 -99 -78 -147c-21 -49 -18 -85 5 -87c39 -3 94 67 148 154c63 102 92 171 124 214c10 14 17 16 25 6c15 -18 23 -62 -1 -112 c-22 -45 -72 -120 -95 -171c-26 -57 -22 -99 14 -97c42 2 93 68 132 138c5 9 14 10 18 1c4 -8 5 -35 -9 -63c-29 -56 -91 -107 -150 -107c-65 0 -91 41 -83 99zM223 513c6 5 12 4 16 -3c18 -31 40 -38 66 -38c21 0 44 10 65 35c7 8 11 7 14 0c4 -10 1 -33 -16 -51 c-19 -20 -46 -31 -78 -31c-27 0 -49 7 -65 24c-18 20 -19 50 -2 64z" glyph-name="iishortcyrillic"/>
<glyph unicode="к" d="M142 209c85 31 150 85 214 161c28 33 47 -14 25 -53c-35 -62 -80 -110 -188 -155c4 -82 32 -139 70 -143c41 -4 96 73 126 135c6 12 15 13 20 1s3 -36 -12 -61c-24 -42 -70 -106 -149 -105c-70 1 -129 58 -127 193c0 18 2 20 21 27zM160 372c8 -20 17 -43 -5 -87 c-37 -74 -66 -101 -143 -285c-3 -8 -11 -10 -18 -2c-15 17 -20 49 -1 110c28 91 51 147 140 268c9 12 20 14 27 -4z" glyph-name="kacyrillic" horiz-adv-x="367"/>
<glyph unicode="л" d="M280 13c41 2 90 68 128 138c5 9 12 9 17 1c7 -11 5 -34 -9 -63c-27 -56 -90 -107 -148 -107c-92 0 -124 54 -37 229l-8 1c-85 -162 -150 -228 -204 -228c-71 0 -63 66 -44 115c12 32 62 45 47 18c-25 -45 -30 -104 -6 -104c26 0 75 60 180 224l105 163c10 14 27 16 35 6 c15 -18 16 -56 3 -91l-79 -212c-23 -59 -19 -92 20 -90z" glyph-name="elcyrillic" horiz-adv-x="365"/>
<glyph unicode="м" d="M529 13c41 0 90 68 128 138c2 5 6 7 9 7c6 0 12 -9 12 -23c0 -67 -89 -153 -161 -153c-142 0 -77 146 -37 229l-8 1c-71 -128 -121 -210 -209 -210c-114 0 -75 113 -33 209l-8 1c-82 -148 -141 -227 -204 -228c-43 -1 -57 24 -57 55c0 41 21 92 55 92c5 0 8 -1 8 -6 c0 -2 -1 -5 -3 -8c-14 -25 -22 -55 -22 -76c0 -17 5 -28 16 -28c32 0 77 65 180 224l105 163c6 8 14 12 21 12c18 0 26 -25 26 -49c0 -15 -3 -31 -9 -48c-45 -130 -82 -217 -82 -248c0 -20 10 -34 24 -34c33 0 65 48 165 204l105 163c6 8 14 12 21 12c18 0 26 -25 26 -49 c0 -15 -3 -32 -88 -260c-10 -28 -32 -90 20 -90z" glyph-name="emcyrillic" horiz-adv-x="614"/>
<glyph unicode="н" d="M157 288c-43 -76 -109 -199 -152 -293c-4 -9 -10 -13 -19 -4c-20 20 -26 53 -10 103c20 63 97 202 160 295c7 11 15 10 21 0c15 -25 19 -68 0 -101zM261 246l-8 -45c-52 -25 -245 -54 -245 -54c-29 -6 -19 38 13 45c0 0 194 28 240 54zM250 -15c-76 0 -95 64 -67 146 c25 73 91 191 128 243c9 12 16 15 24 6c15 -16 23 -59 -1 -109c-21 -44 -63 -112 -84 -162c-24 -58 -22 -97 10 -95c45 2 100 68 130 137c5 9 12 8 16 0c8 -16 5 -37 -7 -62c-30 -62 -93 -104 -149 -104z" glyph-name="encyrillic" horiz-adv-x="384"/>
<glyph unicode="о" d="M342 215c-7 -8 -17 -12 -27 -13c-21 -85 -84 -186 -158 -211c-36 -12 -86 -8 -126 44c-44 58 -29 145 16 225c38 68 99 126 159 130c31 2 48 -7 68 -34c23 -31 53 -38 47 -110c-1 -8 -1 -15 -2 -23c6 0 12 2 20 2c7 0 7 -5 3 -10zM256 242c8 31 11 56 8 74 c-5 32 -25 26 -30 -3c-5 -27 6 -56 22 -71zM249 215c-7 3 -13 7 -19 12c-21 16 -45 51 -46 88c-27 -23 -56 -56 -77 -94c-42 -76 -57 -168 -31 -190c28 -23 89 12 138 104c15 28 27 56 35 80z" glyph-name="ocyrillic" horiz-adv-x="345"/>
<glyph unicode="п" d="M160 294c45 48 113 103 146 98s64 -54 39 -106c-21 -44 -70 -118 -93 -170c-26 -58 -20 -105 16 -103c41 2 90 68 128 138c5 9 12 9 17 1c7 -11 5 -34 -9 -63c-27 -56 -90 -107 -148 -107c-85 0 -105 62 -76 149c33 98 121 204 103 212c-10 4 -68 -24 -132 -94 c-59 -64 -103 -160 -146 -254c-4 -9 -10 -13 -19 -4c-20 20 -26 53 -10 103c20 63 97 202 160 295c7 11 15 10 21 0c15 -25 14 -59 3 -95z" glyph-name="pecyrillic" horiz-adv-x="384"/>
<glyph unicode="р" d="M209 4c98 6 158 78 190 146c6 14 17 10 19 0c2 -9 4 -35 -13 -66c-38 -69 -106 -102 -178 -107c-64 -4 -106 5 -141 37c-21 19 -31 42 -34 67c-47 -86 -98 -188 -146 -299c-4 -9 -11 -11 -17 -2c-15 21 -20 49 -1 110c30 97 198 414 261 498c10 13 19 11 24 -1 c5 -13 7 -28 6 -45c44 38 103 66 146 21c48 -51 26 -140 -11 -222c-30 -66 -67 -114 -105 -137zM108 181c-25 -63 -30 -123 -2 -146c32 -26 97 47 144 143c39 80 50 163 25 175c-24 12 -86 -38 -133 -115c-11 -18 -22 -36 -34 -57z" glyph-name="ercyrillic" horiz-adv-x="389"/>
<glyph unicode="с" d="M250 386c27 -16 43 -32 55 -55c21 -42 -19 -95 -39 -149c-4 -12 -8 -15 -21 -8c-24 12 -38 42 -24 87c11 36 41 79 27 90c-17 14 -92 -50 -137 -141c-55 -113 -34 -196 25 -197c84 -1 156 79 197 142c5 8 14 9 18 -1c3 -8 -1 -33 -18 -60c-38 -59 -117 -108 -193 -109 c-127 -2 -170 122 -105 251c64 126 165 180 215 150z" glyph-name="escyrillic" horiz-adv-x="314"/>
<glyph unicode="т" d="M158 284c44 51 119 110 155 109c34 -1 52 -54 39 -98c48 47 115 94 148 93c36 -1 44 -60 24 -110c-18 -45 -67 -111 -92 -161c-28 -57 -14 -103 22 -102c41 1 86 67 125 137c5 9 13 9 18 2s2 -40 -9 -63c-28 -57 -92 -107 -150 -107c-87 0 -119 69 -82 151 c37 83 126 195 111 200c-8 3 -42 -8 -107 -73c-83 -83 -132 -179 -174 -273c-6 -12 -14 -15 -23 -5c-17 15 -31 54 -2 126c33 83 141 221 121 228c-12 5 -61 -22 -125 -92c-59 -64 -107 -157 -147 -251c-4 -9 -10 -13 -19 -5c-22 19 -27 52 -10 103c21 63 94 204 157 298 c7 11 15 10 21 0c17 -28 14 -67 -1 -107z" glyph-name="tecyrillic" horiz-adv-x="565"/>
<glyph unicode="у" d="M386 97c-39 -62 -109 -100 -192 -134c-56 -134 -127 -295 -210 -327c-19 -7 -38 -7 -57 21c-20 30 -40 65 -20 124c30 90 115 150 214 189c10 23 20 48 31 72c-31 -32 -69 -58 -109 -55c-72 6 -74 79 -51 145c22 64 71 163 136 253c8 11 18 10 25 0 c24 -32 18 -74 -19 -133c-36 -58 -58 -99 -77 -146c-20 -49 -18 -84 5 -86c39 -3 89 61 140 148c43 74 86 164 121 215c9 13 16 15 25 7c14 -18 22 -61 -4 -112c-30 -58 -91 -178 -133 -275c78 42 137 99 177 154c5 7 14 8 16 -2c2 -9 -1 -32 -18 -58zM104 -72 c-130 -75 -175 -212 -157 -237c13 -19 95 90 157 237z" glyph-name="ucyrillic" horiz-adv-x="375"/>
<glyph unicode="ф" d="M132 10c-22 -15 -47 -25 -72 -25c-93 0 -112 126 -29 248c79 115 160 161 210 161c44 0 64 -35 61 -72l3 5c9 17 18 31 26 42l14 19c10 13 19 11 24 -1c7 -18 8 -30 8 -44c44 37 101 64 144 20c48 -51 26 -140 -11 -222c-30 -66 -67 -114 -105 -137c98 6 158 78 190 146 c6 14 17 10 19 0c2 -9 4 -35 -13 -66c-38 -69 -106 -102 -178 -107c-64 -4 -106 5 -141 37c-20 18 -30 39 -34 62c-54 -98 -113 -215 -159 -325c-5 -11 -11 -12 -18 -4c-14 16 -26 35 -9 92c12 42 38 106 70 171zM471 353c-23 11 -80 -33 -126 -103l-39 -71 c-30 -54 -30 -123 -4 -144c32 -26 97 47 144 143c39 80 50 163 25 175zM223 168c63 110 72 173 43 175c-32 2 -105 -62 -160 -150c-54 -86 -66 -177 -27 -177c41 0 93 63 144 152z" glyph-name="efcyrillic" horiz-adv-x="585"/>
<glyph unicode="х" d="M421 386c27 -16 43 -32 55 -55c21 -42 -19 -95 -39 -149c-4 -12 -8 -15 -21 -8c-24 12 -38 42 -24 87c11 36 41 79 27 90c-17 14 -92 -50 -137 -141c-55 -113 -34 -196 25 -197c84 -1 156 79 197 142c5 8 14 9 18 -1c3 -8 -1 -33 -18 -60c-38 -59 -117 -108 -193 -109 c-127 -2 -170 122 -105 251c64 126 165 180 215 150zM204 349c-27 9 -27 -12 -86 -70c-18 -17 -32 -22 -48 -22c-12 0 -17 5 -13 13c24 51 43 74 79 109c21 20 63 20 89 -26c26 -30 50 -35 44 -107c-1 -8 -1 -15 -2 -23l-4 -21c-21 -85 -84 -186 -158 -211 c-36 -12 -86 -8 -126 44c-28 37 -16 78 -2 115c8 24 58 -5 49 -54c-5 -29 -14 -56 -2 -65c28 -23 89 12 138 104c15 28 36 80 42 107c7 32 17 101 0 107z" glyph-name="hacyrillic" horiz-adv-x="485"/>
<glyph unicode="ц" d="M332 -5c-18 -8 -36 -13 -53 -13c-65 0 -91 41 -83 99c-35 -47 -88 -98 -144 -94c-71 5 -73 79 -51 145s73 164 138 255c8 11 18 10 26 1c22 -33 17 -78 -19 -135c-37 -59 -57 -99 -78 -147c-21 -49 -18 -85 5 -87c39 -3 94 67 148 154c63 102 92 171 124 214 c10 14 17 16 25 6c15 -18 23 -62 -1 -112c-22 -45 -72 -120 -95 -171c-26 -57 -22 -99 14 -97c42 2 93 68 132 138c5 9 14 10 18 1c4 -8 5 -35 -9 -63c-10 -20 -25 -39 -41 -55c-9 -8 -38 -98 10 -175c21 -34 -21 -36 -41 -17c-76 65 -216 7 -260 7c-88 0 -109 58 -114 88 c-2 9 -2 17 11 14c18 -4 31 -42 98 -42c54 0 73 24 155 24c24 0 75 -9 102 -25c-11 27 -21 64 -17 87z" glyph-name="tsecyrillic" horiz-adv-x="415"/>
<glyph unicode="ч" d="M245 188c-25 -34 -82 -65 -120 -65c-54 0 -92 54 -72 115c11 31 47 99 92 162c5 8 13 8 18 1c17 -21 32 -54 6 -94c-25 -41 -40 -69 -43 -76c-21 -49 -1 -64 15 -66c27 -2 84 26 121 87c44 70 51 92 83 135c10 14 17 16 25 6c15 -18 23 -62 -1 -112 c-22 -45 -72 -120 -95 -171c-26 -57 -22 -99 14 -97c42 2 93 68 132 138c5 9 14 10 18 1c4 -8 5 -35 -9 -63c-29 -56 -91 -107 -150 -107c-118 0 -83 99 -34 206z" glyph-name="checyrillic"/>
<glyph unicode="ш" d="M-23 98c46 86 80 133 97 163c21 37 39 79 57 120c4 9 10 13 19 5c22 -19 26 -52 10 -103c-29 -90 -75 -158 -126 -230c-5 -7 -3 -11 0 -12c8 -3 42 8 107 73c83 83 132 179 174 273c6 12 13 14 23 5c16 -16 31 -54 2 -126c-33 -83 -141 -221 -121 -228 c12 -5 61 22 125 92c59 64 107 157 147 251c4 9 10 13 19 5c22 -19 27 -52 10 -103c-18 -53 -39 -97 -80 -168c-14 -24 -15 -102 15 -102c41 0 86 67 125 137c5 9 13 9 18 2s2 -40 -9 -63c-28 -57 -92 -107 -150 -107c-74 0 -108 50 -96 110c-44 -51 -119 -110 -155 -109 c-34 1 -52 54 -39 98c-48 -47 -115 -94 -148 -93c-36 1 -50 62 -24 110z" glyph-name="shacyrillic" horiz-adv-x="565"/>
<glyph unicode="щ" d="M77 -151c-88 0 -109 58 -114 88c-2 9 -2 17 11 14c18 -4 31 -42 98 -42c94 0 213 26 315 26c44 0 95 -11 122 -27c-11 27 -21 64 -17 87c-18 -8 -36 -13 -53 -13c-74 0 -108 50 -96 110c-44 -51 -119 -110 -155 -109c-34 1 -52 54 -39 98c-48 -47 -115 -94 -148 -93 c-36 1 -50 62 -24 110c46 86 80 133 97 163c21 37 39 79 57 120c4 9 10 13 19 5c22 -19 26 -52 10 -103c-29 -90 -75 -158 -126 -230c-5 -7 -3 -11 0 -12c8 -3 42 8 107 73c83 83 132 179 174 273c6 12 13 14 23 5c16 -16 31 -54 2 -126c-33 -83 -141 -221 -121 -228 c12 -5 61 22 125 92c59 64 107 157 147 251c4 9 10 13 19 5c22 -19 27 -52 10 -103c-18 -53 -44 -110 -89 -182c-3 -27 -5 -89 24 -88c54 0 99 93 125 137c5 9 13 9 18 2s2 -40 -9 -63c-10 -21 -24 -41 -42 -57c-9 -8 -37 -96 11 -173c21 -34 -21 -36 -41 -17 c-76 69 -396 7 -440 7z" glyph-name="shchacyrillic" horiz-adv-x="575"/>
<glyph unicode="ъ" d="M209 350c14 -30 -21 -96 -37 -124c15 4 30 7 45 7c49 0 67 -41 67 -73c0 -114 -81 -178 -168 -178c-85 0 -105 62 -76 149c22 69 66 127 106 200c-19 -1 -62 -10 -80 -12c-23 -3 -42 18 -55 36c-9 13 -2 20 10 22c40 6 108 20 142 20c17 0 22 -4 29 -14s11 -21 17 -33z M197 197c-15 0 -32 -5 -50 -13c-26 -46 -51 -91 -51 -128c0 -32 13 -43 32 -43c39 0 97 63 97 144c0 30 -15 40 -28 40z" glyph-name="hardsigncyrillic" horiz-adv-x="308"/>
<glyph unicode="ы" d="M341 -15c-76 0 -95 64 -67 146c25 73 91 191 128 243c9 12 16 15 24 6c15 -16 23 -59 -1 -109c-21 -44 -63 -112 -84 -162c-24 -58 -22 -97 10 -95c45 2 100 68 130 137c5 9 12 8 16 0c8 -16 5 -37 -7 -62c-30 -62 -93 -104 -149 -104zM223 150 c-4 -88 -66 -168 -168 -168c-85 0 -105 62 -76 149c27 82 83 148 128 243c2 5 11 14 18 11c10 -4 21 -29 24 -48c4 -28 -11 -63 -32 -101c6 2 13 3 20 4c24 2 36 -4 51 -20c17 -20 37 -25 35 -70zM164 148c10 -10 44 -16 72 -11c6 1 6 -4 3 -7c-11 -16 -67 -11 -94 7 c-15 11 -33 33 -34 56c-9 -2 -18 -5 -25 -9c-26 -46 -51 -91 -51 -128c0 -32 13 -43 32 -43c33 0 87 49 99 132c3 22 7 39 5 49c-4 20 -19 16 -23 -1c-4 -18 4 -35 16 -45z" glyph-name="yericyrillic" horiz-adv-x="466"/>
<glyph unicode="ь" d="M281 150c-4 -88 -66 -168 -168 -168c-85 0 -105 62 -76 149c27 82 83 148 128 243c2 5 11 14 18 11c10 -4 21 -29 24 -48c4 -28 -11 -63 -32 -101c6 2 13 3 20 4c24 2 36 -4 51 -20c17 -20 37 -25 35 -70zM222 148c10 -10 44 -16 72 -11c6 1 6 -4 3 -7 c-11 -16 -67 -11 -94 7c-15 11 -33 33 -34 56c-9 -2 -18 -5 -25 -9c-26 -46 -51 -91 -51 -128c0 -32 13 -43 32 -43c33 0 87 49 99 132c3 22 7 39 5 49c-4 20 -19 16 -23 -1c-4 -18 4 -35 16 -45z" glyph-name="softsigncyrillic" horiz-adv-x="305"/>
<glyph unicode="э" d="M58 159c-47 2 -67 23 -73 53c-2 9 -1 15 10 14c54 -3 102 8 148 8c50 0 69 -23 75 -52c2 -9 0 -15 -11 -14c-73 6 -103 -11 -149 -9zM247 386c27 -16 44 -31 55 -55c12 -27 6 -36 -14 -90c-4 -12 -8 -15 -21 -8c-24 12 -35 41 -24 87c4 17 9 25 2 31 c-17 14 -92 -50 -137 -141c-55 -113 -34 -196 25 -197c84 -1 156 79 197 142c5 8 14 9 18 -1c3 -8 -1 -33 -18 -60c-38 -59 -117 -108 -193 -109c-127 -2 -170 122 -105 251c64 126 165 180 215 150z" glyph-name="ereversedcyrillic" horiz-adv-x="334"/>
<glyph unicode="ю" d="M542 215c-7 -8 -17 -12 -27 -13c-21 -85 -84 -186 -158 -211c-36 -12 -86 -8 -126 44c-44 58 -29 145 16 225c38 68 99 126 159 130c31 2 48 -7 68 -34c23 -31 53 -38 47 -110l-2 -23c6 0 12 2 20 2c7 0 7 -5 3 -10zM456 242c8 31 11 56 8 74c-5 32 -25 26 -30 -3 c-5 -27 6 -56 22 -71zM449 215c-7 3 -13 7 -19 12c-21 16 -45 51 -46 88c-27 -23 -56 -56 -77 -94c-42 -76 -57 -168 -31 -190c28 -23 89 12 138 104c15 28 27 56 35 80zM271 246l-8 -45c-52 -25 -225 -54 -225 -54c-29 -6 -19 38 13 45c0 0 174 28 220 54zM173 271 c-13 -29 -36 -68 -56 -105c-29 -57 -57 -115 -82 -170c-4 -10 -8 -11 -16 -2c-14 15 -25 50 -4 111c34 98 98 217 135 269c9 12 16 15 24 6c15 -16 23 -59 -1 -109z" glyph-name="iucyrillic" horiz-adv-x="532"/>
<glyph unicode="я" d="M338 339l-65 -150c-14 -10 -61 -42 -112 -42c-47 0 -90 36 -90 83c0 11 2 58 47 111s97 64 140 64c45 0 80 -44 80 -66zM254 194l29 -1c-53 -84 -87 -207 -181 -207c-61 0 -92 66 -92 109s7 58 23 58c14 0 44 -33 44 -65c0 -28 -1 -28 -1 -32c1 -16 16 -30 29 -30 c42 0 107 90 149 168zM213 64l117 261c13 24 25 45 36 61c9 13 17 15 24 6c15 -18 23 -61 -1 -111c-22 -45 -72 -120 -96 -173c-25 -56 -26 -99 8 -97c41 2 96 70 131 139c5 9 12 10 16 1s4 -34 -9 -62c-26 -55 -89 -110 -144 -107c-54 3 -82 35 -82 82zM279 252 c20 36 19 64 19 64c0 37 -8 47 -32 47c-20 1 -48 -13 -78 -48c-36 -41 -42 -75 -42 -94c0 -29 8 -45 35 -45c23 0 65 20 98 76z" glyph-name="iacyrillic" horiz-adv-x="402"/>
<glyph unicode="ђ" d="M149 68l111 238c-14 8 -123 -60 -181 -155c-36 -59 -53 -93 -77 -154c-4 -9 -11 -11 -17 -4c-16 18 -25 46 -4 106c22 63 112 224 196 361l93 -1l-109 -174c41 40 93 73 120 70c34 -4 65 -54 39 -105c-17 -33 -104 -188 -168 -309c-60 -100 -125 -119 -188 -108 c-59 10 -76 46 -74 81c8 34 31 56 51 60c11 3 18 -2 12 -15c-18 -40 -8 -96 16 -102c71 -16 129 103 180 211zM263 457c-1 1 -87 -9 -88 -8c-34 0 -57 15 -65 26c-10 14 -4 21 11 20c28 -1 56 1 83 4c31 55 59 102 76 124c9 13 19 12 24 0c11 -28 11 -61 -13 -113 c39 1 54 -17 62 -30c7 -12 3 -19 -12 -19c-22 3 -77 -5 -78 -4z" glyph-name="djecyrillic" horiz-adv-x="341"/>
<glyph unicode="ѓ" d="M36 284c45 48 153 113 186 108s64 -54 39 -106c-21 -44 -70 -118 -93 -170c-26 -58 -20 -105 16 -103c41 2 90 68 128 138c5 9 12 9 17 1c7 -11 5 -34 -9 -63c-27 -56 -90 -107 -148 -107c-85 0 -105 62 -76 149c33 98 118 194 100 202c-10 4 -95 -24 -159 -94 c-28 -27 -13 35 -1 45zM304 521c6 -4 10 -11 0 -16c-37 -17 -90 -46 -115 -54c-23 -7 -43 -6 -53 0c-7 3 -9 9 0 15c29 19 69 47 95 58c28 12 58 6 73 -3z" glyph-name="gjecyrillic" horiz-adv-x="300"/>
<glyph unicode="є" d="M97 296c-48 -38 -58 -5 -41 24c15 26 80 66 140 70c31 2 48 -7 68 -34c23 -31 53 -38 47 -110c-1 -8 -1 -15 -2 -23l-4 -21c-21 -85 -84 -186 -158 -211c-36 -12 -86 -8 -126 44c-28 37 -16 78 -2 115c8 24 58 -5 49 -54c-5 -29 -14 -56 -2 -65c28 -23 89 12 138 104 c15 28 36 80 42 107c7 32 11 56 8 74c-5 32 -51 32 -79 24c-36 -10 -59 -29 -78 -44zM160 159c-47 2 -67 23 -73 53c-2 9 -1 15 10 14c54 -3 128 8 174 8c50 0 69 -23 75 -52c2 -9 0 -15 -11 -14c-73 6 -129 -11 -175 -9z" glyph-name="ecyrillic" horiz-adv-x="345"/>
<glyph unicode="ѕ" d="M39 164c41 56 86 121 115 172c5 39 15 58 36 77c22 20 45 24 54 15c10 -10 5 -21 -8 -44c-4 -6 -7 -12 -11 -19c-7 -92 12 -170 9 -239c-2 -39 -9 -81 -45 -105c67 25 109 85 134 139c5 11 15 8 19 0c4 -9 3 -35 -14 -66c-38 -69 -106 -107 -177 -110 c-58 -2 -114 13 -148 75c-24 45 -21 111 13 139c12 10 20 6 21 -10c1 -8 1 -16 2 -24zM152 272c-29 -53 -66 -108 -104 -162c15 -58 44 -99 77 -89c46 14 31 171 27 251z" glyph-name="dzecyrillic" horiz-adv-x="302"/>
<glyph unicode="і" d="M232 459c13 -26 6 -53 -7 -67s-41 -11 -56 15c-16 27 -11 57 5 74s45 5 58 -22zM69 -15c-76 0 -95 64 -67 146c25 73 91 191 128 243c9 12 16 15 24 6c15 -16 23 -59 -1 -109c-21 -44 -63 -112 -84 -162c-24 -58 -22 -97 10 -95c45 2 100 68 130 137c5 9 12 8 16 0 c8 -16 5 -37 -7 -62c-30 -62 -93 -104 -149 -104z" glyph-name="icyrillic" horiz-adv-x="201"/>
<glyph unicode="ї" d="M69 -15c-76 0 -95 64 -67 146c25 73 91 191 128 243c9 12 16 15 24 6c15 -16 23 -59 -1 -109c-21 -44 -63 -112 -84 -162c-24 -58 -22 -97 10 -95c45 2 100 68 130 137c5 9 12 8 16 0c8 -16 5 -37 -7 -62c-30 -62 -93 -104 -149 -104zM221 473c10 21 30 36 45 29 c16 -7 21 -28 12 -48c-9 -21 -30 -36 -45 -29c-16 7 -22 28 -12 48zM112 473c9 21 29 34 45 27c15 -7 21 -26 11 -47c-7 -20 -29 -33 -44 -28c-16 5 -21 27 -12 48z" glyph-name="yicyrillic" horiz-adv-x="201"/>
<glyph unicode="ј" d="M230 461c12 -27 6 -51 -6 -65c-13 -15 -41 -12 -56 15s-10 55 5 72c16 18 45 6 57 -22zM9 -19c92 48 147 110 189 172c5 8 13 9 16 -1s0 -33 -15 -59c-39 -69 -118 -116 -208 -154c-57 -133 -131 -295 -210 -325c-18 -7 -38 -9 -57 19c-20 30 -43 66 -23 124 c31 91 118 152 217 190c68 163 158 349 211 430c9 14 16 15 24 6c15 -17 20 -60 -3 -110c-25 -56 -97 -193 -141 -292zM-99 -95c-130 -74 -175 -213 -157 -237c14 -18 94 90 157 237z" glyph-name="jecyrillic" horiz-adv-x="178"/>
<glyph unicode="љ" d="M222 192l9 19l-8 1c-85 -162 -150 -228 -204 -228c-71 0 -63 66 -44 115c12 32 62 45 47 18c-25 -45 -30 -104 -6 -104c26 0 75 60 180 224l105 163c10 14 27 16 35 6c15 -18 16 -56 3 -91l-37 -98c21 9 47 16 71 16c49 0 67 -41 67 -73c0 -114 -81 -178 -168 -178 c-85 0 -105 62 -76 149c7 21 16 41 26 61zM353 197c-20 0 -46 -9 -68 -22c-17 -43 -33 -86 -33 -119c0 -32 13 -43 32 -43c39 0 97 63 97 144c0 30 -15 40 -28 40z" glyph-name="ljecyrillic" horiz-adv-x="452"/>
<glyph unicode="њ" d="M157 288c-43 -76 -109 -199 -152 -293c-4 -9 -10 -13 -19 -4c-20 20 -26 53 -10 103c20 63 97 202 160 295c7 11 15 10 21 0c15 -25 19 -68 0 -101zM261 246l-8 -45c-52 -25 -245 -54 -245 -54c-29 -6 -19 38 13 45c0 0 194 28 240 54zM302 211h-85c30 62 69 128 94 163 c9 12 16 15 24 6c15 -16 23 -59 -1 -109c-8 -17 -20 -38 -32 -60zM242 249l59 -47c-30 -51 -61 -104 -61 -146c0 -32 13 -43 32 -43c39 0 97 63 97 144c0 30 -15 40 -28 40c-32 0 -77 -22 -103 -51c0 0 -13 19 5 42c11 14 69 45 118 45s67 -41 67 -73 c0 -114 -81 -178 -168 -178c-85 0 -105 62 -76 149c14 42 35 79 58 118z" glyph-name="njecyrillic" horiz-adv-x="440"/>
<glyph unicode="ћ" d="M263 457c-1 1 -87 -9 -88 -8c-34 0 -57 15 -65 26c-10 14 -4 21 11 20c28 -1 56 1 83 4c31 55 59 102 76 124c9 13 19 12 24 0c11 -28 11 -61 -13 -113c39 1 54 -17 62 -30c7 -12 3 -19 -12 -19c-22 3 -77 -5 -78 -4zM177 460l93 -1l-109 -174c41 40 93 73 120 70 c34 -4 65 -54 39 -105c-22 -44 -50 -81 -73 -133c-25 -58 -20 -105 17 -103c41 2 96 74 127 138c4 9 14 9 18 1c5 -11 5 -32 -10 -62c-28 -57 -89 -107 -148 -107c-84 0 -105 61 -75 148c33 97 100 165 84 174c-14 8 -123 -60 -181 -155c-36 -59 -53 -93 -77 -154 c-4 -9 -11 -11 -17 -4c-16 18 -25 46 -4 106c22 63 112 224 196 361z" glyph-name="tshecyrillic" horiz-adv-x="377"/>
<glyph unicode="ќ" d="M142 209c85 31 150 85 214 161c28 33 47 -14 25 -53c-35 -62 -80 -110 -188 -155c4 -82 32 -139 70 -143c41 -4 96 73 126 135c6 12 15 13 20 1s3 -36 -12 -61c-24 -42 -70 -106 -149 -105c-70 1 -129 58 -127 193c0 18 2 20 21 27zM160 372c8 -20 17 -43 -5 -87 c-37 -74 -66 -101 -143 -285c-3 -8 -11 -10 -18 -2c-15 17 -20 49 -1 110c28 91 51 147 140 268c9 12 20 14 27 -4zM394 481c6 -4 10 -11 0 -16c-37 -17 -90 -46 -115 -54c-23 -7 -43 -6 -53 0c-7 3 -9 9 0 15c29 19 69 47 95 58c28 12 58 6 73 -3z" glyph-name="kjecyrillic" horiz-adv-x="367"/>
<glyph unicode="ў" d="M386 97c-39 -62 -109 -100 -192 -134c-56 -134 -127 -295 -210 -327c-19 -7 -38 -7 -57 21c-20 30 -40 65 -20 124c30 90 115 150 214 189c10 23 20 48 31 72c-31 -32 -69 -58 -109 -55c-72 6 -74 79 -51 145c22 64 71 163 136 253c8 11 18 10 25 0 c24 -32 18 -74 -19 -133c-36 -58 -58 -99 -77 -146c-20 -49 -18 -84 5 -86c39 -3 89 61 140 148c43 74 86 164 121 215c9 13 16 15 25 7c14 -18 22 -61 -4 -112c-30 -58 -91 -178 -133 -275c78 42 137 99 177 154c5 7 14 8 16 -2c2 -9 -1 -32 -18 -58zM104 -72 c-130 -75 -175 -212 -157 -237c13 -19 95 90 157 237zM213 303c6 5 12 4 16 -3c18 -31 40 -38 66 -38c21 0 44 10 65 35c7 8 11 7 14 0c4 -10 1 -33 -16 -51c-19 -20 -46 -31 -78 -31c-27 0 -49 7 -65 24c-18 20 -19 50 -2 64z" glyph-name="ushortcyrillic" horiz-adv-x="375"/>
<glyph unicode="ӿ" d="M118 159c-47 2 -67 23 -73 53c-2 9 -1 15 10 14c54 -3 128 8 174 8c50 0 69 -23 75 -52c2 -9 0 -15 -11 -14c-73 6 -129 -11 -175 -9zM232 159c-47 2 -67 23 -73 53c-2 9 -1 15 10 14c54 -3 102 8 148 8c50 0 69 -23 75 -52c2 -9 0 -15 -11 -14c-73 6 -103 -11 -149 -9z M421 386c27 -16 44 -31 55 -55c12 -27 6 -36 -14 -90c-4 -12 -8 -15 -21 -8c-24 12 -35 41 -24 87c4 17 9 25 2 31c-17 14 -92 -50 -137 -141c-55 -113 -34 -196 25 -197c84 -1 156 79 197 142c5 8 14 9 18 -1c3 -8 -1 -33 -18 -60c-38 -59 -117 -108 -193 -109 c-127 -2 -170 122 -105 251c64 126 165 180 215 150zM204 349c-27 9 -27 -12 -86 -70c-18 -17 -32 -22 -48 -22c-12 0 -17 5 -13 13c24 51 43 74 79 109c21 20 63 20 89 -26c26 -30 50 -35 44 -107c-1 -8 -1 -15 -2 -23l-4 -21c-21 -85 -84 -186 -158 -211 c-36 -12 -86 -8 -126 44c-28 37 -16 78 -2 115c8 24 58 -5 49 -54c-5 -29 -14 -56 -2 -65c28 -23 89 12 138 104c15 28 36 80 42 107c7 32 17 101 0 107z" glyph-name="hastrokecyrillic" horiz-adv-x="485"/>
<glyph unicode="Ґ" d="M214 526c-23 11 -34 31 -39 51c-2 8 1 12 11 12c83 -4 189 25 245 25c9 0 18 -1 26 -3c20 35 50 72 79 144c5 14 23 13 26 -10c7 -45 -1 -95 -48 -188c-3 -5 -4 -9 -13 -9c-75 1 -145 -19 -206 -28c-35 -57 -165 -273 -279 -527c-4 -10 -10 -10 -17 -4 c-19 16 -29 48 -8 110c30 88 135 284 223 427z" glyph-name="Geupturncyrillic" horiz-adv-x="363"/>
<glyph unicode="ґ" d="M37 239c-21 -21 -39 16 -30 43c20 37 41 72 60 103c7 12 11 12 18 2c8 -12 7 -34 -3 -63c50 37 115 71 140 68c33 -5 64 -54 39 -106c-21 -44 -70 -118 -93 -170c-26 -58 -20 -105 16 -103c41 2 90 68 128 138c5 9 12 9 17 1c7 -11 5 -34 -9 -63 c-27 -56 -90 -107 -148 -107c-85 0 -105 62 -76 149c33 98 118 194 100 202c-10 4 -95 -24 -159 -94z" glyph-name="geupturncyrillic" horiz-adv-x="300"/>
<glyph unicode="Х" d="M280 387c87 89 174 176 228 226c12 11 20 6 23 -7c6 -28 -4 -79 -66 -138c-46 -44 -108 -103 -173 -168c16 -114 38 -237 73 -297c7 -11 2 -19 -9 -18c-39 3 -79 29 -103 128c-9 39 -17 80 -24 122c-80 -82 -159 -170 -213 -245c-6 -8 -13 -6 -16 2c-9 22 -9 57 22 105 c27 43 105 130 193 223c-14 96 -28 195 -50 282c-2 10 3 16 13 14c25 -4 58 -23 77 -89c8 -29 16 -80 25 -140z" glyph-name="Hacyrillic" horiz-adv-x="399"/>
<glyph unicode="џ" d="M196 81c-35 -47 -88 -98 -144 -94c-71 5 -73 79 -51 145s73 164 138 255c8 11 18 10 26 1c22 -33 17 -78 -19 -135c-37 -59 -57 -99 -78 -147c-21 -49 -18 -85 5 -87c39 -3 94 67 148 154c63 102 92 171 124 214c10 14 17 16 25 6c15 -18 23 -62 -1 -112 c-22 -45 -72 -120 -95 -171c-26 -57 -22 -99 14 -97c42 2 93 68 132 138c5 9 14 10 18 1c4 -8 5 -35 -9 -63c-29 -56 -91 -107 -150 -107c-65 0 -91 41 -83 99zM52 -170c-11 -13 -19 -15 -26 -14c-6 1 -8 8 -4 18c23 49 43 94 77 132c13 14 21 10 25 -1 c7 -19 -2 -42 -13 -60c-23 -37 -32 -43 -59 -75z" glyph-name="dzhecyrillic"/>
<glyph unicode="Ҭ" d="M123 91c0 0 14 4 27 4c17 0 22 -4 29 -14s12 -24 18 -36c7 -14 7 -22 -1 -34c-58 -94 -74 -137 -91 -178c-4 -10 -11 -12 -18 -4c-16 18 -24 49 -5 111c9 30 22 58 43 86c-17 -6 -25 -3 -36 9c-9 10 -16 19 -24 32c-10 16 -10 26 -1 52l6 17c40 101 129 271 206 389 c-23 -4 -43 -6 -61 -7c-60 -2 -103 20 -114 57c-3 9 1 14 11 13c89 -7 255 30 312 28c42 -1 80 -12 95 -51c3 -8 1 -16 -12 -15c-49 5 -112 -5 -170 -15c1 -24 -6 -57 -33 -106c-62 -111 -127 -223 -181 -338z" glyph-name="Tedescendercyrillic" horiz-adv-x="403"/>
<glyph unicode="Ң" d="M338 206c-73 -9 -150 -22 -197 -22c-31 -62 -62 -128 -91 -195c-4 -10 -12 -13 -18 -4c-15 21 -22 49 -5 110c6 21 23 57 43 102c-22 10 -30 24 -34 32c-6 12 -4 16 13 15c15 -1 29 -3 42 -3c64 133 157 306 198 364c9 12 18 10 24 -1c15 -28 12 -77 -25 -148 c-29 -56 -70 -127 -114 -210c69 9 131 26 197 30c65 129 153 288 193 341c10 13 19 12 25 -1c14 -29 11 -76 -31 -151c-30 -54 -69 -121 -112 -199c23 -10 34 -27 39 -44c1 -8 -1 -13 -11 -11c-16 3 -35 4 -56 3c-40 -80 -51 -102 -61 -124c0 0 16 5 29 5c17 0 22 -4 29 -14 s12 -24 18 -36c7 -14 7 -22 -1 -34c-58 -94 -74 -137 -91 -178c-4 -10 -11 -12 -18 -4c-16 18 -24 49 -5 111c9 30 22 58 43 86c-17 -6 -25 -3 -36 9c-9 10 -16 19 -24 32c-10 16 -10 26 -1 52c9 25 12 33 38 87z" glyph-name="Endescendercyrillic" horiz-adv-x="488"/>
<glyph unicode="Ҵ" d="M25 86c21 57 58 133 95 212c37 77 83 161 126 227c-23 -4 -43 -6 -61 -7c-60 -2 -103 20 -114 57c-3 9 1 14 11 13c89 -7 255 30 312 28c42 -1 80 -12 95 -51c3 -8 1 -16 -12 -15c-49 5 -112 -5 -170 -15c1 -24 -6 -57 -33 -106l-100 -183c-34 -62 -64 -127 -96 -196 c29 9 65 18 211 36c56 146 213 449 275 531c10 13 19 12 25 -1c14 -29 11 -76 -31 -151c-68 -122 -140 -242 -201 -372c9 1 18 2 26 2c17 0 22 -4 29 -14s12 -24 18 -36c7 -14 7 -22 -1 -34c-58 -94 -74 -137 -91 -178c-4 -10 -11 -12 -18 -4c-16 18 -24 49 -5 111 c10 31 23 59 45 89c-53 -9 -243 -33 -273 -47c-19 -5 -30 -5 -42 10c-8 9 -14 24 -21 37c-9 17 -9 30 1 57z" glyph-name="Tetsecyrillic" horiz-adv-x="488"/>
<glyph unicode="Ӧ" d="M476 597c124 -54 96 -251 21 -389c-81 -149 -207 -266 -343 -216c-82 30 -114 105 -114 187c0 213 187 398 300 438c58 20 108 9 136 -20zM424 236c91 167 87 317 32 337c-49 18 -176 -50 -270 -196c-96 -149 -98 -318 -30 -347c66 -28 184 52 268 206zM459 708 c9 22 30 33 45 28c16 -5 21 -26 12 -48c-8 -20 -30 -32 -45 -27c-16 5 -21 26 -12 47zM344 706c10 21 30 36 45 29c16 -7 21 -28 12 -48s-28 -34 -45 -29c-16 5 -22 28 -12 48z" glyph-name="Odieresiscyrillic" horiz-adv-x="537"/>
<glyph unicode="Ӓ" d="M313 157c-71 -5 -152 -17 -199 -16c-30 -51 -56 -100 -76 -144c-4 -9 -13 -9 -18 -2c-12 16 -16 46 5 102c6 15 15 35 27 57c-22 12 -30 27 -33 34c-5 13 -3 17 12 15c14 -2 29 -4 45 -5c78 136 217 334 323 421c16 13 26 13 36 -1s13 -16 23 -41c10 -24 9 -46 0 -73 c-26 -79 -54 -181 -73 -291c30 -10 41 -30 45 -51c2 -9 -2 -12 -11 -9c-12 3 -26 5 -43 6c-7 -52 -13 -107 -15 -160c0 -10 -6 -13 -15 -9c-20 9 -36 34 -37 91c0 20 1 46 4 76zM152 201c61 5 122 16 169 17c15 104 43 230 74 308c-76 -85 -167 -206 -243 -325zM472 708 c9 22 30 33 45 28c16 -5 21 -26 12 -48c-8 -20 -30 -32 -45 -27c-16 5 -21 26 -12 47zM357 706c10 21 30 36 45 29c16 -7 21 -28 12 -48s-28 -34 -45 -29c-16 5 -22 28 -12 48z" glyph-name="Adieresiscyrillic" horiz-adv-x="442"/>
<glyph unicode="℉" d="M258 613c17 0 37 -7 54 -30s25 -44 23 -75c-3 -62 -47 -139 -105 -150c-23 -4 -54 1 -78 35c-27 38 -21 97 5 147c24 46 63 73 101 73zM285 565c-13 16 -54 -14 -79 -57c-23 -40 -33 -93 -20 -107c14 -15 44 5 72 52c28 48 37 100 27 112zM516 526c-23 11 -34 31 -39 51 c-2 8 1 12 11 12c83 -4 189 25 245 25c43 0 69 -20 82 -51c3 -8 1 -15 -12 -15c-75 1 -145 -19 -206 -28c-35 -57 -82 -138 -131 -228c26 5 49 7 67 8c50 3 75 -18 84 -48c3 -9 1 -15 -11 -15c-50 1 -127 -14 -184 -28c-38 -74 -75 -149 -104 -216c-4 -10 -10 -10 -17 -4 c-19 16 -29 48 -8 110c30 88 135 284 223 427z" glyph-name="fahrenheit" horiz-adv-x="665"/>
<glyph unicode="℃" d="M258 613c17 0 37 -7 54 -30s25 -44 23 -75c-3 -62 -47 -139 -105 -150c-23 -4 -54 1 -78 35c-27 38 -21 97 5 147c24 46 63 73 101 73zM285 565c-13 16 -54 -14 -79 -57c-23 -40 -33 -93 -20 -107c14 -15 44 5 72 52c28 48 37 100 27 112zM690 206c5 11 16 11 21 -2 c25 -67 -39 -142 -81 -172c-71 -51 -155 -50 -209 -21c-45 24 -84 86 -86 168c-4 212 174 393 286 436c54 21 103 25 135 -3c22 -19 45 -48 53 -73c9 -29 6 -57 -9 -88s-29 -70 -40 -99c-3 -8 -10 -14 -22 -6c-23 15 -39 46 -24 96c16 53 52 110 29 134 c-28 30 -180 -51 -270 -200c-88 -146 -78 -294 -29 -334c64 -52 170 15 246 164z" glyph-name="centigrade" horiz-adv-x="764"/>
<glyph unicode="ӓ" d="M324 325c13 24 25 45 36 61c9 13 17 15 24 6c15 -18 23 -61 -1 -111c-22 -45 -72 -120 -96 -173c-25 -56 -26 -99 8 -97c41 2 96 70 131 139c5 9 12 10 16 1s4 -34 -9 -62c-26 -55 -89 -110 -144 -107c-54 3 -82 35 -82 82c-32 -41 -77 -78 -125 -78 c-93 0 -112 127 -29 248c81 118 160 163 210 163c43 0 63 -33 61 -72zM237 170c63 110 72 172 43 175c-32 3 -105 -62 -160 -151c-53 -86 -66 -174 -27 -175c41 -1 93 63 144 151zM327 473c10 21 30 36 45 29c16 -7 21 -28 12 -48c-9 -21 -30 -36 -45 -29 c-16 7 -22 28 -12 48zM218 473c9 21 29 34 45 27c15 -7 21 -26 11 -47c-7 -20 -29 -33 -44 -28c-16 5 -21 27 -12 48z" glyph-name="adieresiscyrillic" horiz-adv-x="407"/>
<glyph unicode="ӵ" d="M245 188c-25 -34 -82 -65 -120 -65c-54 0 -92 54 -72 115c11 31 47 99 92 162c5 8 13 8 18 1c17 -21 32 -54 6 -94c-25 -41 -40 -69 -43 -76c-21 -49 -1 -64 15 -66c27 -2 84 26 121 87c44 70 51 92 83 135c10 14 17 16 25 6c15 -18 23 -62 -1 -112 c-22 -45 -72 -120 -95 -171c-26 -57 -22 -99 14 -97c42 2 93 68 132 138c5 9 14 10 18 1c4 -8 5 -35 -9 -63c-29 -56 -91 -107 -150 -107c-118 0 -83 99 -34 206zM328 473c10 21 30 36 45 29c16 -7 21 -28 12 -48c-9 -21 -30 -36 -45 -29c-16 7 -22 28 -12 48zM219 473 c9 21 29 34 45 27c15 -7 21 -26 11 -47c-7 -20 -29 -33 -44 -28c-16 5 -21 27 -12 48z" glyph-name="chedieresiscyrillic"/>
<glyph unicode="ӱ" d="M386 97c-39 -62 -109 -100 -192 -134c-56 -134 -127 -295 -210 -327c-19 -7 -38 -7 -57 21c-20 30 -40 65 -20 124c30 90 115 150 214 189c10 23 20 48 31 72c-31 -32 -69 -58 -109 -55c-72 6 -74 79 -51 145c22 64 71 163 136 253c8 11 18 10 25 0 c24 -32 18 -74 -19 -133c-36 -58 -58 -99 -77 -146c-20 -49 -18 -84 5 -86c39 -3 89 61 140 148c43 74 86 164 121 215c9 13 16 15 25 7c14 -18 22 -61 -4 -112c-30 -58 -91 -178 -133 -275c78 42 137 99 177 154c5 7 14 8 16 -2c2 -9 -1 -32 -18 -58zM104 -72 c-130 -75 -175 -212 -157 -237c13 -19 95 90 157 237zM286 473c10 21 30 36 45 29c16 -7 21 -28 12 -48c-9 -21 -30 -36 -45 -29c-16 7 -22 28 -12 48zM177 473c9 21 29 34 45 27c15 -7 21 -26 11 -47c-7 -20 -29 -33 -44 -28c-16 5 -21 27 -12 48z" glyph-name="udieresiscyrillic" horiz-adv-x="375"/>
<glyph unicode="ӧ" d="M342 215c-7 -8 -17 -12 -27 -13c-21 -85 -84 -186 -158 -211c-36 -12 -86 -8 -126 44c-44 58 -29 145 16 225c38 68 99 126 159 130c31 2 48 -7 68 -34c23 -31 53 -38 47 -110c-1 -8 -1 -15 -2 -23c6 0 12 2 20 2c7 0 7 -5 3 -10zM256 242c8 31 11 56 8 74 c-5 32 -25 26 -30 -3c-5 -27 6 -56 22 -71zM249 215c-7 3 -13 7 -19 12c-21 16 -45 51 -46 88c-27 -23 -56 -56 -77 -94c-42 -76 -57 -168 -31 -190c28 -23 89 12 138 104c15 28 27 56 35 80zM259 473c10 21 30 36 45 29c16 -7 21 -28 12 -48c-9 -21 -30 -36 -45 -29 c-16 7 -22 28 -12 48zM150 473c9 21 29 34 45 27c15 -7 21 -26 11 -47c-7 -20 -29 -33 -44 -28c-16 5 -21 27 -12 48z" glyph-name="odieresiscyrillic" horiz-adv-x="332"/>
<glyph unicode="Ҳ" d="M280 387c87 89 174 176 228 226c12 11 20 6 23 -7c6 -28 -4 -79 -66 -138c-46 -44 -108 -103 -173 -168c16 -114 38 -237 73 -297c7 -11 2 -19 -9 -18c-39 3 -79 29 -103 128c-9 39 -17 80 -24 122c-80 -82 -159 -170 -213 -245c-6 -8 -13 -6 -16 2c-9 22 -9 57 22 105 c27 43 105 130 193 223c-14 96 -28 195 -50 282c-2 10 3 16 13 14c25 -4 58 -23 77 -89c8 -29 16 -80 25 -140zM262 73l67 31l-6 -13s14 4 27 4c17 0 22 -4 29 -14s12 -24 18 -36c7 -14 7 -22 -1 -34c-58 -94 -74 -137 -91 -178c-4 -10 -11 -12 -18 -4c-16 18 -24 49 -5 111 c9 30 22 58 43 86c-17 -6 -25 -3 -36 9c-9 10 -16 19 -24 32z" glyph-name="Hadescendercyrillic" horiz-adv-x="399"/>
<glyph unicode="Ҷ" d="M357 125c-10 -20 -13 -27 -16 -34c0 0 14 4 27 4c17 0 22 -4 29 -14s12 -24 18 -36c7 -14 7 -22 -1 -34c-58 -94 -74 -137 -91 -178c-4 -10 -11 -12 -18 -4c-16 18 -24 49 -5 111c9 30 22 58 43 86c-17 -6 -25 -3 -36 9c-9 10 -16 19 -24 32c-10 15 -10 28 -4 43 c14 36 21 55 30 76c-15 -4 -31 -6 -46 -6c-79 0 -147 44 -147 122c0 83 97 215 165 314c4 6 8 9 12 9c11 0 20 -25 20 -48c0 -29 -10 -66 -38 -115c-54 -94 -95 -135 -95 -187c0 -42 36 -62 61 -62c64 0 117 77 166 170v-1c45 84 131 243 152 243c11 0 20 -25 20 -48 c0 -29 -10 -66 -38 -115c-46 -82 -120 -210 -184 -337z" glyph-name="Chedescendercyrillic" horiz-adv-x="471"/>
<glyph unicode="‡" d="M399 538c-11 -21 -36 -35 -68 -36h-32c-34 -59 -79 -134 -103 -185c-4 -8 -8 -8 -15 -1c-10 11 -12 31 -2 62c10 30 35 78 61 124c-22 0 -46 0 -66 -3c-9 -1 -14 3 -10 12c6 15 21 33 57 38c13 2 30 3 48 3c17 29 34 56 45 75c5 9 9 7 15 4c11 -10 19 -37 1 -72 c-1 -2 -2 -5 -4 -7h63c11 0 15 -4 10 -14zM63 63h-120c-11 0 -15 4 -10 14c11 21 36 36 68 36h91c22 0 46 0 66 3c9 1 14 -3 10 -12c-6 -15 -21 -33 -57 -38c-13 -2 -30 -3 -48 -3zM151 229c-40 -81 -94 -155 -134 -242c-4 -8 -8 -8 -15 -1c-10 11 -12 31 -2 62 c10 30 35 78 61 124c24 42 49 82 74 125c5 9 9 7 15 4c11 -10 19 -37 1 -72z" glyph-name="daggerdbl" horiz-adv-x="326"/>
<glyph d="M294 268l-58 -51c-38 107 -52 235 -51 382c0 17 8 19 17 15c27 -12 48 -34 55 -107c8 -86 7 -136 37 -239zM235 244l12 13c124 137 213 283 251 350c5 9 9 10 11 10c7 0 23 -17 23 -55c0 -58 -59 -152 -224 -344c-59 -68 -187 -220 -292 -220c-23 0 -37 12 -37 19 s4 8 9 11c103 66 158 121 231 199zM313 733c6 5 12 4 16 -3c18 -31 40 -38 66 -38c21 0 44 10 65 35c7 8 11 7 14 0c4 -10 1 -33 -16 -51c-19 -20 -46 -31 -78 -31c-27 0 -49 7 -65 24c-18 20 -19 50 -2 64z" glyph-name="Igravecyrillic" horiz-adv-x="392"/>
<glyph d="M106 440c-46 1 -66 25 -71 55c-2 9 -2 15 11 14c80 -5 226 14 321 11c50 -2 69 -25 74 -55c2 -9 0 -16 -13 -14c-80 10 -250 -13 -322 -11zM107 40c57 0 196 70 196 157c0 30 -14 53 -58 53c-46 0 -99 -17 -179 -60c1 2 -5 64 6 72c18 14 97 48 161 48 c77 0 117 -55 117 -126c0 -138 -158 -204 -222 -204c-70 0 -89 36 -101 66l-23 -52c-4 -10 -10 -11 -16 -3c-15 20 -25 49 -5 110c27 83 198 410 267 506c9 13 17 13 25 -1c15 -28 15 -73 -26 -148c-15 -28 -33 -54 -64 -109l-132 -246c2 -28 19 -63 54 -63z" glyph-name="Iishorttailcyrillic" horiz-adv-x="381"/>
<glyph d="M276 525c-23 -4 -43 -6 -61 -7c-60 -2 -103 20 -114 57c-3 9 1 14 11 13c89 -7 255 30 312 28c42 -1 80 -12 95 -51c3 -8 1 -16 -12 -15c-49 5 -112 -5 -170 -15c1 -24 -6 -57 -33 -106c-60 -109 -145 -249 -223 -432c-4 -10 -9 -10 -16 -3c-14 13 -26 43 -13 91 c23 82 131 299 224 440zM425 286c-78 -155 -132 -260 -180 -345c-58 -101 -125 -119 -188 -108c-59 10 -76 46 -74 81c8 34 31 56 51 60c11 3 18 -2 12 -15c-18 -40 -8 -96 16 -102c71 -16 128 103 180 211l66 138c41 85 67 131 57 136c-14 8 -143 -60 -201 -155 c-9 -14 -18 -29 -26 -44l5 113l12 57l77 50l9 -47c41 40 118 78 145 75c34 -4 65 -54 39 -105z" glyph-name="Iegravecyrillic" horiz-adv-x="403"/>
<glyph d="M92 171c-32 -92 -8 -155 45 -158c83 -4 156 76 199 142c5 8 13 8 17 -1c4 -8 1 -36 -17 -62c-42 -61 -119 -107 -196 -108c-127 -2 -171 123 -106 252s167 181 217 152c25 -15 43 -30 59 -52c18 -24 10 -85 -32 -136c-49 -60 -116 -86 -186 -29zM101 193 c49 -31 90 12 119 50c32 42 54 94 40 105c-21 17 -104 -43 -151 -138c-3 -6 -6 -12 -8 -17zM167 505c15 8 45 14 71 0c27 -14 62 -40 88 -61c7 -6 7 -11 -1 -14c-13 -5 -33 -7 -52 1c-25 10 -72 39 -107 59c-10 6 -5 12 1 15z" glyph-name="iegravecyrillic" horiz-adv-x="320"/>
<glyph unicode="ҋ" d="M332 -5c-4 -23 6 -60 17 -87c-27 16 -78 25 -102 25c-82 0 -101 -24 -155 -24c-67 0 -80 38 -98 42c-13 3 -13 -5 -11 -14c5 -30 26 -88 114 -88c44 0 184 58 260 -7c20 -19 62 -17 41 17c-48 77 -19 167 -10 175c16 16 31 35 41 55c14 28 13 55 9 63c-4 9 -13 8 -18 -1 c-39 -70 -90 -136 -132 -138c-36 -2 -40 40 -14 97c23 51 73 126 95 171c24 50 16 94 1 112c-8 10 -15 8 -25 -6c-32 -43 -61 -112 -124 -214c-54 -87 -109 -157 -148 -154c-23 2 -26 38 -5 87c21 48 41 88 78 147c36 57 41 102 19 135c-8 9 -18 10 -26 -1 c-65 -91 -116 -189 -138 -255s-20 -140 51 -145c56 -4 109 47 144 94c-8 -58 18 -99 83 -99c17 0 35 5 53 13zM203 513c6 5 12 4 16 -3c18 -31 40 -38 66 -38c21 0 44 10 65 35c7 8 11 7 14 0c4 -10 1 -33 -16 -51c-19 -20 -46 -31 -78 -31c-27 0 -49 7 -65 24 c-18 20 -19 50 -2 64z" glyph-name="iishorttailcyrillic"/>
<glyph unicode="ҍ" d="M258 397c-31 -47 -58 -104 -83 -161c6 2 13 3 20 4c24 2 36 -4 51 -20c17 -20 37 -25 35 -70c0 -5 -1 -10 -2 -15c5 0 10 1 15 2c6 1 6 -4 3 -7c-3 -5 -11 -8 -20 -9c-15 -76 -74 -139 -164 -139c-85 0 -103 62 -76 149c22 70 70 130 136 258h-3c-34 0 -57 15 -65 26 c-10 14 -4 21 11 20c28 -1 56 1 83 4c31 55 59 102 76 124c9 13 19 12 24 0c11 -28 11 -61 -13 -113c39 1 54 -17 62 -30c7 -12 3 -19 -12 -19c-22 3 -53 0 -78 -4zM125 13c30 0 79 42 96 115c-7 3 -13 5 -18 9c-15 11 -33 33 -34 56c-9 -2 -18 -5 -25 -9 c-26 -46 -51 -91 -51 -128c0 -32 13 -43 32 -43zM222 148c0 -1 1 -2 2 -2c3 21 7 38 5 48c-4 20 -19 16 -23 -1c-4 -18 4 -35 16 -45z" glyph-name="semisoftsigncyrillic" horiz-adv-x="305"/>
<glyph d="M46 330c-46 1 -66 25 -71 55c-2 9 -2 15 11 14c80 -5 226 14 321 11c50 -2 69 -25 74 -55c2 -9 0 -16 -13 -14c-80 10 -250 -13 -322 -11zM214 526c-23 11 -34 31 -39 51c-2 8 1 12 11 12c83 -4 189 25 245 25c43 0 69 -20 82 -51c3 -8 1 -15 -12 -15 c-75 1 -145 -19 -206 -28c-35 -57 -82 -138 -131 -228l-44 -83c-38 -74 -75 -149 -104 -216c-4 -10 -10 -10 -17 -4c-19 16 -29 48 -8 110c30 88 135 284 223 427z" glyph-name="Gestrokecyrillic" horiz-adv-x="363"/>
<glyph unicode="ғ" d="M118 149c-47 2 -67 23 -73 53c-2 9 -1 15 10 14c54 -3 128 8 174 8c50 0 69 -23 75 -52c2 -9 0 -15 -11 -14c-73 6 -129 -11 -175 -9zM36 284c45 48 153 113 186 108s64 -54 39 -106c-21 -44 -70 -118 -93 -170c-26 -58 -20 -105 16 -103c41 2 90 68 128 138 c5 9 12 9 17 1c7 -11 5 -34 -9 -63c-27 -56 -90 -107 -148 -107c-85 0 -105 62 -76 149c33 98 118 194 100 202c-10 4 -95 -24 -159 -94c-28 -27 -13 35 -1 45z" glyph-name="gestrokecyrillic" horiz-adv-x="300"/>
<glyph unicode="қ" d="M258 13c42 0 93 68 132 138c5 9 14 10 18 1c4 -8 5 -35 -9 -63c-10 -20 -25 -39 -41 -55c-9 -8 -38 -98 10 -175c21 -34 -21 -36 -41 -17c-76 65 -216 7 -260 7c-88 0 -109 58 -114 88c-2 9 -2 17 11 14c18 -4 31 -42 98 -42c54 0 73 24 155 24c24 0 75 -9 102 -25 c-11 27 -21 64 -17 87c-18 -8 -36 -13 -53 -13c-70 0 -130 65 -128 200c0 18 2 20 21 27c85 31 150 85 214 161c28 33 47 -14 25 -53c-35 -62 -80 -110 -188 -155c4 -82 33 -149 65 -149zM184 409c8 -20 13 -43 -9 -87c-37 -74 -86 -138 -163 -322c-3 -8 -11 -10 -18 -2 c-15 17 -20 49 -1 110c28 91 75 184 164 305c9 12 20 14 27 -4z" glyph-name="kadescendercyrillic" horiz-adv-x="367"/>
<glyph unicode="Ҟ" d="M170 455l92 7l-2 -3c-26 -47 -59 -106 -95 -173c131 98 271 223 366 326c7 8 15 7 19 -2c6 -22 5 -56 -31 -105c-45 -61 -181 -183 -316 -278c32 -51 59 -97 71 -125c24 -57 15 -92 0 -111c-6 -7 -13 -7 -18 2c-38 74 -82 146 -131 217c-35 -67 -70 -142 -103 -219 c-4 -9 -10 -11 -16 -3c-15 21 -23 50 -5 110c17 57 98 225 169 357zM242 439l-85 -8h-3c-34 0 -57 15 -65 26c-10 14 -4 21 11 20c28 -1 56 1 83 4c31 55 59 102 76 124c9 13 19 12 24 0c11 -28 11 -61 -13 -113c39 1 54 -17 62 -30c7 -12 3 -19 -12 -19c-22 3 -53 0 -78 -4 z" glyph-name="Kastrokecyrillic" horiz-adv-x="397"/>
<glyph unicode="Ҡ" d="M297 531l-132 -245c131 98 271 223 366 326c7 8 15 7 19 -2c6 -22 5 -56 -31 -105c-45 -61 -181 -183 -316 -278c32 -51 59 -97 71 -125c24 -57 15 -92 0 -111c-6 -7 -13 -7 -18 2c-38 74 -82 146 -131 217c-35 -67 -70 -142 -103 -219c-4 -9 -10 -11 -16 -3 c-15 21 -23 50 -5 110c17 58 103 236 215 440c-30 -6 -59 -12 -91 -16c-26 -3 -65 -1 -81 6c-23 10 -34 31 -39 51c-2 8 1 12 11 12c121 0 154 24 235 24c17 0 22 -4 29 -14s12 -24 18 -36c7 -14 7 -22 -1 -34z" glyph-name="Kabashkircyrillic" horiz-adv-x="397"/>
<glyph unicode="ң" d="M157 288c-43 -76 -109 -199 -152 -293c-4 -9 -10 -13 -19 -4c-20 20 -26 53 -10 103c20 63 97 202 160 295c7 11 15 10 21 0c15 -25 19 -68 0 -101zM261 246l-8 -45c-52 -25 -245 -54 -245 -54c-29 -6 -19 38 13 45c0 0 194 28 240 54zM259 13c42 2 93 68 132 138 c5 9 14 10 18 1c4 -8 5 -35 -9 -63c-10 -20 -25 -39 -41 -55c-9 -8 -38 -98 10 -175c21 -34 -21 -36 -41 -17c-76 65 -216 7 -260 7c-88 0 -109 58 -114 88c-2 9 -2 17 11 14c18 -4 31 -42 98 -42c54 0 73 24 155 24c24 0 75 -9 102 -25c-11 27 -21 64 -17 87 c-18 -8 -36 -13 -53 -13c-76 0 -95 67 -67 149c25 73 91 191 128 243c9 12 16 15 24 6c15 -16 23 -59 -1 -109c-21 -44 -63 -112 -84 -162c-24 -58 -23 -98 9 -96z" glyph-name="endescendercyrillic" horiz-adv-x="384"/>
<glyph d="M536 575l61 3c0 -28 -12 -64 -39 -113c-30 -54 -69 -121 -112 -199c23 -10 34 -27 39 -44c1 -8 -1 -13 -11 -11c-16 3 -35 4 -56 3c-34 -65 -69 -137 -102 -212c-4 -10 -11 -11 -17 -2c-14 20 -23 49 -3 110c7 20 22 55 42 96c-73 -9 -150 -22 -197 -22 c-31 -62 -62 -128 -91 -195c-4 -10 -12 -13 -18 -4c-15 21 -22 49 -5 110c6 21 23 57 43 102c-22 10 -30 24 -34 32c-6 12 -4 16 13 15c15 -1 29 -3 42 -3c64 133 157 306 198 364c9 12 18 10 24 -1c15 -28 12 -77 -25 -148c-29 -56 -70 -127 -114 -210c69 9 131 26 197 30 c52 104 120 227 165 299zM583 520l-77 5c-24 11 -36 32 -41 52c-2 8 1 12 11 12c83 -4 189 25 245 25c43 0 69 -20 82 -51c3 -8 1 -15 -12 -15c-75 1 -147 -19 -208 -28z" glyph-name="Engecyrillic" horiz-adv-x="653"/>
<glyph unicode="Ү" d="M174 197c-42 -75 -74 -147 -95 -207c-4 -10 -11 -10 -19 -3c-15 13 -25 48 -10 100c11 36 34 89 62 145c2 122 10 275 29 370c3 16 12 17 21 11c24 -15 39 -44 35 -116c-3 -56 -11 -121 -15 -196c93 103 234 241 313 311c11 9 18 6 21 -5c8 -29 -2 -73 -61 -131 c-72 -70 -158 -146 -281 -279z" glyph-name="Ustraightcyrillic" horiz-adv-x="379"/>
<glyph unicode="ү" d="M386 97c-39 -62 -109 -100 -192 -134c-56 -134 -127 -295 -210 -327c-19 -7 -38 -7 -57 21c-20 30 -40 65 -20 124c30 90 115 150 214 189c10 23 20 48 31 72c-31 -32 -69 -58 -109 -55c-72 6 -74 79 -51 145c22 64 71 163 136 253c8 11 18 10 25 0 c24 -32 18 -74 -19 -133c-36 -58 -58 -99 -77 -146c-20 -49 -18 -84 5 -86c39 -3 89 61 140 148c43 74 86 164 121 215c9 13 16 15 25 7c14 -18 22 -61 -4 -112c-30 -58 -91 -178 -133 -275c78 42 137 99 177 154c5 7 14 8 16 -2c2 -9 -1 -32 -18 -58zM104 -72 c-130 -75 -175 -212 -157 -237c13 -19 95 90 157 237z" glyph-name="ustraightcyrillic" horiz-adv-x="375"/>
<glyph unicode="Ұ" d="M26 160c-46 1 -66 25 -71 55c-2 9 -2 15 11 14c80 -5 226 14 321 11c50 -2 69 -25 74 -55c2 -9 0 -16 -13 -14c-80 10 -250 -13 -322 -11zM174 197c-42 -75 -74 -147 -95 -207c-4 -10 -11 -10 -19 -3c-15 13 -25 48 -10 100c11 36 34 89 62 145c2 122 10 275 29 370 c3 16 12 17 21 11c24 -15 39 -44 35 -116c-3 -56 -11 -121 -15 -196c93 103 234 241 313 311c11 9 18 6 21 -5c8 -29 -2 -73 -61 -131c-72 -70 -158 -146 -281 -279z" glyph-name="Ustraightstrokecyrillic" horiz-adv-x="379"/>
<glyph unicode="ҳ" d="M421 386c27 -16 43 -32 55 -55c21 -42 -19 -95 -39 -149c-4 -12 -8 -15 -21 -8c-24 12 -38 42 -24 87c11 36 41 79 27 90c-17 14 -92 -50 -137 -141c-55 -113 -34 -196 25 -197c84 -1 156 79 197 142c5 8 14 9 18 -1c3 -8 -1 -33 -18 -60c-38 -59 -117 -108 -193 -109 c-127 -2 -170 122 -105 251c64 126 165 180 215 150zM391 27l68 32c-43 -39 -69 -123 -21 -200c21 -34 -21 -36 -41 -17c-76 65 -256 7 -300 7c-88 0 -109 58 -114 88c-2 9 -2 17 11 14c18 -4 31 -42 98 -42c54 0 113 24 195 24c24 0 75 -9 102 -25c-11 27 -19 61 2 119z M204 349c-27 9 -27 -12 -86 -70c-18 -17 -32 -22 -48 -22c-12 0 -17 5 -13 13c24 51 43 74 79 109c21 20 63 20 89 -26c26 -30 50 -35 44 -107c-1 -8 -1 -15 -2 -23l-4 -21c-21 -85 -84 -186 -158 -211c-36 -12 -86 -8 -126 44c-28 37 -16 78 -2 115c8 24 58 -5 49 -54 c-5 -29 -14 -56 -2 -65c28 -23 89 12 138 104c15 28 36 80 42 107c7 32 17 101 0 107z" glyph-name="hadescendercyrillic" horiz-adv-x="485"/>
<glyph unicode="ҷ" d="M288 13c42 2 93 68 132 138c5 9 14 10 18 1c4 -8 5 -35 -9 -63c-10 -20 -25 -39 -41 -55c-9 -8 -38 -98 10 -175c21 -34 -21 -36 -41 -17c-76 65 -216 7 -260 7c-88 0 -109 58 -114 88c-2 9 -2 17 11 14c18 -4 31 -42 98 -42c54 0 73 24 155 24c24 0 75 -9 102 -25 c-11 27 -21 64 -17 87c-18 -8 -36 -13 -53 -13c-118 0 -83 99 -34 206c-25 -34 -82 -65 -120 -65c-54 0 -92 54 -72 115c11 31 47 99 92 162c5 8 13 8 18 1c17 -21 32 -54 6 -94c-25 -41 -40 -69 -43 -76c-21 -49 -1 -64 15 -66c27 -2 84 26 121 87c44 70 51 92 83 135 c10 14 17 16 25 6c15 -18 23 -62 -1 -112c-22 -45 -72 -120 -95 -171c-26 -57 -22 -99 14 -97z" glyph-name="chedescendercyrillic"/>
<glyph unicode="Ҹ" d="M347 488c8 13 19 11 24 -1c13 -29 -1 -75 -43 -150c-60 -106 -74 -111 -130 -250c-4 -10 -10 -10 -17 -2c-15 17 -14 55 8 107c41 97 74 160 158 296zM407 383c45 83 131 242 152 242c11 0 20 -25 20 -48c0 -29 -10 -66 -38 -115c-62 -109 -172 -302 -245 -466 c-2 -6 -4 -8 -7 -8c-8 0 -25 21 -25 56c0 34 19 81 45 142c-15 -4 -31 -6 -46 -6c-79 0 -147 44 -147 122c0 83 97 215 165 314c4 6 8 9 12 9c11 0 20 -25 20 -48c0 -29 -10 -66 -38 -115c-54 -94 -95 -135 -95 -187c0 -42 36 -62 61 -62c66 0 116 78 166 170z" glyph-name="Cheverticalstrokecyrillic" horiz-adv-x="471"/>
<glyph unicode="ҹ" d="M218 349c7 10 15 8 19 -1c11 -23 0 -60 -34 -121c-48 -85 -59 -89 -104 -200c-4 -8 -8 -8 -14 -2c-12 14 -11 45 6 86c33 78 60 129 127 238zM245 188c-25 -34 -92 -65 -130 -65c-54 0 -102 54 -82 115c11 31 47 99 92 162c5 8 13 8 18 1c17 -21 32 -54 6 -94 c-25 -41 -40 -69 -43 -76c-21 -49 9 -64 25 -66c27 -2 94 26 131 87c44 70 51 92 83 135c10 14 17 16 25 6c15 -18 23 -62 -1 -112c-22 -45 -72 -120 -95 -171c-26 -57 -22 -99 14 -97c42 2 93 68 132 138c5 9 14 10 18 1c4 -8 5 -35 -9 -63c-29 -56 -91 -107 -150 -107 c-118 0 -83 99 -34 206z" glyph-name="cheverticalstrokecyrillic"/>
<glyph unicode="Һ" d="M399 91c-28 -57 -89 -107 -148 -107c-84 0 -105 61 -75 148c33 97 120 201 104 210c-14 8 -123 -60 -181 -155c-36 -59 -73 -129 -97 -190c-4 -9 -11 -11 -17 -4c-16 18 -25 46 -4 106c35 100 243 452 324 553c9 12 19 11 24 -1c13 -29 10 -79 -28 -142 c-24 -40 -77 -121 -120 -188c41 40 93 73 120 70c34 -4 65 -54 39 -105c-22 -44 -70 -117 -93 -169c-25 -58 -20 -105 17 -103c41 2 96 74 127 138c4 9 14 9 18 1c5 -11 5 -32 -10 -62z" glyph-name="Shhacyrillic" horiz-adv-x="377"/>
<glyph unicode="һ" d="M399 91c-28 -57 -89 -107 -148 -107c-84 0 -105 61 -75 148c33 97 120 201 104 210c-14 8 -123 -60 -181 -155c-36 -59 -73 -129 -97 -190c-4 -9 -11 -11 -17 -4c-16 18 -25 46 -4 106c35 100 243 452 324 553c9 12 19 11 24 -1c13 -29 10 -79 -28 -142 c-24 -40 -77 -121 -120 -188c41 40 93 73 120 70c34 -4 65 -54 39 -105c-22 -44 -70 -117 -93 -169c-25 -58 -20 -105 17 -103c41 2 96 74 127 138c4 9 14 9 18 1c5 -11 5 -32 -10 -62z" glyph-name="shhacyrillic" horiz-adv-x="377"/>
<glyph unicode="Ӏ" d="M269 616c9 13 18 11 24 -1c14 -29 13 -77 -30 -153c-62 -109 -172 -302 -245 -466c-4 -10 -8 -11 -16 -2c-14 15 -26 50 -4 111c49 136 190 394 271 511z" glyph-name="Palochkacyrillic" horiz-adv-x="182"/>
<glyph unicode="Ӂ" d="M406 210c-35 -67 -70 -142 -103 -219c-4 -9 -10 -11 -16 -3c-15 21 -23 50 -5 110c25 85 197 424 258 509c9 12 16 11 24 -2c13 -23 18 -71 -23 -146c-26 -47 -59 -106 -95 -173c131 98 271 223 366 326c7 8 15 7 19 -2c6 -22 5 -56 -31 -105 c-45 -61 -181 -183 -316 -278c32 -51 59 -97 71 -125c24 -57 15 -92 0 -111c-6 -7 -13 -7 -18 2c-38 74 -82 146 -131 217zM296 251l79 1c-5 -11 -13 -23 -22 -36c-29 -39 -112 -103 -202 -161c-36 -23 -73 -42 -109 -42c-29 0 -53 14 -53 27c0 5 6 8 16 13 c87 43 202 124 291 198zM340 387l24 -161l-75 9l-14 85c-14 96 -28 195 -50 282c-2 10 3 16 13 14c25 -4 58 -23 77 -89c8 -29 16 -80 25 -140zM523 743c6 5 12 4 16 -3c18 -31 40 -38 66 -38c21 0 44 10 65 35c7 8 11 7 14 0c4 -10 1 -33 -16 -51c-19 -20 -46 -31 -78 -31 c-27 0 -49 7 -65 24c-18 20 -19 50 -2 64z" glyph-name="Zhebrevecyrillic" horiz-adv-x="678"/>
<glyph unicode="ӂ" d="M721 386c27 -16 43 -32 55 -55c21 -42 -19 -95 -39 -149c-4 -12 -8 -15 -21 -8c-24 12 -38 42 -24 87c11 36 41 79 27 90c-17 14 -92 -50 -137 -141c-55 -113 -34 -196 25 -197c84 -1 156 79 197 142c5 8 14 9 18 -1c3 -8 -1 -33 -18 -60c-38 -59 -117 -108 -193 -109 c-127 -2 -170 122 -105 251c64 126 165 180 215 150zM539 246l-8 -45c-52 -25 -325 -54 -325 -54c-29 -6 -19 38 13 45c0 0 274 28 320 54zM453 271c-13 -29 -36 -68 -56 -105c-29 -57 -57 -115 -82 -170c-4 -10 -8 -11 -16 -2c-14 15 -25 50 -4 111c34 98 98 217 135 269 c9 12 16 15 24 6c15 -16 23 -59 -1 -109zM214 349c-27 9 -27 -12 -86 -70c-18 -17 -32 -22 -48 -22c-12 0 -17 5 -13 13c24 51 43 74 79 109c21 20 63 20 89 -26c26 -30 50 -35 44 -107c-1 -8 -1 -15 -2 -23l-4 -21c-21 -85 -84 -186 -158 -211c-36 -12 -86 -8 -126 44 c-28 37 -16 78 -2 115c8 24 58 -5 49 -54c-5 -29 -14 -56 -2 -65c28 -23 89 12 138 104c15 28 36 80 42 107c7 32 17 101 0 107zM393 513c6 5 12 4 16 -3c18 -31 40 -38 66 -38c21 0 44 10 65 35c7 8 11 7 14 0c4 -10 1 -33 -16 -51c-19 -20 -46 -31 -78 -31 c-27 0 -49 7 -65 24c-18 20 -19 50 -2 64z" glyph-name="zhebrevecyrillic" horiz-adv-x="785"/>
<glyph unicode="ӄ" d="M257 15c49 18 105 76 137 137c4 8 14 9 18 0c4 -8 0 -36 -14 -62c-23 -43 -101 -92 -144 -108c-172 -66 -210 -209 -191 -232c18 -21 132 135 154 239c14 66 21 133 -86 102c-59 -17 -28 65 -9 72c85 31 170 131 234 207c28 33 47 -14 25 -53c-32 -56 -94 -130 -183 -175 c74 -2 83 -68 81 -130c-3 -107 -104 -275 -167 -310c-20 -11 -41 -17 -66 14c-21 26 -47 61 -23 117c37 86 120 141 234 182zM184 409c8 -20 13 -43 -9 -87c-37 -74 -86 -138 -163 -322c-3 -8 -11 -10 -18 -2c-15 17 -20 49 -1 110c28 91 75 184 164 305c9 12 20 14 27 -4z " glyph-name="kahookcyrillic" horiz-adv-x="367"/>
<glyph unicode="ӆ" d="M280 13c42 2 90 68 129 138c5 9 14 10 18 1c4 -8 5 -35 -9 -63c-10 -20 -25 -39 -41 -55c-9 -8 -38 -98 10 -175c21 -34 -21 -36 -41 -17c-76 65 -216 7 -260 7c-88 0 -109 58 -114 88c-2 9 -2 17 11 14c18 -4 31 -42 98 -42c54 0 73 24 155 24c24 0 75 -9 102 -25 c-11 27 -21 64 -17 87c-18 -8 -36 -13 -53 -13c-92 0 -124 54 -37 229l-8 1c-85 -162 -150 -228 -204 -228c-71 0 -63 66 -44 115c12 32 62 45 47 18c-25 -45 -30 -104 -6 -104c26 0 75 60 180 224l105 163c9 14 27 16 35 6c15 -18 16 -56 3 -91l-79 -212 c-22 -59 -19 -92 20 -90z" glyph-name="eltailcyrillic" horiz-adv-x="365"/>
<glyph unicode="ӊ" d="M157 288c-43 -76 -109 -199 -152 -293c-4 -9 -10 -13 -19 -4c-20 20 -26 53 -10 103c20 63 97 202 160 295c7 11 15 10 21 0c15 -25 19 -68 0 -101zM261 246l-8 -45c-52 -25 -245 -54 -245 -54c-29 -6 -19 38 13 45c0 0 194 28 240 54zM259 13c42 2 93 68 132 138 c5 9 14 10 18 1c4 -8 5 -35 -9 -63c-10 -20 -25 -39 -41 -55c-9 -8 -38 -98 10 -175c21 -34 -21 -36 -41 -17c-76 65 -216 7 -260 7c-88 0 -109 58 -114 88c-2 9 -2 17 11 14c18 -4 31 -42 98 -42c54 0 73 24 155 24c24 0 75 -9 102 -25c-11 27 -21 64 -17 87 c-18 -8 -36 -13 -53 -13c-76 0 -95 67 -67 149c25 73 91 191 128 243c9 12 16 15 24 6c15 -16 23 -59 -1 -109c-21 -44 -63 -112 -84 -162c-24 -58 -23 -98 9 -96z" glyph-name="entailcyrillic" horiz-adv-x="384"/>
<glyph unicode="ӎ" d="M531 13c54 0 101 93 127 137c5 9 13 9 18 2s2 -40 -9 -63c-10 -21 -24 -41 -42 -57c-9 -8 -37 -96 11 -173c21 -34 -21 -36 -41 -17c-76 69 -466 7 -510 7c-88 0 -109 58 -114 88c-2 9 -2 17 11 14c18 -4 31 -42 98 -42c94 0 253 26 355 26c44 0 125 -11 152 -27 c-11 27 -21 64 -17 87c-18 -8 -36 -13 -53 -13c-142 0 -77 146 -37 229l-8 1c-71 -128 -121 -210 -209 -210c-114 0 -75 113 -33 209l-8 1c-82 -148 -141 -227 -204 -228c-43 -1 -57 24 -57 55c0 41 21 92 55 92c5 0 8 -1 8 -6c0 -2 -1 -5 -3 -8c-14 -25 -22 -55 -22 -76 c0 -17 5 -28 16 -28c32 0 77 65 180 224l105 163c6 8 14 12 21 12c18 0 26 -25 26 -49c0 -15 -3 -31 -9 -48c-45 -130 -82 -217 -82 -248c0 -20 10 -34 24 -34c33 0 65 48 165 204l105 163c6 8 14 12 21 12c18 0 26 -25 26 -49c0 -15 -3 -32 -88 -260 c-10 -28 -30 -90 22 -90z" glyph-name="emtailcyrillic" horiz-adv-x="614"/>
<glyph unicode="ӏ" d="M69 -15c-76 0 -95 64 -67 146c25 73 91 191 128 243c9 12 16 15 24 6c15 -16 23 -59 -1 -109c-21 -44 -63 -112 -84 -162c-24 -58 -22 -97 10 -95c45 2 100 68 130 137c5 9 12 8 16 0c8 -16 5 -37 -7 -62c-30 -62 -93 -104 -149 -104z" glyph-name="palochkacyrillic" horiz-adv-x="201"/>
<glyph unicode="Ӑ" d="M313 157c-71 -5 -152 -17 -199 -16c-30 -51 -56 -100 -76 -144c-4 -9 -13 -9 -18 -2c-12 16 -16 46 5 102c6 15 15 35 27 57c-22 12 -30 27 -33 34c-5 13 -3 17 12 15c14 -2 29 -4 45 -5c78 136 217 334 323 421c16 13 26 13 36 -1s13 -16 23 -41c10 -24 9 -46 0 -73 c-26 -79 -54 -181 -73 -291c30 -10 41 -30 45 -51c2 -9 -2 -12 -11 -9c-12 3 -26 5 -43 6c-7 -52 -13 -107 -15 -160c0 -10 -6 -13 -15 -9c-20 9 -36 34 -37 91c0 20 1 46 4 76zM152 201c61 5 122 16 169 17c15 104 43 230 74 308c-76 -85 -167 -206 -243 -325zM383 743 c6 5 12 4 16 -3c18 -31 40 -38 66 -38c21 0 44 10 65 35c7 8 11 7 14 0c4 -10 1 -33 -16 -51c-19 -20 -46 -31 -78 -31c-27 0 -49 7 -65 24c-18 20 -19 50 -2 64z" glyph-name="Abrevecyrillic" horiz-adv-x="442"/>
<glyph unicode="ӑ" d="M324 325c13 24 25 45 36 61c9 13 17 15 24 6c15 -18 23 -61 -1 -111c-22 -45 -72 -120 -96 -173c-25 -56 -26 -99 8 -97c41 2 96 70 131 139c5 9 12 10 16 1s4 -34 -9 -62c-26 -55 -89 -110 -144 -107c-54 3 -82 35 -82 82c-32 -41 -77 -78 -125 -78 c-93 0 -112 127 -29 248c81 118 160 163 210 163c43 0 63 -33 61 -72zM237 170c63 110 72 172 43 175c-32 3 -105 -62 -160 -151c-53 -86 -66 -174 -27 -175c41 -1 93 63 144 151zM253 513c6 5 12 4 16 -3c18 -31 40 -38 66 -38c21 0 44 10 65 35c7 8 11 7 14 0 c4 -10 1 -33 -16 -51c-19 -20 -46 -31 -78 -31c-27 0 -49 7 -65 24c-18 20 -19 50 -2 64z" glyph-name="abrevecyrillic" horiz-adv-x="407"/>
<glyph unicode="Ӕ" d="M128 142c-41 -53 -77 -105 -104 -151c-5 -9 -10 -9 -16 0c-11 17 -13 51 17 109c7 14 17 31 30 49c-19 9 -28 21 -31 28c-6 12 -4 15 10 15c16 -1 34 1 53 3c90 123 245 294 359 372c17 12 38 22 60 27c52 11 148 25 202 26c50 1 75 -18 88 -50c3 -8 1 -16 -12 -15 c-49 4 -142 -11 -212 -27c-38 -61 -91 -153 -142 -248c31 6 59 9 79 10c50 1 73 -21 82 -51c3 -9 1 -15 -12 -15c-57 1 -135 -13 -192 -27c-24 -50 -47 -98 -65 -140c49 15 115 27 152 29c50 3 78 -17 89 -48c3 -8 3 -15 -10 -15c-57 2 -160 -22 -216 -37 c-28 -8 -40 -8 -51 9c-9 14 -17 26 -23 38c-9 18 -10 32 0 58s22 56 36 87c-57 -15 -130 -32 -171 -36zM482 516c-85 -73 -195 -185 -292 -298c52 14 104 31 148 42c44 87 97 179 144 256z" glyph-name="Aiecyrillic" horiz-adv-x="651"/>
<glyph unicode="ӕ" d="M571 89c-45 -66 -124 -109 -237 -109c-84 0 -122 36 -124 87c-33 -43 -79 -83 -129 -83c-91 0 -109 128 -26 248c80 115 159 161 209 161c41 0 62 -34 60 -70c12 24 23 42 35 59c9 13 16 16 25 6c8 -8 12 -24 13 -43c47 33 90 40 115 23c17 -11 25 -20 35 -35 c17 -25 9 -83 -32 -134c-49 -61 -121 -85 -193 -25c-13 -24 -26 -47 -35 -67c-25 -57 -21 -101 50 -101c124 0 188 77 235 147c5 8 14 7 17 -1s-1 -37 -18 -63zM344 209c-3 -5 -7 -10 -10 -15c51 -36 92 8 122 46c33 42 55 92 41 104c-21 19 -96 -40 -153 -135zM280 342 c-33 2 -106 -62 -159 -149c-54 -88 -67 -177 -27 -178c38 -1 91 66 142 153c64 110 71 172 44 174z" glyph-name="aiecyrillic" horiz-adv-x="555"/>
<glyph unicode="Ӗ" d="M218 525c-25 10 -36 30 -42 51c-2 9 1 13 11 12c83 -5 193 24 249 25c42 1 64 -16 76 -49c3 -8 1 -15 -11 -13c-72 1 -142 -17 -203 -27c-40 -60 -89 -147 -138 -236c27 5 53 7 71 8c50 2 72 -14 82 -45c3 -9 3 -15 -10 -15c-54 0 -129 -14 -185 -28 c-29 -56 -56 -111 -77 -158c48 15 114 29 155 31c49 2 74 -14 85 -44c3 -9 2 -15 -10 -15c-56 1 -165 -25 -221 -40c-19 -5 -30 -5 -42 10c-8 9 -14 24 -21 37c-9 17 -9 30 1 57c46 123 146 309 230 439zM293 743c6 5 12 4 16 -3c18 -31 40 -38 66 -38c21 0 44 10 65 35 c7 8 11 7 14 0c4 -10 1 -33 -16 -51c-19 -20 -46 -31 -78 -31c-27 0 -49 7 -65 24c-18 20 -19 50 -2 64z" glyph-name="Iebrevecyrillic" horiz-adv-x="368"/>
<glyph unicode="ӗ" d="M92 171c-32 -92 -8 -155 45 -158c83 -4 156 76 199 142c5 8 13 8 17 -1c4 -8 1 -36 -17 -62c-42 -61 -119 -107 -196 -108c-127 -2 -171 123 -106 252s167 181 217 152c25 -15 43 -30 59 -52c18 -24 10 -85 -32 -136c-49 -60 -116 -86 -186 -29zM101 193 c49 -31 90 12 119 50c32 42 54 94 40 105c-21 17 -104 -43 -151 -138c-3 -6 -6 -12 -8 -17zM193 513c6 5 12 4 16 -3c18 -31 40 -38 66 -38c21 0 44 10 65 35c7 8 11 7 14 0c4 -10 1 -33 -16 -51c-19 -20 -46 -31 -78 -31c-27 0 -49 7 -65 24c-18 20 -19 50 -2 64z" glyph-name="iebrevecyrillic" horiz-adv-x="320"/>
<glyph unicode="Ӝ" d="M406 210c-35 -67 -70 -142 -103 -219c-4 -9 -10 -11 -16 -3c-15 21 -23 50 -5 110c25 85 197 424 258 509c9 12 16 11 24 -2c13 -23 18 -71 -23 -146c-26 -47 -59 -106 -95 -173c131 98 271 223 366 326c7 8 15 7 19 -2c6 -22 5 -56 -31 -105 c-45 -61 -181 -183 -316 -278c32 -51 59 -97 71 -125c24 -57 15 -92 0 -111c-6 -7 -13 -7 -18 2c-38 74 -82 146 -131 217zM296 251l79 1c-5 -11 -13 -23 -22 -36c-29 -39 -112 -103 -202 -161c-36 -23 -73 -42 -109 -42c-29 0 -53 14 -53 27c0 5 6 8 16 13 c87 43 202 124 291 198zM340 387l24 -161l-75 9l-14 85c-14 96 -28 195 -50 282c-2 10 3 16 13 14c25 -4 58 -23 77 -89c8 -29 16 -80 25 -140zM599 708c9 22 30 33 45 28c16 -5 21 -26 12 -48c-8 -20 -30 -32 -45 -27c-16 5 -21 26 -12 47zM484 706c10 21 30 36 45 29 c16 -7 21 -28 12 -48s-28 -34 -45 -29c-16 5 -22 28 -12 48z" glyph-name="Zhedieresiscyrillic" horiz-adv-x="678"/>
<glyph unicode="ӝ" d="M721 386c27 -16 43 -32 55 -55c21 -42 -19 -95 -39 -149c-4 -12 -8 -15 -21 -8c-24 12 -38 42 -24 87c11 36 41 79 27 90c-17 14 -92 -50 -137 -141c-55 -113 -34 -196 25 -197c84 -1 156 79 197 142c5 8 14 9 18 -1c3 -8 -1 -33 -18 -60c-38 -59 -117 -108 -193 -109 c-127 -2 -170 122 -105 251c64 126 165 180 215 150zM539 246l-8 -45c-52 -25 -325 -54 -325 -54c-29 -6 -19 38 13 45c0 0 274 28 320 54zM453 271c-13 -29 -36 -68 -56 -105c-29 -57 -57 -115 -82 -170c-4 -10 -8 -11 -16 -2c-14 15 -25 50 -4 111c34 98 98 217 135 269 c9 12 16 15 24 6c15 -16 23 -59 -1 -109zM214 349c-27 9 -27 -12 -86 -70c-18 -17 -32 -22 -48 -22c-12 0 -17 5 -13 13c24 51 43 74 79 109c21 20 63 20 89 -26c26 -30 50 -35 44 -107c-1 -8 -1 -15 -2 -23l-4 -21c-21 -85 -84 -186 -158 -211c-36 -12 -86 -8 -126 44 c-28 37 -16 78 -2 115c8 24 58 -5 49 -54c-5 -29 -14 -56 -2 -65c28 -23 89 12 138 104c15 28 36 80 42 107c7 32 17 101 0 107zM497 473c10 21 30 36 45 29c16 -7 21 -28 12 -48c-9 -21 -30 -36 -45 -29c-16 7 -22 28 -12 48zM388 473c9 21 29 34 45 27 c15 -7 21 -26 11 -47c-7 -20 -29 -33 -44 -28c-16 5 -21 27 -12 48z" glyph-name="zhedieresiscyrillic" horiz-adv-x="785"/>
<glyph unicode="Ӟ" d="M-30 79c-17 23 -22 39 -22 50c0 13 8 18 13 18c8 0 11 -3 22 -17c47 -59 82 -90 165 -90c92 0 219 86 219 153c0 24 -22 42 -77 45c-21 -5 -45 -8 -65 -8c-26 0 -48 7 -48 22s18 32 36 36c181 44 299 159 299 230c0 30 -18 41 -46 41c-46 0 -118 -29 -178 -44 c-9 -2 -18 -3 -26 -3c-54 0 -73 40 -73 47c0 6 4 8 12 9c74 6 170 59 238 59c55 0 114 -29 114 -132c0 -45 -17 -84 -42 -116c-29 -37 -82 -87 -156 -119c30 -15 61 -44 61 -91c0 -114 -152 -185 -251 -185c-72 0 -140 21 -195 95zM423 743c6 5 12 4 16 -3 c18 -31 40 -38 66 -38c21 0 44 10 65 35c7 8 11 7 14 0c4 -10 1 -33 -16 -51c-19 -20 -46 -31 -78 -31c-27 0 -49 7 -65 24c-18 20 -19 50 -2 64z" glyph-name="Zedieresiscyrillic" horiz-adv-x="500"/>
</font>
</defs>
</svg>
